<?xml version="1.0" encoding="UTF-8"?>
<!DOCTYPE svg PUBLIC "-//W3C//DTD SVG 1.1//EN" "http://www.w3.org/Graphics/SVG/1.1/DTD/svg11.dtd">
<svg xmlns="http://www.w3.org/2000/svg" version="1.1" width="810px" height="2006px" style="shape-rendering:geometricPrecision; text-rendering:geometricPrecision; image-rendering:optimizeQuality; fill-rule:evenodd; clip-rule:evenodd" xmlns:xlink="http://www.w3.org/1999/xlink">
<g><path style="opacity:0.518" fill="#000000" d="M 234.5,0.5 C 237.548,0.494028 238.048,1.49403 236,3.5C 234.961,2.75618 234.461,1.75618 234.5,0.5 Z"/></g>
<g><path style="opacity:0.492" fill="#000000" d="M 281.5,2.5 C 282.5,2.5 283.5,2.5 284.5,2.5C 283.5,7.83333 282.5,7.83333 281.5,2.5 Z"/></g>
<g><path style="opacity:0.664" fill="#000000" d="M 239.5,5.5 C 244.328,5.38524 245.661,7.55191 243.5,12C 242.101,12.5946 240.768,12.4279 239.5,11.5C 238.306,9.48436 238.306,7.48436 239.5,5.5 Z"/></g>
<g><path style="opacity:0.524" fill="#000000" d="M 231.5,17.5 C 234.148,19.1276 234.148,20.7943 231.5,22.5C 228.839,20.8277 228.839,19.1611 231.5,17.5 Z"/></g>
<g><path style="opacity:0.561" fill="#000000" d="M 235.5,28.5 C 236.833,28.5 238.167,28.5 239.5,28.5C 239.672,33.7498 238.005,34.5831 234.5,31C 234.743,30.0979 235.077,29.2646 235.5,28.5 Z"/></g>
<g><path style="opacity:0.506" fill="#000000" d="M 280.5,38.5 C 281.5,38.5 282.5,38.5 283.5,38.5C 283.5,39.8333 283.5,41.1667 283.5,42.5C 280.046,42.7332 279.046,41.3999 280.5,38.5 Z"/></g>
<g><path style="opacity:0.693" fill="#000000" d="M 267.5,48.5 C 272.942,48.8857 274.275,51.3857 271.5,56C 270.101,56.5946 268.768,56.4279 267.5,55.5C 266.286,53.1413 266.286,50.808 267.5,48.5 Z"/></g>
<g><path style="opacity:0.512" fill="#000000" d="M 237.5,58.5 C 239.346,58.2222 240.68,58.8888 241.5,60.5C 240.68,62.1112 239.346,62.7778 237.5,62.5C 237.5,61.1667 237.5,59.8333 237.5,58.5 Z"/></g>
<g><path style="opacity:0.538" fill="#000000" d="M 264.5,67.5 C 265.833,67.5 267.167,67.5 268.5,67.5C 268.778,69.3464 268.111,70.6798 266.5,71.5C 264.889,70.6798 264.222,69.3464 264.5,67.5 Z"/></g>
<g><path style="opacity:0.697" fill="#000000" d="M 247.5,70.5 C 248.822,70.33 249.989,70.6634 251,71.5C 251.495,73.4727 251.662,75.4727 251.5,77.5C 249.362,77.703 247.695,78.703 246.5,80.5C 245.914,80.2907 245.414,79.9574 245,79.5C 244.773,76.1813 245.606,73.1813 247.5,70.5 Z"/></g>
<g><path style="opacity:0.482" fill="#000000" d="M 53.5,133.5 C 54.5,133.5 55.5,133.5 56.5,133.5C 56.5,134.5 56.5,135.5 56.5,136.5C 55.5,136.5 54.5,136.5 53.5,136.5C 53.5,135.5 53.5,134.5 53.5,133.5 Z"/></g>
<g><path style="opacity:0.571" fill="#000000" d="M 27.5,141.5 C 28.8333,141.5 30.1667,141.5 31.5,141.5C 31.6621,143.527 31.4955,145.527 31,147.5C 29.9887,148.337 28.8221,148.67 27.5,148.5C 27.5,146.167 27.5,143.833 27.5,141.5 Z"/></g>
<g><path style="opacity:0.537" fill="#000000" d="M 120.5,165.5 C 122.346,165.222 123.68,165.889 124.5,167.5C 123.311,168.429 121.978,168.762 120.5,168.5C 120.5,167.5 120.5,166.5 120.5,165.5 Z"/></g>
<g><path style="opacity:0.509" fill="#000000" d="M 10.5,179.5 C 11.9953,179.415 12.9953,180.081 13.5,181.5C 12.8763,183.754 11.543,185.421 9.5,186.5C 8.15439,183.9 8.48772,181.567 10.5,179.5 Z"/></g>
<g><path style="opacity:0.411" fill="#000000" d="M 194.5,180.5 C 195.978,180.238 197.311,180.571 198.5,181.5C 196.537,184.194 195.203,183.861 194.5,180.5 Z"/></g>
<g><path style="opacity:0.569" fill="#000000" d="M 665.5,182.5 C 668.166,182.066 669.333,183.066 669,185.5C 665.403,187.066 664.237,186.066 665.5,182.5 Z"/></g>
<g><path style="opacity:0.407" fill="#000000" d="M 115.5,189.5 C 119.31,190.754 119.31,191.754 115.5,192.5C 115.5,191.5 115.5,190.5 115.5,189.5 Z"/></g>
<g><path style="opacity:0.613" fill="#000000" d="M 95.5,192.5 C 99.1378,191.737 100.638,193.07 100,196.5C 96.3307,198.009 94.8307,196.676 95.5,192.5 Z"/></g>
<g><path style="opacity:0.554" fill="#000000" d="M 558.5,200.5 C 560.912,200.694 561.912,202.027 561.5,204.5C 560.167,204.5 558.833,204.5 557.5,204.5C 557.433,203.041 557.766,201.708 558.5,200.5 Z"/></g>
<g><path style="opacity:0.523" fill="#000000" d="M 7.5,203.5 C 8.97782,203.238 10.3112,203.571 11.5,204.5C 10.6798,206.111 9.34642,206.778 7.5,206.5C 7.5,205.5 7.5,204.5 7.5,203.5 Z"/></g>
<g><path style="opacity:0.5" fill="#000000" d="M 135.5,204.5 C 136.5,204.5 137.5,204.5 138.5,204.5C 138.5,205.5 138.5,206.5 138.5,207.5C 137.5,207.5 136.5,207.5 135.5,207.5C 135.5,206.5 135.5,205.5 135.5,204.5 Z"/></g>
<g><path style="opacity:0.469" fill="#000000" d="M 135.5,210.5 C 137.344,212.279 138.01,214.612 137.5,217.5C 136.5,217.5 135.5,217.5 134.5,217.5C 134.993,215.194 135.326,212.861 135.5,210.5 Z"/></g>
<g><path style="opacity:0.66" fill="#000000" d="M -0.5,225.5 C -0.5,224.833 -0.5,224.167 -0.5,223.5C 1.85453,221.212 4.52119,221.045 7.5,223C 9.16567,226.131 8.16567,227.631 4.5,227.5C 2.48607,227.563 0.819406,226.897 -0.5,225.5 Z"/></g>
<g><path style="opacity:0.423" fill="#000000" d="M 144.5,224.5 C 145.978,224.238 147.311,224.571 148.5,225.5C 146.537,228.194 145.203,227.861 144.5,224.5 Z"/></g>
<g><path style="opacity:0.474" fill="#000000" d="M 657.5,230.5 C 658.5,230.5 659.5,230.5 660.5,230.5C 660.5,231.5 660.5,232.5 660.5,233.5C 659.5,233.5 658.5,233.5 657.5,233.5C 657.5,232.5 657.5,231.5 657.5,230.5 Z"/></g>
<g><path style="opacity:0.585" fill="#000000" d="M 25.5,232.5 C 27.6648,232.116 29.3315,232.783 30.5,234.5C 29.3315,236.217 27.6648,236.884 25.5,236.5C 25.5,235.167 25.5,233.833 25.5,232.5 Z"/></g>
<g><path style="opacity:0.402" fill="#000000" d="M 330.5,232.5 C 331.5,232.5 332.5,232.5 333.5,232.5C 333.778,234.346 333.111,235.68 331.5,236.5C 330.571,235.311 330.238,233.978 330.5,232.5 Z"/></g>
<g><path style="opacity:0.663" fill="#000000" d="M 30.5,238.5 C 35.3276,238.385 36.6609,240.552 34.5,245C 29.5705,245.427 28.2372,243.26 30.5,238.5 Z"/></g>
<g><path style="opacity:0.65" fill="#000000" d="M 203.5,248.5 C 205.167,248.5 206.833,248.5 208.5,248.5C 208.39,251.386 207.223,253.72 205,255.5C 203.72,255.387 202.887,254.72 202.5,253.5C 203.309,251.929 203.643,250.262 203.5,248.5 Z"/></g>
<g><path style="opacity:0.619" fill="#000000" d="M 47.5,254.5 C 48.8333,254.5 50.1667,254.5 51.5,254.5C 51.5,256.167 51.5,257.833 51.5,259.5C 49.8333,259.5 48.1667,259.5 46.5,259.5C 46.366,257.708 46.6993,256.042 47.5,254.5 Z"/></g>
<g><path style="opacity:0.658" fill="#000000" d="M 127.5,255.5 C 129.977,255.051 131.977,255.717 133.5,257.5C 132.288,259.923 130.288,260.923 127.5,260.5C 127.5,258.833 127.5,257.167 127.5,255.5 Z"/></g>
<g><path style="opacity:0.558" fill="#000000" d="M 190.5,263.5 C 191.675,263.281 192.675,263.614 193.5,264.5C 191.948,265.798 190.948,265.465 190.5,263.5 Z"/></g>
<g><path style="opacity:0.535" fill="#000000" d="M 663.5,265.5 C 664.833,265.5 666.167,265.5 667.5,265.5C 667.5,266.5 667.5,267.5 667.5,268.5C 666.167,268.5 664.833,268.5 663.5,268.5C 663.5,267.5 663.5,266.5 663.5,265.5 Z"/></g>
<g><path style="opacity:0.643" fill="#000000" d="M 19.5,269.5 C 23.35,269.701 24.35,271.534 22.5,275C 21.2068,275.49 19.8734,275.657 18.5,275.5C 18.3253,273.379 18.6586,271.379 19.5,269.5 Z"/></g>
<g><path style="opacity:0.579" fill="#000000" d="M 660.5,274.5 C 662.912,274.694 663.912,276.027 663.5,278.5C 661.396,278.799 659.396,278.466 657.5,277.5C 658.34,276.265 659.34,275.265 660.5,274.5 Z"/></g>
<g><path style="opacity:0.503" fill="#000000" d="M 119.5,282.5 C 116.5,282.833 115.167,281.5 115.5,278.5C 116.833,278.5 118.167,278.5 119.5,278.5C 119.5,279.833 119.5,281.167 119.5,282.5 Z"/></g>
<g><path style="opacity:0.375" fill="#000000" d="M 119.5,282.5 C 121.23,281.024 122.563,281.358 123.5,283.5C 122.833,283.833 122.167,284.167 121.5,284.5C 120.287,284.253 119.62,283.586 119.5,282.5 Z"/></g>
<g><path style="opacity:0.625" fill="#000000" d="M 652.5,284.5 C 654.665,284.116 656.332,284.783 657.5,286.5C 656.332,288.217 654.665,288.884 652.5,288.5C 652.5,287.167 652.5,285.833 652.5,284.5 Z"/></g>
<g><path style="opacity:0.539" fill="#000000" d="M 124.5,288.5 C 127.166,288.066 128.333,289.066 128,291.5C 124.403,293.066 123.237,292.066 124.5,288.5 Z"/></g>
<g><path style="opacity:0.59" fill="#000000" d="M 197.5,291.5 C 202.041,291.815 203.041,293.649 200.5,297C 196.537,297.118 195.537,295.284 197.5,291.5 Z"/></g>
<g><path style="opacity:0.597" fill="#000000" d="M 441.5,296.5 C 444.179,296.525 445.512,297.858 445.5,300.5C 441.56,301.234 440.227,299.901 441.5,296.5 Z"/></g>
<g><path style="opacity:0.57" fill="#000000" d="M 538.5,300.5 C 539.5,300.5 540.5,300.5 541.5,300.5C 540.5,305.833 539.5,305.833 538.5,300.5 Z"/></g>
<g><path style="opacity:0.483" fill="#000000" d="M 121.5,303.5 C 123.346,303.222 124.68,303.889 125.5,305.5C 124.311,306.429 122.978,306.762 121.5,306.5C 121.5,305.5 121.5,304.5 121.5,303.5 Z"/></g>
<g><path style="opacity:0.513" fill="#000000" d="M 146.5,312.5 C 147.725,313.152 148.392,314.319 148.5,316C 148.546,317.728 148.046,319.228 147,320.5C 146.056,319.737 145.556,318.737 145.5,317.5C 146.046,315.865 146.38,314.199 146.5,312.5 Z"/></g>
<g><path style="opacity:0.435" fill="#000000" d="M 123.5,319.5 C 124.5,319.5 125.5,319.5 126.5,319.5C 126.426,323.541 125.093,324.208 122.5,321.5C 122.863,320.817 123.196,320.15 123.5,319.5 Z"/></g>
<g><path style="opacity:0.624" fill="#000000" d="M 101.5,322.5 C 103.199,322.34 104.866,322.506 106.5,323C 107.995,326.841 106.661,328.174 102.5,327C 101.62,325.644 101.286,324.144 101.5,322.5 Z"/></g>
<g><path style="opacity:0.513" fill="#000000" d="M 94.5,327.5 C 95.5,327.5 96.5,327.5 97.5,327.5C 96.7542,331.31 95.7542,331.31 94.5,327.5 Z"/></g>
<g><path style="opacity:0.485" fill="#000000" d="M 666.5,335.5 C 667.754,331.69 668.754,331.69 669.5,335.5C 668.5,335.5 667.5,335.5 666.5,335.5 Z"/></g>
<g><path style="opacity:0.39" fill="#000000" d="M 666.5,335.5 C 666.5,336.5 666.5,337.5 666.5,338.5C 665.167,338.5 663.833,338.5 662.5,338.5C 662.5,337.5 662.5,336.5 662.5,335.5C 663.833,335.5 665.167,335.5 666.5,335.5 Z"/></g>
<g><path style="opacity:0.535" fill="#000000" d="M 638.5,338.5 C 639.5,338.5 640.5,338.5 641.5,338.5C 641.5,339.5 641.5,340.5 641.5,341.5C 640.5,341.5 639.5,341.5 638.5,341.5C 638.5,340.5 638.5,339.5 638.5,338.5 Z"/></g>
<g><path style="opacity:0.64" fill="#000000" d="M 133.5,340.5 C 138.477,342.152 138.81,344.652 134.5,348C 133.207,348.49 131.873,348.657 130.5,348.5C 130.338,345.309 131.338,342.642 133.5,340.5 Z"/></g>
<g><path style="opacity:0.611" fill="#000000" d="M 137.5,353.5 C 141.909,352.899 143.242,354.566 141.5,358.5C 135.547,360.223 134.214,358.556 137.5,353.5 Z"/></g>
<g><path style="opacity:0.513" fill="#000000" d="M 247.5,362.5 C 251.31,363.754 251.31,364.754 247.5,365.5C 247.5,364.5 247.5,363.5 247.5,362.5 Z"/></g>
<g><path style="opacity:0.393" fill="#000000" d="M 134.5,371.5 C 138.31,372.754 138.31,373.754 134.5,374.5C 134.5,373.5 134.5,372.5 134.5,371.5 Z"/></g>
<g><path style="opacity:0.624" fill="#000000" d="M 529.5,374.5 C 530.833,374.5 532.167,374.5 533.5,374.5C 533.884,376.665 533.217,378.332 531.5,379.5C 529.783,378.332 529.116,376.665 529.5,374.5 Z"/></g>
<g><path style="opacity:0.456" fill="#000000" d="M 184.5,378.5 C 185.5,378.5 186.5,378.5 187.5,378.5C 187.5,379.5 187.5,380.5 187.5,381.5C 186.5,381.5 185.5,381.5 184.5,381.5C 184.5,380.5 184.5,379.5 184.5,378.5 Z"/></g>
<g><path style="opacity:0.447" fill="#000000" d="M 104.5,386.5 C 105.5,386.5 106.5,386.5 107.5,386.5C 106.754,390.31 105.754,390.31 104.5,386.5 Z"/></g>
<g><path style="opacity:0.639" fill="#000000" d="M 605.5,388.5 C 610.159,388.015 611.492,389.848 609.5,394C 605.126,394.424 603.792,392.591 605.5,388.5 Z"/></g>
<g><path style="opacity:0.472" fill="#000000" d="M 357.5,393.5 C 358.833,393.5 360.167,393.5 361.5,393.5C 361.5,394.5 361.5,395.5 361.5,396.5C 360.167,396.5 358.833,396.5 357.5,396.5C 357.5,395.5 357.5,394.5 357.5,393.5 Z"/></g>
<g><path style="opacity:0.643" fill="#000000" d="M 445.5,401.5 C 450.42,404.038 450.586,406.705 446,409.5C 442.87,407.182 442.703,404.515 445.5,401.5 Z"/></g>
<g><path style="opacity:0.461" fill="#000000" d="M 211.5,441.5 C 213.628,440.371 215.961,440.204 218.5,441C 216.19,441.497 213.857,441.663 211.5,441.5 Z"/></g>
<g><path style="opacity:0.545" fill="#000000" d="M 338.5,441.5 C 339.675,441.281 340.675,441.614 341.5,442.5C 340.948,444.003 340.948,445.669 341.5,447.5C 339.571,447.769 337.905,447.269 336.5,446C 337.582,444.67 338.249,443.17 338.5,441.5 Z"/></g>
<g><path style="opacity:0.393" fill="#000000" d="M 547.5,447.5 C 548.5,447.5 549.5,447.5 550.5,447.5C 550.5,448.5 550.5,449.5 550.5,450.5C 549.5,450.5 548.5,450.5 547.5,450.5C 547.5,449.5 547.5,448.5 547.5,447.5 Z"/></g>
<g><path style="opacity:0.577" fill="#000000" d="M 651.5,449.5 C 657.005,452.171 656.671,453.838 650.5,454.5C 650.366,452.708 650.699,451.042 651.5,449.5 Z"/></g>
<g><path style="opacity:0.617" fill="#000000" d="M 513.5,454.5 C 517.264,455.385 518.264,457.552 516.5,461C 515.216,461.684 514.049,461.517 513,460.5C 512.51,458.455 512.677,456.455 513.5,454.5 Z"/></g>
<g><path style="opacity:0.561" fill="#000000" d="M 331.5,460.5 C 333.912,460.244 335.579,461.244 336.5,463.5C 332.769,466.463 331.102,465.463 331.5,460.5 Z"/></g>
<g><path style="opacity:0.66" fill="#000000" d="M 324.5,465.5 C 327.206,465.575 329.873,465.908 332.5,466.5C 332.5,467.5 332.5,468.5 332.5,469.5C 328.313,471.327 325.646,469.994 324.5,465.5 Z"/></g>
<g><path style="opacity:0.424" fill="#000000" d="M 399.5,469.5 C 400.5,469.5 401.5,469.5 402.5,469.5C 402.5,470.5 402.5,471.5 402.5,472.5C 401.5,472.5 400.5,472.5 399.5,472.5C 399.5,471.5 399.5,470.5 399.5,469.5 Z"/></g>
<g><path style="opacity:0.674" fill="#000000" d="M 189.5,471.5 C 190.5,471.5 191.5,471.5 192.5,471.5C 192.5,472.833 192.5,474.167 192.5,475.5C 190.801,475.62 189.135,475.954 187.5,476.5C 186.263,476.444 185.263,475.944 184.5,475C 185.887,473.317 187.553,472.15 189.5,471.5 Z"/></g>
<g><path style="opacity:0.483" fill="#000000" d="M 190.5,476.5 C 191.833,476.5 193.167,476.5 194.5,476.5C 194.884,478.665 194.217,480.332 192.5,481.5C 190.783,480.332 190.116,478.665 190.5,476.5 Z"/></g>
<g><path style="opacity:0.603" fill="#000000" d="M 637.5,481.5 C 638.5,481.5 639.5,481.5 640.5,481.5C 640.5,482.5 640.5,483.5 640.5,484.5C 639.5,484.5 638.5,484.5 637.5,484.5C 637.5,483.5 637.5,482.5 637.5,481.5 Z"/></g>
<g><path style="opacity:0.62" fill="#000000" d="M 192.5,484.5 C 194.167,484.5 195.833,484.5 197.5,484.5C 196.957,492.466 194.957,493.133 191.5,486.5C 191.863,485.817 192.196,485.15 192.5,484.5 Z"/></g>
<g><path style="opacity:0.471" fill="#000000" d="M 479.5,490.5 C 481.912,490.694 482.912,492.027 482.5,494.5C 481.167,494.5 479.833,494.5 478.5,494.5C 478.433,493.041 478.766,491.708 479.5,490.5 Z"/></g>
<g><path style="opacity:0.579" fill="#000000" d="M 534.5,493.5 C 537.084,494.048 538.084,495.715 537.5,498.5C 536.167,498.5 534.833,498.5 533.5,498.5C 533.366,496.708 533.699,495.042 534.5,493.5 Z"/></g>
<g><path style="opacity:0.588" fill="#000000" d="M 279.5,498.5 C 281.167,498.5 282.833,498.5 284.5,498.5C 284.5,499.833 284.5,501.167 284.5,502.5C 282.833,502.5 281.167,502.5 279.5,502.5C 279.5,501.167 279.5,499.833 279.5,498.5 Z"/></g>
<g><path style="opacity:0.673" fill="#000000" d="M 467.5,502.5 C 469.167,502.5 470.833,502.5 472.5,502.5C 471.947,504.939 471.947,507.273 472.5,509.5C 466.811,510.451 465.144,508.118 467.5,502.5 Z"/></g>
<g><path style="opacity:0.603" fill="#000000" d="M 293.5,509.5 C 295.28,510.99 295.946,512.99 295.5,515.5C 293.833,515.5 292.167,515.5 290.5,515.5C 290.461,512.911 291.461,510.911 293.5,509.5 Z"/></g>
<g><path style="opacity:0.562" fill="#000000" d="M 355.5,515.5 C 356.833,515.5 358.167,515.5 359.5,515.5C 359.5,516.833 359.5,518.167 359.5,519.5C 358.167,519.5 356.833,519.5 355.5,519.5C 355.5,518.167 355.5,516.833 355.5,515.5 Z"/></g>
<g><path style="opacity:0.625" fill="#000000" d="M 334.5,519.5 C 338.235,519.546 339.568,521.213 338.5,524.5C 337.167,525.833 335.833,525.833 334.5,524.5C 333.334,522.833 333.334,521.166 334.5,519.5 Z"/></g>
<g><path style="opacity:0.611" fill="#000000" d="M 238.5,524.5 C 242.161,524.35 243.161,525.85 241.5,529C 240.551,529.617 239.718,529.451 239,528.5C 238.51,527.207 238.343,525.873 238.5,524.5 Z"/></g>
<g><path style="opacity:0.466" fill="#000000" d="M 549.5,528.5 C 550.5,528.5 551.5,528.5 552.5,528.5C 552.5,529.833 552.5,531.167 552.5,532.5C 551.5,532.5 550.5,532.5 549.5,532.5C 549.5,531.167 549.5,529.833 549.5,528.5 Z"/></g>
<g><path style="opacity:0.544" fill="#000000" d="M 300.5,531.5 C 304.161,531.35 305.161,532.85 303.5,536C 299.707,536.487 298.707,534.987 300.5,531.5 Z"/></g>
<g><path style="opacity:0.816" fill="#000000" d="M 109.5,535.5 C 115.873,535.368 118.373,538.368 117,544.5C 113.333,548.5 109.667,548.5 106,544.5C 104.665,540.392 105.832,537.392 109.5,535.5 Z"/></g>
<g><path style="opacity:0.574" fill="#000000" d="M 502.5,546.5 C 504.948,546.085 506.281,547.085 506.5,549.5C 504.584,553.327 502.917,553.327 501.5,549.5C 501.685,548.416 502.018,547.416 502.5,546.5 Z"/></g>
<g><path style="opacity:0.366" fill="#000000" d="M 196.5,551.5 C 198.355,551.272 199.188,551.939 199,553.5C 196.366,554.692 195.532,554.026 196.5,551.5 Z"/></g>
<g><path style="opacity:0.398" fill="#000000" d="M 254.5,553.5 C 258.31,554.754 258.31,555.754 254.5,556.5C 254.5,555.5 254.5,554.5 254.5,553.5 Z"/></g>
<g><path style="opacity:0.625" fill="#000000" d="M 117.5,556.5 C 118.833,556.5 120.167,556.5 121.5,556.5C 121.5,557.833 121.5,559.167 121.5,560.5C 120.167,560.5 118.833,560.5 117.5,560.5C 117.5,559.167 117.5,557.833 117.5,556.5 Z"/></g>
<g><path style="opacity:0.378" fill="#000000" d="M 184.5,559.5 C 186.048,559.821 186.715,560.821 186.5,562.5C 183.752,562.598 183.086,561.598 184.5,559.5 Z"/></g>
<g><path style="opacity:0.558" fill="#000000" d="M 206.5,562.5 C 207.5,562.5 208.5,562.5 209.5,562.5C 209.5,563.5 209.5,564.5 209.5,565.5C 208.5,565.5 207.5,565.5 206.5,565.5C 206.5,564.5 206.5,563.5 206.5,562.5 Z"/></g>
<g><path style="opacity:0.749" fill="#000000" d="M 522.5,564.5 C 523.496,564.414 524.329,564.748 525,565.5C 526.004,568.993 525.504,572.159 523.5,575C 518,576.167 515.833,574 517,568.5C 518.441,567.74 519.941,567.074 521.5,566.5C 522.298,566.043 522.631,565.376 522.5,564.5 Z"/></g>
<g><path style="opacity:0.591" fill="#000000" d="M 424.5,588.5 C 427.588,588.197 429.254,589.53 429.5,592.5C 427.801,592.66 426.134,592.494 424.5,592C 423.316,590.855 423.316,589.688 424.5,588.5 Z"/></g>
<g><path style="opacity:0.375" fill="#000000" d="M 535.5,592.5 C 536.5,592.5 537.5,592.5 538.5,592.5C 538.5,593.5 538.5,594.5 538.5,595.5C 537.5,595.5 536.5,595.5 535.5,595.5C 535.5,594.5 535.5,593.5 535.5,592.5 Z"/></g>
<g><path style="opacity:0.499" fill="#000000" d="M 543.5,594.5 C 545.912,594.694 546.912,596.027 546.5,598.5C 545.167,598.5 543.833,598.5 542.5,598.5C 542.433,597.041 542.766,595.708 543.5,594.5 Z"/></g>
<g><path style="opacity:0.602" fill="#000000" d="M 537.5,597.5 C 540.96,599.061 541.293,601.061 538.5,603.5C 535.025,601.916 534.692,599.916 537.5,597.5 Z"/></g>
<g><path style="opacity:0.64" fill="#000000" d="M 404.5,602.5 C 409.668,603.339 410.668,605.839 407.5,610C 405.888,610.72 404.388,610.554 403,609.5C 402.391,606.935 402.891,604.601 404.5,602.5 Z"/></g>
<g><path style="opacity:0.541" fill="#000000" d="M 339.5,609.5 C 343.161,609.35 344.161,610.85 342.5,614C 338.707,614.487 337.707,612.987 339.5,609.5 Z"/></g>
<g><path style="opacity:0.649" fill="#000000" d="M 461.5,613.5 C 464.695,613.513 466.362,615.18 466.5,618.5C 464.56,622.187 462.56,622.02 460.5,618C 461.38,616.644 461.714,615.144 461.5,613.5 Z"/></g>
<g><path style="opacity:0.503" fill="#000000" d="M 98.5,620.5 C 101.166,620.066 102.333,621.066 102,623.5C 98.4034,625.066 97.2368,624.066 98.5,620.5 Z"/></g>
<g><path style="opacity:0.441" fill="#000000" d="M 296.5,623.5 C 299.674,623.952 300.007,624.952 297.5,626.5C 296.614,625.675 296.281,624.675 296.5,623.5 Z"/></g>
<g><path style="opacity:0.599" fill="#000000" d="M 302.5,626.5 C 309.299,626.406 309.966,628.073 304.5,631.5C 303.05,630.15 302.383,628.484 302.5,626.5 Z"/></g>
<g><path style="opacity:0.562" fill="#000000" d="M 166.5,636.5 C 170.419,635.746 171.753,637.08 170.5,640.5C 167.07,641.742 165.737,640.409 166.5,636.5 Z"/></g>
<g><path style="opacity:0.653" fill="#000000" d="M 540.5,643.5 C 542.167,643.5 543.833,643.5 545.5,643.5C 545.5,644.833 545.5,646.167 545.5,647.5C 543.833,647.5 542.167,647.5 540.5,647.5C 540.5,646.167 540.5,644.833 540.5,643.5 Z"/></g>
<g><path style="opacity:0.554" fill="#000000" d="M 449.5,647.5 C 452.833,647.5 454.5,649.167 454.5,652.5C 450.358,652.687 448.691,651.021 449.5,647.5 Z"/></g>
<g><path style="opacity:0.512" fill="#000000" d="M 317.5,651.5 C 321.138,650.737 322.638,652.07 322,655.5C 318.331,657.009 316.831,655.676 317.5,651.5 Z"/></g>
<g><path style="opacity:0.529" fill="#000000" d="M 528.5,655.5 C 529.5,655.5 530.5,655.5 531.5,655.5C 531.5,656.833 531.5,658.167 531.5,659.5C 530.167,659.5 528.833,659.5 527.5,659.5C 527.433,658.041 527.766,656.708 528.5,655.5 Z"/></g>
<g><path style="opacity:0.726" fill="#000000" d="M 320.5,659.5 C 324.843,659.347 327.01,661.347 327,665.5C 323.302,667.169 320.802,666.003 319.5,662C 319.743,661.098 320.077,660.265 320.5,659.5 Z"/></g>
<g><path style="opacity:0.457" fill="#000000" d="M 423.5,672.5 C 427.31,673.754 427.31,674.754 423.5,675.5C 423.5,674.5 423.5,673.5 423.5,672.5 Z"/></g>
<g><path style="opacity:0.666" fill="#000000" d="M 472.5,680.5 C 474.989,680.298 477.323,680.798 479.5,682C 482.156,684.229 481.823,686.062 478.5,687.5C 476.608,684.956 474.775,684.956 473,687.5C 468.585,685.432 468.418,683.098 472.5,680.5 Z"/></g>
<g><path style="opacity:0.645" fill="#000000" d="M 224.5,688.5 C 229.21,689.243 230.544,691.909 228.5,696.5C 226.994,697.747 225.494,697.747 224,696.5C 223.278,693.739 223.445,691.073 224.5,688.5 Z"/></g>
<g><path style="opacity:0.545" fill="#000000" d="M 258.5,702.5 C 261.524,702.364 263.024,703.698 263,706.5C 258.415,708.413 256.915,707.079 258.5,702.5 Z"/></g>
<g><path style="opacity:0.571" fill="#000000" d="M 544.5,707.5 C 545.5,707.5 546.5,707.5 547.5,707.5C 547.5,708.5 547.5,709.5 547.5,710.5C 544.506,710.854 543.506,709.854 544.5,707.5 Z"/></g>
<g><path style="opacity:0.638" fill="#000000" d="M 419.5,710.5 C 421.167,710.5 422.833,710.5 424.5,710.5C 424.985,715.159 423.152,716.492 419,714.5C 418.421,713.072 418.588,711.738 419.5,710.5 Z"/></g>
<g><path style="opacity:0.821" fill="#000000" d="M 373.5,715.5 C 380.93,713.441 384.097,716.107 383,723.5C 377.47,728.234 373.637,727.234 371.5,720.5C 371.437,718.486 372.103,716.819 373.5,715.5 Z"/></g>
<g><path style="opacity:0.552" fill="#000000" d="M 554.5,726.5 C 555.833,726.5 557.167,726.5 558.5,726.5C 558.778,728.346 558.111,729.68 556.5,730.5C 554.889,729.68 554.222,728.346 554.5,726.5 Z"/></g>
<g><path style="opacity:0.375" fill="#000000" d="M 205.5,734.5 C 206.5,734.5 207.5,734.5 208.5,734.5C 208.5,735.5 208.5,736.5 208.5,737.5C 207.5,737.5 206.5,737.5 205.5,737.5C 205.5,736.5 205.5,735.5 205.5,734.5 Z"/></g>
<g><path style="opacity:0.761" fill="#000000" d="M 221.5,737.5 C 222.833,737.5 224.167,737.5 225.5,737.5C 225.5,738.833 225.5,740.167 225.5,741.5C 221.56,742.234 220.227,740.901 221.5,737.5 Z"/></g>
<g><path style="opacity:0.503" fill="#000000" d="M 269.5,744.5 C 271.833,744.5 274.167,744.5 276.5,744.5C 276.5,745.5 276.5,746.5 276.5,747.5C 274.167,747.5 271.833,747.5 269.5,747.5C 269.5,746.5 269.5,745.5 269.5,744.5 Z"/></g>
<g><path style="opacity:0.519" fill="#000000" d="M 285.5,753.5 C 286.5,753.5 287.5,753.5 288.5,753.5C 288.5,754.5 288.5,755.5 288.5,756.5C 287.5,756.5 286.5,756.5 285.5,756.5C 285.5,755.5 285.5,754.5 285.5,753.5 Z"/></g>
<g><path style="opacity:0.481" fill="#000000" d="M 260.5,756.5 C 265.833,757.5 265.833,758.5 260.5,759.5C 260.5,758.5 260.5,757.5 260.5,756.5 Z"/></g>
<g><path style="opacity:0.673" fill="#000000" d="M 169.5,761.5 C 171.977,761.051 173.977,761.717 175.5,763.5C 173.956,765.446 171.956,765.946 169.5,765C 168.316,763.855 168.316,762.688 169.5,761.5 Z"/></g>
<g><path style="opacity:0.632" fill="#000000" d="M 249.5,765.5 C 251.167,765.5 252.833,765.5 254.5,765.5C 254.5,766.833 254.5,768.167 254.5,769.5C 252.143,769.663 249.81,769.497 247.5,769C 248.823,768.184 249.489,767.017 249.5,765.5 Z"/></g>
<g><path style="opacity:0.481" fill="#000000" d="M 480.5,769.5 C 481.5,769.5 482.5,769.5 483.5,769.5C 483.426,773.541 482.093,774.208 479.5,771.5C 479.863,770.817 480.196,770.15 480.5,769.5 Z"/></g>
<g><path style="opacity:0.425" fill="#000000" d="M 500.5,772.5 C 501.5,772.5 502.5,772.5 503.5,772.5C 503.5,773.5 503.5,774.5 503.5,775.5C 502.5,775.5 501.5,775.5 500.5,775.5C 500.5,774.5 500.5,773.5 500.5,772.5 Z"/></g>
<g><path style="opacity:0.645" fill="#000000" d="M 400.5,773.5 C 403.776,774.122 405.109,776.122 404.5,779.5C 399.74,779.799 398.406,777.799 400.5,773.5 Z"/></g>
<g><path style="opacity:0.562" fill="#000000" d="M 236.5,775.5 C 237.5,775.5 238.5,775.5 239.5,775.5C 239.778,777.346 239.111,778.68 237.5,779.5C 236.571,778.311 236.238,776.978 236.5,775.5 Z"/></g>
<g><path style="opacity:0.579" fill="#000000" d="M 549.5,778.5 C 551.104,779.287 551.771,780.62 551.5,782.5C 547.421,782.466 546.754,781.133 549.5,778.5 Z"/></g>
<g><path style="opacity:0.451" fill="#000000" d="M 147.5,782.5 C 148.675,782.281 149.675,782.614 150.5,783.5C 148.948,784.798 147.948,784.465 147.5,782.5 Z"/></g>
<g><path style="opacity:0.355" fill="#000000" d="M 469.5,783.5 C 470.5,783.5 471.5,783.5 472.5,783.5C 471.754,787.31 470.754,787.31 469.5,783.5 Z"/></g>
<g><path style="opacity:0.616" fill="#000000" d="M 661.5,784.5 C 665.161,784.35 666.161,785.85 664.5,789C 663.551,789.617 662.718,789.451 662,788.5C 661.51,787.207 661.343,785.873 661.5,784.5 Z"/></g>
<g><path style="opacity:0.584" fill="#000000" d="M 200.5,788.5 C 204.473,789.075 205.473,791.242 203.5,795C 202.216,795.684 201.049,795.517 200,794.5C 199.322,792.402 199.489,790.402 200.5,788.5 Z"/></g>
<g><path style="opacity:0.532" fill="#000000" d="M 586.5,794.5 C 590.138,793.737 591.638,795.07 591,798.5C 586.415,800.413 584.915,799.079 586.5,794.5 Z"/></g>
<g><path style="opacity:0.731" fill="#000000" d="M 599.5,798.5 C 605.856,800.86 606.023,803.527 600,806.5C 598.043,805.116 597.043,805.783 597,808.5C 594.45,809.98 592.617,809.313 591.5,806.5C 592.375,804.227 594.042,803.227 596.5,803.5C 596.31,801.041 597.31,799.374 599.5,798.5 Z"/></g>
<g><path style="opacity:0.724" fill="#000000" d="M 424.5,808.5 C 429.651,809.468 430.651,811.968 427.5,816C 422.628,816.625 420.628,814.459 421.5,809.5C 422.791,809.737 423.791,809.404 424.5,808.5 Z"/></g>
<g><path style="opacity:0.448" fill="#000000" d="M 512.5,808.5 C 514.912,808.694 515.912,810.027 515.5,812.5C 514.167,812.5 512.833,812.5 511.5,812.5C 511.433,811.041 511.766,809.708 512.5,808.5 Z"/></g>
<g><path style="opacity:0.493" fill="#000000" d="M 237.5,811.5 C 238.5,811.5 239.5,811.5 240.5,811.5C 240.5,812.833 240.5,814.167 240.5,815.5C 239.5,815.5 238.5,815.5 237.5,815.5C 237.5,814.167 237.5,812.833 237.5,811.5 Z"/></g>
<g><path style="opacity:0.723" fill="#000000" d="M 508.5,814.5 C 515.831,816.465 516.164,819.132 509.5,822.5C 505.964,820.228 505.631,817.561 508.5,814.5 Z"/></g>
<g><path style="opacity:0.692" fill="#000000" d="M 468.5,817.5 C 471.804,818.144 473.138,820.144 472.5,823.5C 470.833,823.5 469.167,823.5 467.5,823.5C 467.325,821.379 467.659,819.379 468.5,817.5 Z"/></g>
<g><path style="opacity:0.403" fill="#000000" d="M 119.5,821.5 C 120.5,821.5 121.5,821.5 122.5,821.5C 122.5,822.5 122.5,823.5 122.5,824.5C 121.5,824.5 120.5,824.5 119.5,824.5C 119.5,823.5 119.5,822.5 119.5,821.5 Z"/></g>
<g><path style="opacity:0.593" fill="#000000" d="M 344.5,823.5 C 348.234,824.974 348.4,826.64 345,828.5C 341.928,827.119 341.761,825.452 344.5,823.5 Z"/></g>
<g><path style="opacity:0.483" fill="#000000" d="M 412.5,829.5 C 417.137,829.608 417.47,830.608 413.5,832.5C 412.614,831.675 412.281,830.675 412.5,829.5 Z"/></g>
<g><path style="opacity:0.483" fill="#000000" d="M 297.5,839.5 C 299.912,839.694 300.912,841.027 300.5,843.5C 299.167,843.5 297.833,843.5 296.5,843.5C 296.433,842.041 296.766,840.708 297.5,839.5 Z"/></g>
<g><path style="opacity:0.645" fill="#000000" d="M 458.5,839.5 C 463.801,840.236 464.634,842.57 461,846.5C 458.228,844.68 457.395,842.347 458.5,839.5 Z"/></g>
<g><path style="opacity:0.564" fill="#000000" d="M 551.5,842.5 C 553.625,843.368 553.791,844.368 552,845.5C 550.317,844.824 550.15,843.824 551.5,842.5 Z"/></g>
<g><path style="opacity:0.643" fill="#000000" d="M 583.5,845.5 C 587.138,844.737 588.638,846.07 588,849.5C 580.887,852.888 579.387,851.554 583.5,845.5 Z"/></g>
<g><path style="opacity:0.526" fill="#000000" d="M 208.5,850.5 C 209.995,850.415 210.995,851.081 211.5,852.5C 210.68,854.111 209.346,854.778 207.5,854.5C 207.433,853.041 207.766,851.708 208.5,850.5 Z"/></g>
<g><path style="opacity:0.441" fill="#000000" d="M 201.5,854.5 C 202.833,854.5 204.167,854.5 205.5,854.5C 205.5,855.5 205.5,856.5 205.5,857.5C 204.167,857.5 202.833,857.5 201.5,857.5C 201.5,856.5 201.5,855.5 201.5,854.5 Z"/></g>
<g><path style="opacity:0.657" fill="#000000" d="M 649.5,859.5 C 650.5,859.5 651.5,859.5 652.5,859.5C 652.5,860.5 652.5,861.5 652.5,862.5C 651.5,862.5 650.5,862.5 649.5,862.5C 650.158,866.677 648.492,868.177 644.5,867C 643.24,865.186 643.24,863.353 644.5,861.5C 646.042,860.253 647.542,860.253 649,861.5C 649.464,860.906 649.631,860.239 649.5,859.5 Z"/></g>
<g><path style="opacity:0.652" fill="#000000" d="M 630.5,862.5 C 631.833,862.5 633.167,862.5 634.5,862.5C 634.5,863.833 634.5,865.167 634.5,866.5C 633.448,866.351 632.448,866.517 631.5,867C 632.833,868.333 632.833,869.667 631.5,871C 629.866,871.494 628.199,871.66 626.5,871.5C 626.5,869.833 626.5,868.167 626.5,866.5C 627.873,866.657 629.207,866.49 630.5,866C 629.316,864.855 629.316,863.688 630.5,862.5 Z"/></g>
<g><path style="opacity:0.646" fill="#000000" d="M 418.5,872.5 C 419.833,872.5 421.167,872.5 422.5,872.5C 422.756,874.912 421.756,876.579 419.5,877.5C 418.548,875.955 418.215,874.288 418.5,872.5 Z"/></g>
<g><path style="opacity:0.667" fill="#000000" d="M 589.5,877.5 C 593.5,876.833 595.167,878.5 594.5,882.5C 589.58,883.585 587.913,881.918 589.5,877.5 Z"/></g>
<g><path style="opacity:0.571" fill="#000000" d="M 561.5,882.5 C 564.95,881.756 566.616,883.09 566.5,886.5C 564.833,886.5 563.167,886.5 561.5,886.5C 561.5,885.167 561.5,883.833 561.5,882.5 Z"/></g>
<g><path style="opacity:0.432" fill="#000000" d="M 460.5,884.5 C 461.978,884.238 463.311,884.571 464.5,885.5C 463.68,887.111 462.346,887.778 460.5,887.5C 460.5,886.5 460.5,885.5 460.5,884.5 Z"/></g>
<g><path style="opacity:0.549" fill="#000000" d="M 640.5,888.5 C 641.5,888.5 642.5,888.5 643.5,888.5C 643.836,893.392 642.503,894.225 639.5,891C 639.743,890.098 640.077,889.265 640.5,888.5 Z"/></g>
<g><path style="opacity:0.694" fill="#000000" d="M 440.5,889.5 C 446.016,889.473 447.349,891.64 444.5,896C 438.738,896.418 437.404,894.251 440.5,889.5 Z"/></g>
<g><path style="opacity:0.737" fill="#000000" d="M 633.5,895.5 C 638.541,895.353 640.207,897.519 638.5,902C 633.262,902.594 631.595,900.427 633.5,895.5 Z"/></g>
<g><path style="opacity:0.748" fill="#000000" d="M 667.5,898.5 C 671.976,898.8 673.31,900.967 671.5,905C 665.339,905.878 664.006,903.711 667.5,898.5 Z"/></g>
<g><path style="opacity:0.479" fill="#000000" d="M 412.5,901.5 C 415.674,901.952 416.007,902.952 413.5,904.5C 412.614,903.675 412.281,902.675 412.5,901.5 Z"/></g>
<g><path style="opacity:0.598" fill="#000000" d="M 652.5,905.5 C 655.199,905.466 657.699,906.133 660,907.5C 660.138,909.432 659.638,911.266 658.5,913C 657.216,913.684 656.049,913.517 655,912.5C 653.587,910.348 652.754,908.014 652.5,905.5 Z"/></g>
<g><path style="opacity:0.578" fill="#000000" d="M 342.5,912.5 C 346.474,914.581 346.141,915.914 341.5,916.5C 341.433,915.041 341.766,913.708 342.5,912.5 Z"/></g>
<g><path style="opacity:0.531" fill="#000000" d="M 307.5,916.5 C 309.429,916.231 311.095,916.731 312.5,918C 311.383,919.892 309.716,920.725 307.5,920.5C 307.5,919.167 307.5,917.833 307.5,916.5 Z"/></g>
<g><path style="opacity:0.71" fill="#000000" d="M 616.5,917.5 C 617.901,917.971 619.234,918.638 620.5,919.5C 620.262,922.119 620.595,924.785 621.5,927.5C 615.22,926.265 613.554,922.932 616.5,917.5 Z"/></g>
<g><path style="opacity:0.657" fill="#000000" d="M 288.5,927.5 C 289.873,927.343 291.207,927.51 292.5,928C 293.474,930.702 292.474,932.035 289.5,932C 288.62,930.644 288.286,929.144 288.5,927.5 Z"/></g>
<g><path style="opacity:0.651" fill="#000000" d="M 294.5,931.5 C 298.068,931.759 299.401,933.759 298.5,937.5C 293.003,937.811 291.669,935.811 294.5,931.5 Z"/></g>
<g><path style="opacity:0.629" fill="#000000" d="M 634.5,933.5 C 638.029,932.889 639.862,934.223 640,937.5C 635.579,939.224 633.745,937.89 634.5,933.5 Z"/></g>
<g><path style="opacity:0.587" fill="#000000" d="M 749.5,944.5 C 751.167,944.5 752.833,944.5 754.5,944.5C 755.671,948.344 756.338,952.01 756.5,955.5C 755.325,955.719 754.325,955.386 753.5,954.5C 753.091,952.009 751.924,950.009 750,948.5C 749.51,947.207 749.343,945.873 749.5,944.5 Z"/></g>
<g><path style="opacity:0.76" fill="#000000" d="M 683.5,951.5 C 689.488,951.664 690.821,954.164 687.5,959C 681.392,959.078 680.059,956.578 683.5,951.5 Z"/></g>
<g><path style="opacity:0.649" fill="#000000" d="M 350.5,955.5 C 354.473,956.075 355.473,958.242 353.5,962C 352.216,962.684 351.049,962.517 350,961.5C 349.322,959.402 349.489,957.402 350.5,955.5 Z"/></g>
<g><path style="opacity:0.473" fill="#000000" d="M 282.5,961.5 C 283.5,961.5 284.5,961.5 285.5,961.5C 285.5,962.833 285.5,964.167 285.5,965.5C 282.046,965.733 281.046,964.4 282.5,961.5 Z"/></g>
<g><path style="opacity:0.473" fill="#000000" d="M 140.5,964.5 C 142.048,964.821 142.715,965.821 142.5,967.5C 139.752,967.598 139.086,966.598 140.5,964.5 Z"/></g>
<g><path style="opacity:0.533" fill="#000000" d="M 746.5,967.5 C 747.5,967.5 748.5,967.5 749.5,967.5C 749.5,968.5 749.5,969.5 749.5,970.5C 748.5,970.5 747.5,970.5 746.5,970.5C 746.5,969.5 746.5,968.5 746.5,967.5 Z"/></g>
<g><path style="opacity:0.564" fill="#000000" d="M 663.5,968.5 C 664.833,968.5 666.167,968.5 667.5,968.5C 667.5,969.833 667.5,971.167 667.5,972.5C 666.167,972.5 664.833,972.5 663.5,972.5C 663.5,971.167 663.5,969.833 663.5,968.5 Z"/></g>
<g><path style="opacity:0.463" fill="#000000" d="M 765.5,970.5 C 768.674,970.952 769.007,971.952 766.5,973.5C 765.614,972.675 765.281,971.675 765.5,970.5 Z"/></g>
<g><path style="opacity:0.552" fill="#000000" d="M 612.5,972.5 C 613.873,972.343 615.207,972.51 616.5,973C 617.674,975.829 616.674,976.829 613.5,976C 612.663,974.989 612.33,973.822 612.5,972.5 Z"/></g>
<g><path style="opacity:0.695" fill="#000000" d="M 783.5,972.5 C 788.328,972.385 789.661,974.552 787.5,979C 782.177,979.18 780.843,977.014 783.5,972.5 Z"/></g>
<g><path style="opacity:0.816" fill="#000000" d="M 623.5,978.5 C 630.467,978.448 634.133,981.782 634.5,988.5C 629.489,988.666 624.489,988.499 619.5,988C 617.359,983.233 618.692,980.067 623.5,978.5 Z"/></g>
<g><path style="opacity:0.766" fill="#000000" d="M 726.5,988.5 C 729.883,988.257 733.049,988.924 736,990.5C 740.081,988.732 742.248,990.065 742.5,994.5C 740.181,993.833 737.847,993.666 735.5,994C 734.663,995.011 734.33,996.178 734.5,997.5C 726.243,999.574 723.576,996.574 726.5,988.5 Z"/></g>
<g><path style="opacity:0.445" fill="#000000" d="M 299.5,997.5 C 301.104,998.287 301.771,999.62 301.5,1001.5C 297.437,1001.38 296.77,1000.05 299.5,997.5 Z"/></g>
<g><path style="opacity:0.67" fill="#000000" d="M 705.5,1000.5 C 709.713,1000.7 711.046,1002.7 709.5,1006.5C 706.196,1008.36 704.196,1007.52 703.5,1004C 703.862,1002.57 704.528,1001.4 705.5,1000.5 Z"/></g>
<g><path style="opacity:0.635" fill="#000000" d="M 540.5,1006.5 C 542.104,1007.29 542.771,1008.62 542.5,1010.5C 541.5,1010.5 540.5,1010.5 539.5,1010.5C 539.433,1009.04 539.766,1007.71 540.5,1006.5 Z"/></g>
<g><path style="opacity:0.428" fill="#000000" d="M 348.5,1010.5 C 349.833,1010.5 351.167,1010.5 352.5,1010.5C 352.5,1011.5 352.5,1012.5 352.5,1013.5C 351.167,1013.5 349.833,1013.5 348.5,1013.5C 348.5,1012.5 348.5,1011.5 348.5,1010.5 Z"/></g>
<g><path style="opacity:0.697" fill="#000000" d="M 719.5,1012.5 C 724.593,1014.59 724.76,1016.92 720,1019.5C 718.893,1019.41 717.893,1019.08 717,1018.5C 716.506,1016.87 716.34,1015.2 716.5,1013.5C 717.791,1013.74 718.791,1013.4 719.5,1012.5 Z"/></g>
<g><path style="opacity:0.608" fill="#000000" d="M 99.5,1019.5 C 100.833,1019.5 102.167,1019.5 103.5,1019.5C 102.495,1024.54 101.162,1024.54 99.5,1019.5 Z"/></g>
<g><path style="opacity:0.443" fill="#000000" d="M 126.5,1022.5 C 127.5,1022.5 128.5,1022.5 129.5,1022.5C 129.5,1023.5 129.5,1024.5 129.5,1025.5C 126.433,1025.88 125.433,1024.88 126.5,1022.5 Z"/></g>
<g><path style="opacity:0.57" fill="#000000" d="M 146.5,1025.5 C 148.59,1025.45 149.923,1026.45 150.5,1028.5C 149.68,1030.11 148.346,1030.78 146.5,1030.5C 146.5,1028.83 146.5,1027.17 146.5,1025.5 Z"/></g>
<g><path style="opacity:0.624" fill="#000000" d="M 174.5,1029.5 C 177.423,1030.16 178.09,1031.83 176.5,1034.5C 175.264,1035.25 173.93,1035.58 172.5,1035.5C 172.259,1033.11 172.925,1031.11 174.5,1029.5 Z"/></g>
<g><path style="opacity:0.437" fill="#000000" d="M 740.5,1034.5 C 742.048,1034.82 742.715,1035.82 742.5,1037.5C 739.752,1037.6 739.086,1036.6 740.5,1034.5 Z"/></g>
<g><path style="opacity:0.604" fill="#000000" d="M 774.5,1037.5 C 776.167,1037.5 777.833,1037.5 779.5,1037.5C 779.5,1038.83 779.5,1040.17 779.5,1041.5C 776.05,1042.24 774.384,1040.91 774.5,1037.5 Z"/></g>
<g><path style="opacity:0.715" fill="#000000" d="M 700.5,1041.5 C 703.045,1041.15 705.045,1041.98 706.5,1044C 705.045,1046.02 703.045,1046.85 700.5,1046.5C 700.5,1044.83 700.5,1043.17 700.5,1041.5 Z"/></g>
<g><path style="opacity:0.615" fill="#000000" d="M 721.5,1046.5 C 722.833,1046.5 724.167,1046.5 725.5,1046.5C 725.5,1047.83 725.5,1049.17 725.5,1050.5C 724.167,1050.5 722.833,1050.5 721.5,1050.5C 721.5,1049.17 721.5,1047.83 721.5,1046.5 Z"/></g>
<g><path style="opacity:0.584" fill="#000000" d="M 778.5,1050.5 C 779.833,1050.5 781.167,1050.5 782.5,1050.5C 782.114,1054.74 780.448,1055.4 777.5,1052.5C 777.863,1051.82 778.196,1051.15 778.5,1050.5 Z"/></g>
<g><path style="opacity:0.634" fill="#000000" d="M 141.5,1053.5 C 143.435,1054.15 145.435,1054.48 147.5,1054.5C 147.5,1055.83 147.5,1057.17 147.5,1058.5C 145.409,1058.68 143.409,1058.35 141.5,1057.5C 140.374,1056.19 140.374,1054.86 141.5,1053.5 Z"/></g>
<g><path style="opacity:0.415" fill="#000000" d="M 279.5,1058.5 C 282.548,1058.49 283.048,1059.49 281,1061.5C 279.961,1060.76 279.461,1059.76 279.5,1058.5 Z"/></g>
<g><path style="opacity:0.694" fill="#000000" d="M 799.5,1060.5 C 803.717,1060.21 805.883,1062.21 806,1066.5C 808.687,1068.27 808.853,1070.44 806.5,1073C 805.167,1073.67 803.833,1073.67 802.5,1073C 803.419,1069.69 802.085,1067.53 798.5,1066.5C 797.538,1064.37 797.872,1062.37 799.5,1060.5 Z"/></g>
<g><path style="opacity:0.735" fill="#000000" d="M 228.5,1073.5 C 229.873,1073.34 231.207,1073.51 232.5,1074C 233.304,1075.77 234.471,1077.27 236,1078.5C 237.106,1082.9 235.606,1084.23 231.5,1082.5C 230.135,1081.06 228.635,1079.73 227,1078.5C 226.387,1076.5 226.887,1074.84 228.5,1073.5 Z"/></g>
<g><path style="opacity:0.458" fill="#000000" d="M 580.5,1083.5 C 583.548,1083.49 584.048,1084.49 582,1086.5C 580.961,1085.76 580.461,1084.76 580.5,1083.5 Z"/></g>
<g><path style="opacity:0.518" fill="#000000" d="M 556.5,1085.5 C 557.5,1085.5 558.5,1085.5 559.5,1085.5C 559.778,1087.35 559.111,1088.68 557.5,1089.5C 556.571,1088.31 556.238,1086.98 556.5,1085.5 Z"/></g>
<g><path style="opacity:0.554" fill="#000000" d="M 234.5,1088.5 C 235.833,1088.5 237.167,1088.5 238.5,1088.5C 238.99,1090.95 238.157,1092.62 236,1093.5C 233.389,1092.5 232.889,1090.83 234.5,1088.5 Z"/></g>
<g><path style="opacity:0.568" fill="#000000" d="M 398.5,1092.5 C 400.359,1092.46 401.692,1093.29 402.5,1095C 401.383,1096.89 399.716,1097.73 397.5,1097.5C 397.366,1095.71 397.699,1094.04 398.5,1092.5 Z"/></g>
<g><path style="opacity:0.535" fill="#000000" d="M 546.5,1096.5 C 550.161,1096.35 551.161,1097.85 549.5,1101C 545.16,1101.21 544.16,1099.71 546.5,1096.5 Z"/></g>
<g><path style="opacity:0.619" fill="#000000" d="M 559.5,1100.5 C 563.485,1100.63 564.818,1102.46 563.5,1106C 561.866,1106.49 560.199,1106.66 558.5,1106.5C 558.325,1104.38 558.659,1102.38 559.5,1100.5 Z"/></g>
<g><path style="opacity:0.732" fill="#000000" d="M 175.5,1106.5 C 178.524,1108.24 181.857,1109.58 185.5,1110.5C 186.666,1115.66 184.666,1117.33 179.5,1115.5C 177.197,1112.88 175.864,1109.88 175.5,1106.5 Z"/></g>
<g><path style="opacity:0.7" fill="#000000" d="M 484.5,1116.5 C 489.159,1116.01 490.492,1117.85 488.5,1122C 483.728,1122.81 482.395,1120.98 484.5,1116.5 Z"/></g>
<g><path style="opacity:0.669" fill="#000000" d="M 553.5,1121.5 C 558.826,1123.85 558.826,1126.18 553.5,1128.5C 549.737,1126.3 549.737,1123.97 553.5,1121.5 Z"/></g>
<g><path style="opacity:0.722" fill="#000000" d="M 388.5,1128.5 C 390.167,1128.5 391.833,1128.5 393.5,1128.5C 393.938,1132.91 391.938,1134.57 387.5,1133.5C 387.366,1131.71 387.699,1130.04 388.5,1128.5 Z"/></g>
<g><path style="opacity:0.384" fill="#000000" d="M 126.5,1133.5 C 128.346,1133.22 129.68,1133.89 130.5,1135.5C 129.311,1136.43 127.978,1136.76 126.5,1136.5C 126.5,1135.5 126.5,1134.5 126.5,1133.5 Z"/></g>
<g><path style="opacity:0.613" fill="#000000" d="M 92.5,1136.5 C 96.6759,1135.83 98.0093,1137.33 96.5,1141C 95.2068,1141.49 93.8734,1141.66 92.5,1141.5C 92.5,1139.83 92.5,1138.17 92.5,1136.5 Z"/></g>
<g><path style="opacity:0.366" fill="#000000" d="M 125.5,1140.5 C 126.5,1140.5 127.5,1140.5 128.5,1140.5C 128.5,1141.5 128.5,1142.5 128.5,1143.5C 127.5,1143.5 126.5,1143.5 125.5,1143.5C 125.5,1142.5 125.5,1141.5 125.5,1140.5 Z"/></g>
<g><path style="opacity:0.71" fill="#000000" d="M 571.5,1143.5 C 576.123,1142.41 577.956,1144.07 577,1148.5C 572.325,1150.33 570.492,1148.67 571.5,1143.5 Z"/></g>
<g><path style="opacity:0.577" fill="#000000" d="M 578.5,1149.5 C 579.833,1149.5 581.167,1149.5 582.5,1149.5C 582.5,1150.83 582.5,1152.17 582.5,1153.5C 579.5,1153.83 578.167,1152.5 578.5,1149.5 Z"/></g>
<g><path style="opacity:0.626" fill="#000000" d="M 439.5,1152.5 C 443.013,1153.03 444.013,1154.86 442.5,1158C 439.763,1159.08 438.096,1158.25 437.5,1155.5C 437.942,1154.26 438.609,1153.26 439.5,1152.5 Z"/></g>
<g><path style="opacity:0.711" fill="#000000" d="M 564.5,1158.5 C 566.167,1158.5 567.833,1158.5 569.5,1158.5C 570.21,1161.89 569.044,1164.22 566,1165.5C 564.268,1165.27 563.434,1164.27 563.5,1162.5C 563.846,1161.15 564.179,1159.82 564.5,1158.5 Z"/></g>
<g><path style="opacity:0.478" fill="#000000" d="M 498.5,1165.5 C 500.199,1165.34 501.866,1165.51 503.5,1166C 501.415,1168.14 499.749,1167.97 498.5,1165.5 Z"/></g>
<g><path style="opacity:0.728" fill="#000000" d="M 417.5,1167.5 C 418.5,1167.5 419.5,1167.5 420.5,1167.5C 420.344,1170.07 420.678,1172.57 421.5,1175C 420.313,1177.59 418.48,1178.09 416,1176.5C 415.068,1173.18 415.568,1170.18 417.5,1167.5 Z"/></g>
<g><path style="opacity:0.614" fill="#000000" d="M 252.5,1177.5 C 253.833,1177.5 255.167,1177.5 256.5,1177.5C 256.5,1179.17 256.5,1180.83 256.5,1182.5C 252.464,1182.72 251.13,1181.05 252.5,1177.5 Z"/></g>
<g><path style="opacity:0.563" fill="#000000" d="M 493.5,1181.5 C 495.912,1181.69 496.912,1183.03 496.5,1185.5C 495.167,1185.5 493.833,1185.5 492.5,1185.5C 492.433,1184.04 492.766,1182.71 493.5,1181.5 Z"/></g>
<g><path style="opacity:0.658" fill="#000000" d="M 286.5,1185.5 C 287.833,1185.5 289.167,1185.5 290.5,1185.5C 290.725,1187.72 289.892,1189.38 288,1190.5C 286.731,1189.1 286.231,1187.43 286.5,1185.5 Z"/></g>
<g><path style="opacity:0.441" fill="#000000" d="M 306.5,1189.5 C 307.5,1189.5 308.5,1189.5 309.5,1189.5C 309.5,1190.5 309.5,1191.5 309.5,1192.5C 308.5,1192.5 307.5,1192.5 306.5,1192.5C 306.5,1191.5 306.5,1190.5 306.5,1189.5 Z"/></g>
<g><path style="opacity:0.512" fill="#000000" d="M 418.5,1192.5 C 419.675,1192.28 420.675,1192.61 421.5,1193.5C 419.948,1194.8 418.948,1194.46 418.5,1192.5 Z"/></g>
<g><path style="opacity:0.447" fill="#000000" d="M 314.5,1194.5 C 315.5,1194.5 316.5,1194.5 317.5,1194.5C 317.5,1195.5 317.5,1196.5 317.5,1197.5C 316.5,1197.5 315.5,1197.5 314.5,1197.5C 314.5,1196.5 314.5,1195.5 314.5,1194.5 Z"/></g>
<g><path style="opacity:0.797" fill="#000000" d="M 244.5,1196.5 C 248.089,1196.62 249.756,1198.45 249.5,1202C 249.409,1208.11 246.576,1210.28 241,1208.5C 240.333,1205.17 240.333,1201.83 241,1198.5C 242.302,1197.92 243.469,1197.25 244.5,1196.5 Z"/></g>
<g><path style="opacity:0.715" fill="#000000" d="M 663.5,1196.5 C 665.167,1196.5 666.833,1196.5 668.5,1196.5C 668.5,1198.17 668.5,1199.83 668.5,1201.5C 666.5,1201.5 664.5,1201.5 662.5,1201.5C 662.366,1199.71 662.699,1198.04 663.5,1196.5 Z"/></g>
<g><path style="opacity:0.483" fill="#000000" d="M 675.5,1201.5 C 676.833,1201.5 678.167,1201.5 679.5,1201.5C 679.778,1203.35 679.111,1204.68 677.5,1205.5C 675.889,1204.68 675.222,1203.35 675.5,1201.5 Z"/></g>
<g><path style="opacity:0.645" fill="#000000" d="M 648.5,1204.5 C 651.833,1203.83 653.833,1205.17 654.5,1208.5C 653.194,1209.91 652.36,1211.58 652,1213.5C 650.989,1214.34 649.822,1214.67 648.5,1214.5C 648.016,1211.05 648.016,1207.72 648.5,1204.5 Z"/></g>
<g><path style="opacity:0.608" fill="#000000" d="M 504.5,1213.5 C 507.91,1213.38 509.244,1215.05 508.5,1218.5C 506.833,1218.5 505.167,1218.5 503.5,1218.5C 503.366,1216.71 503.699,1215.04 504.5,1213.5 Z"/></g>
<g><path style="opacity:0.612" fill="#000000" d="M 660.5,1214.5 C 666.374,1215.59 666.874,1217.93 662,1221.5C 659.354,1219.63 658.854,1217.3 660.5,1214.5 Z"/></g>
<g><path style="opacity:0.356" fill="#000000" d="M 301.5,1218.5 C 302.5,1218.5 303.5,1218.5 304.5,1218.5C 303.754,1222.31 302.754,1222.31 301.5,1218.5 Z"/></g>
<g><path style="opacity:0.553" fill="#000000" d="M 447.5,1220.5 C 450.5,1220.17 451.833,1221.5 451.5,1224.5C 449.833,1224.5 448.167,1224.5 446.5,1224.5C 446.433,1223.04 446.766,1221.71 447.5,1220.5 Z"/></g>
<g><path style="opacity:0.692" fill="#000000" d="M 276.5,1224.5 C 281.214,1224.2 282.88,1226.2 281.5,1230.5C 278.682,1231.88 276.015,1231.71 273.5,1230C 275.16,1228.51 276.16,1226.68 276.5,1224.5 Z"/></g>
<g><path style="opacity:0.398" fill="#000000" d="M 635.5,1229.5 C 639.31,1230.75 639.31,1231.75 635.5,1232.5C 635.5,1231.5 635.5,1230.5 635.5,1229.5 Z"/></g>
<g><path style="opacity:0.485" fill="#000000" d="M 365.5,1231.5 C 366.5,1231.5 367.5,1231.5 368.5,1231.5C 368.5,1232.5 368.5,1233.5 368.5,1234.5C 367.5,1234.5 366.5,1234.5 365.5,1234.5C 365.5,1233.5 365.5,1232.5 365.5,1231.5 Z"/></g>
<g><path style="opacity:0.695" fill="#000000" d="M 668.5,1231.5 C 673.039,1232.39 674.039,1234.56 671.5,1238C 668.433,1239.16 666.767,1238.16 666.5,1235C 666.862,1233.57 667.528,1232.4 668.5,1231.5 Z"/></g>
<g><path style="opacity:0.474" fill="#000000" d="M 497.5,1233.5 C 498.5,1233.5 499.5,1233.5 500.5,1233.5C 500.5,1234.83 500.5,1236.17 500.5,1237.5C 499.5,1237.5 498.5,1237.5 497.5,1237.5C 497.5,1236.17 497.5,1234.83 497.5,1233.5 Z"/></g>
<g><path style="opacity:0.549" fill="#000000" d="M 401.5,1236.5 C 406.38,1237.43 406.38,1239.1 401.5,1241.5C 400.334,1239.83 400.334,1238.17 401.5,1236.5 Z"/></g>
<g><path style="opacity:0.556" fill="#000000" d="M 386.5,1240.5 C 391.992,1242.72 391.658,1244.05 385.5,1244.5C 385.433,1243.04 385.766,1241.71 386.5,1240.5 Z"/></g>
<g><path style="opacity:0.692" fill="#000000" d="M 672.5,1243.5 C 673.833,1243.5 675.167,1243.5 676.5,1243.5C 676.5,1244.83 676.5,1246.17 676.5,1247.5C 675.167,1247.5 673.833,1247.5 672.5,1247.5C 672.5,1246.17 672.5,1244.83 672.5,1243.5 Z"/></g>
<g><path style="opacity:0.43" fill="#000000" d="M 298.5,1244.5 C 299.833,1244.5 301.167,1244.5 302.5,1244.5C 302.5,1245.5 302.5,1246.5 302.5,1247.5C 301.167,1247.5 299.833,1247.5 298.5,1247.5C 298.5,1246.5 298.5,1245.5 298.5,1244.5 Z"/></g>
<g><path style="opacity:0.718" fill="#000000" d="M 608.5,1247.5 C 610.167,1247.5 611.833,1247.5 613.5,1247.5C 614.167,1251.5 612.5,1253.17 608.5,1252.5C 608.5,1250.83 608.5,1249.17 608.5,1247.5 Z"/></g>
<g><path style="opacity:0.551" fill="#000000" d="M 256.5,1252.5 C 257.833,1252.5 259.167,1252.5 260.5,1252.5C 260.778,1254.35 260.111,1255.68 258.5,1256.5C 256.889,1255.68 256.222,1254.35 256.5,1252.5 Z"/></g>
<g><path style="opacity:0.706" fill="#000000" d="M 368.5,1255.5 C 369.822,1255.33 370.989,1255.66 372,1256.5C 375.647,1262.5 373.98,1264.5 367,1262.5C 366.167,1259.83 366.667,1257.5 368.5,1255.5 Z"/></g>
<g><path style="opacity:0.505" fill="#000000" d="M 496.5,1263.5 C 497.5,1263.5 498.5,1263.5 499.5,1263.5C 499.5,1264.5 499.5,1265.5 499.5,1266.5C 498.5,1266.5 497.5,1266.5 496.5,1266.5C 496.5,1265.5 496.5,1264.5 496.5,1263.5 Z"/></g>
<g><path style="opacity:0.633" fill="#000000" d="M 316.5,1265.5 C 321.153,1266.57 321.819,1268.91 318.5,1272.5C 315.766,1270.64 315.099,1268.31 316.5,1265.5 Z"/></g>
<g><path style="opacity:0.715" fill="#000000" d="M 620.5,1265.5 C 622.467,1265.26 624.301,1265.59 626,1266.5C 625.198,1269.51 625.365,1272.51 626.5,1275.5C 625.127,1275.66 623.793,1275.49 622.5,1275C 621.696,1273.23 620.529,1271.73 619,1270.5C 618.878,1268.72 619.378,1267.05 620.5,1265.5 Z"/></g>
<g><path style="opacity:0.504" fill="#000000" d="M 483.5,1271.5 C 485.104,1272.29 485.771,1273.62 485.5,1275.5C 484.5,1275.5 483.5,1275.5 482.5,1275.5C 482.433,1274.04 482.766,1272.71 483.5,1271.5 Z"/></g>
<g><path style="opacity:0.487" fill="#000000" d="M 495.5,1274.5 C 499.161,1274.35 500.161,1275.85 498.5,1279C 496.633,1279.71 495.133,1279.21 494,1277.5C 493.761,1276.21 494.261,1275.21 495.5,1274.5 Z"/></g>
<g><path style="opacity:0.73" fill="#000000" d="M 642.5,1275.5 C 645.588,1275.64 648.255,1276.64 650.5,1278.5C 650.498,1282.54 649.165,1283.21 646.5,1280.5C 645.548,1282.05 645.215,1283.71 645.5,1285.5C 640.123,1285.94 637.623,1283.6 638,1278.5C 639.878,1277.95 641.378,1276.95 642.5,1275.5 Z"/></g>
<g><path style="opacity:0.522" fill="#000000" d="M 255.5,1281.5 C 258.694,1281.18 259.694,1282.34 258.5,1285C 257.207,1285.49 255.873,1285.66 254.5,1285.5C 254.433,1284.04 254.766,1282.71 255.5,1281.5 Z"/></g>
<g><path style="opacity:0.561" fill="#000000" d="M 480.5,1285.5 C 481.833,1285.5 483.167,1285.5 484.5,1285.5C 484.5,1286.5 484.5,1287.5 484.5,1288.5C 483.167,1288.5 481.833,1288.5 480.5,1288.5C 480.5,1287.5 480.5,1286.5 480.5,1285.5 Z"/></g>
<g><path style="opacity:0.608" fill="#000000" d="M 611.5,1288.5 C 614.166,1288.07 615.333,1289.07 615,1291.5C 611.403,1293.07 610.237,1292.07 611.5,1288.5 Z"/></g>
<g><path style="opacity:0.65" fill="#000000" d="M 650.5,1289.5 C 652.591,1289.32 654.591,1289.65 656.5,1290.5C 657.583,1291.36 657.749,1292.36 657,1293.5C 653.857,1295.17 651.357,1294.51 649.5,1291.5C 649.863,1290.82 650.196,1290.15 650.5,1289.5 Z"/></g>
<g><path style="opacity:0.432" fill="#000000" d="M 487.5,1292.5 C 488.833,1292.5 490.167,1292.5 491.5,1292.5C 491.5,1293.5 491.5,1294.5 491.5,1295.5C 490.167,1295.5 488.833,1295.5 487.5,1295.5C 487.5,1294.5 487.5,1293.5 487.5,1292.5 Z"/></g>
<g><path style="opacity:0.722" fill="#000000" d="M 429.5,1295.5 C 431.167,1295.5 432.833,1295.5 434.5,1295.5C 434.5,1296.5 434.5,1297.5 434.5,1298.5C 439.131,1299.12 440.631,1301.46 439,1305.5C 434.522,1307.59 432.022,1306.26 431.5,1301.5C 430.167,1301.5 428.833,1301.5 427.5,1301.5C 427.253,1299.14 427.919,1297.14 429.5,1295.5 Z"/></g>
<g><path style="opacity:0.561" fill="#000000" d="M 671.5,1298.5 C 672.833,1298.5 674.167,1298.5 675.5,1298.5C 675.99,1300.95 675.157,1302.62 673,1303.5C 670.389,1302.5 669.889,1300.83 671.5,1298.5 Z"/></g>
<g><path style="opacity:0.54" fill="#000000" d="M 656.5,1300.5 C 657.833,1300.5 659.167,1300.5 660.5,1300.5C 660.778,1302.35 660.111,1303.68 658.5,1304.5C 656.889,1303.68 656.222,1302.35 656.5,1300.5 Z"/></g>
<g><path style="opacity:0.616" fill="#000000" d="M 531.5,1306.5 C 532.873,1306.34 534.207,1306.51 535.5,1307C 536.474,1309.7 535.474,1311.04 532.5,1311C 530.452,1309.77 530.119,1308.27 531.5,1306.5 Z"/></g>
<g><path style="opacity:0.443" fill="#000000" d="M 666.5,1308.5 C 667.833,1308.5 669.167,1308.5 670.5,1308.5C 670.5,1309.5 670.5,1310.5 670.5,1311.5C 668.027,1311.91 666.694,1310.91 666.5,1308.5 Z"/></g>
<g><path style="opacity:0.611" fill="#000000" d="M 602.5,1310.5 C 607.159,1310.01 608.492,1311.85 606.5,1316C 601.728,1316.81 600.395,1314.98 602.5,1310.5 Z"/></g>
<g><path style="opacity:0.448" fill="#000000" d="M 624.5,1314.5 C 626.346,1314.22 627.68,1314.89 628.5,1316.5C 627.68,1318.11 626.346,1318.78 624.5,1318.5C 624.5,1317.17 624.5,1315.83 624.5,1314.5 Z"/></g>
<g><path style="opacity:0.71" fill="#000000" d="M 524.5,1316.5 C 528.724,1316.05 530.391,1317.72 529.5,1321.5C 524.134,1323.47 522.468,1321.8 524.5,1316.5 Z"/></g>
<g><path style="opacity:0.657" fill="#000000" d="M 633.5,1317.5 C 637.5,1316.83 639.167,1318.5 638.5,1322.5C 633.58,1323.58 631.913,1321.92 633.5,1317.5 Z"/></g>
<g><path style="opacity:0.423" fill="#000000" d="M 384.5,1322.5 C 385.833,1322.5 387.167,1322.5 388.5,1322.5C 388.5,1323.5 388.5,1324.5 388.5,1325.5C 387.167,1325.5 385.833,1325.5 384.5,1325.5C 384.5,1324.5 384.5,1323.5 384.5,1322.5 Z"/></g>
<g><path style="opacity:0.411" fill="#000000" d="M 655.5,1322.5 C 660.833,1323.5 660.833,1324.5 655.5,1325.5C 655.5,1324.5 655.5,1323.5 655.5,1322.5 Z"/></g>
<g><path style="opacity:0.607" fill="#000000" d="M 284.5,1324.5 C 286.196,1324.69 287.529,1325.52 288.5,1327C 287.383,1328.89 285.716,1329.73 283.5,1329.5C 283.366,1327.71 283.699,1326.04 284.5,1324.5 Z"/></g>
<g><path style="opacity:0.506" fill="#000000" d="M 313.5,1329.5 C 314.978,1329.24 316.311,1329.57 317.5,1330.5C 316.68,1332.11 315.346,1332.78 313.5,1332.5C 313.5,1331.5 313.5,1330.5 313.5,1329.5 Z"/></g>
<g><path style="opacity:0.61" fill="#000000" d="M 345.5,1332.5 C 347.5,1332.5 349.5,1332.5 351.5,1332.5C 351.67,1333.82 351.337,1334.99 350.5,1336C 348.527,1336.5 346.527,1336.66 344.5,1336.5C 344.433,1335.04 344.766,1333.71 345.5,1332.5 Z"/></g>
<g><path style="opacity:0.619" fill="#000000" d="M 422.5,1336.5 C 423.5,1336.5 424.5,1336.5 425.5,1336.5C 425.5,1337.5 425.5,1338.5 425.5,1339.5C 422.506,1339.85 421.506,1338.85 422.5,1336.5 Z"/></g>
<g><path style="opacity:0.468" fill="#000000" d="M 305.5,1339.5 C 306.833,1339.5 308.167,1339.5 309.5,1339.5C 309.5,1340.5 309.5,1341.5 309.5,1342.5C 308.167,1342.5 306.833,1342.5 305.5,1342.5C 305.5,1341.5 305.5,1340.5 305.5,1339.5 Z"/></g>
<g><path style="opacity:0.425" fill="#000000" d="M 486.5,1342.5 C 487.833,1342.5 489.167,1342.5 490.5,1342.5C 490.5,1343.5 490.5,1344.5 490.5,1345.5C 489.167,1345.5 487.833,1345.5 486.5,1345.5C 486.5,1344.5 486.5,1343.5 486.5,1342.5 Z"/></g>
<g><path style="opacity:0.695" fill="#000000" d="M 407.5,1345.5 C 410.747,1345.42 413.581,1346.42 416,1348.5C 415.778,1350.46 414.945,1352.29 413.5,1354C 412.216,1354.68 411.049,1354.52 410,1353.5C 409.464,1351.13 408.297,1349.13 406.5,1347.5C 406.863,1346.82 407.196,1346.15 407.5,1345.5 Z"/></g>
<g><path style="opacity:0.65" fill="#000000" d="M 309.5,1354.5 C 310.873,1354.34 312.207,1354.51 313.5,1355C 314.308,1357.09 315.308,1359.09 316.5,1361C 311.295,1362.15 308.962,1359.99 309.5,1354.5 Z"/></g>
<g><path style="opacity:0.724" fill="#000000" d="M 263.5,1360.5 C 266.031,1361.03 268.031,1362.36 269.5,1364.5C 270.895,1363.19 271.895,1363.52 272.5,1365.5C 271.289,1366.72 271.289,1367.89 272.5,1369C 269.86,1371.17 268.36,1374 268,1377.5C 264.828,1380.39 262.661,1379.72 261.5,1375.5C 262.439,1373.23 263.772,1371.23 265.5,1369.5C 264.5,1367.5 263.5,1365.5 262.5,1363.5C 262.685,1362.42 263.018,1361.42 263.5,1360.5 Z"/></g>
<g><path style="opacity:0.674" fill="#000000" d="M 359.5,1379.5 C 362.722,1379.11 365.722,1379.61 368.5,1381C 366.257,1384.42 363.257,1385.25 359.5,1383.5C 358.374,1382.19 358.374,1380.86 359.5,1379.5 Z"/></g>
<g><path style="opacity:0.432" fill="#000000" d="M 352.5,1383.5 C 353.5,1383.5 354.5,1383.5 355.5,1383.5C 355.5,1384.5 355.5,1385.5 355.5,1386.5C 354.5,1386.5 353.5,1386.5 352.5,1386.5C 352.5,1385.5 352.5,1384.5 352.5,1383.5 Z"/></g>
<g><path style="opacity:0.665" fill="#000000" d="M 615.5,1386.5 C 617.167,1386.5 618.833,1386.5 620.5,1386.5C 620.191,1389.93 618.358,1392.27 615,1393.5C 613.268,1393.27 612.434,1392.27 612.5,1390.5C 612.787,1388.56 613.787,1387.22 615.5,1386.5 Z"/></g>
<g><path style="opacity:0.707" fill="#000000" d="M 453.5,1392.5 C 457.027,1392.95 460.027,1394.45 462.5,1397C 464,1399.17 463.5,1400.67 461,1401.5C 458.685,1400.13 456.185,1399.13 453.5,1398.5C 450.978,1396.35 450.978,1394.35 453.5,1392.5 Z"/></g>
<g><path style="opacity:0.368" fill="#000000" d="M 501.5,1400.5 C 503.048,1400.82 503.715,1401.82 503.5,1403.5C 500.752,1403.6 500.086,1402.6 501.5,1400.5 Z"/></g>
<g><path style="opacity:0.641" fill="#000000" d="M 381.5,1403.5 C 383.977,1403.05 385.977,1403.72 387.5,1405.5C 385.956,1407.45 383.956,1407.95 381.5,1407C 380.316,1405.85 380.316,1404.69 381.5,1403.5 Z"/></g>
<g><path style="opacity:0.664" fill="#000000" d="M 575.5,1407.5 C 578.669,1407.66 580.669,1409.33 581.5,1412.5C 577.984,1416.78 575.65,1416.11 574.5,1410.5C 574.685,1409.42 575.018,1408.42 575.5,1407.5 Z"/></g>
<g><path style="opacity:0.471" fill="#000000" d="M 515.5,1414.5 C 517.359,1414.46 518.692,1415.29 519.5,1417C 515.834,1419.3 514.501,1418.47 515.5,1414.5 Z"/></g>
<g><path style="opacity:0.63" fill="#000000" d="M 413.5,1418.5 C 414.833,1418.5 416.167,1418.5 417.5,1418.5C 417.5,1419.83 417.5,1421.17 417.5,1422.5C 414.5,1422.83 413.167,1421.5 413.5,1418.5 Z"/></g>
<g><path style="opacity:0.614" fill="#000000" d="M 464.5,1421.5 C 465.833,1421.5 467.167,1421.5 468.5,1421.5C 468.884,1423.66 468.217,1425.33 466.5,1426.5C 464.783,1425.33 464.116,1423.66 464.5,1421.5 Z"/></g>
<g><path style="opacity:0.64" fill="#000000" d="M 391.5,1425.5 C 392.873,1425.34 394.207,1425.51 395.5,1426C 396.505,1427.51 397.838,1428.67 399.5,1429.5C 396.987,1431.41 394.321,1431.74 391.5,1430.5C 390.185,1428.8 390.185,1427.13 391.5,1425.5 Z"/></g>
<g><path style="opacity:0.616" fill="#000000" d="M 353.5,1431.5 C 357.138,1430.74 358.638,1432.07 358,1435.5C 355.507,1436.95 353.673,1436.28 352.5,1433.5C 352.863,1432.82 353.196,1432.15 353.5,1431.5 Z"/></g>
<g><path style="opacity:0.63" fill="#000000" d="M 489.5,1435.5 C 493.908,1435.06 495.575,1437.06 494.5,1441.5C 489.074,1442.42 487.407,1440.42 489.5,1435.5 Z"/></g>
<g><path style="opacity:0.671" fill="#000000" d="M 569.5,1440.5 C 573.184,1441.37 574.184,1443.54 572.5,1447C 569.433,1448.16 567.767,1447.16 567.5,1444C 567.862,1442.57 568.528,1441.4 569.5,1440.5 Z"/></g>
<g><path style="opacity:0.7" fill="#000000" d="M 641.5,1446.5 C 646.026,1447.37 647.026,1449.54 644.5,1453C 641.433,1454.16 639.767,1453.16 639.5,1450C 639.862,1448.57 640.528,1447.4 641.5,1446.5 Z"/></g>
<g><path style="opacity:0.729" fill="#000000" d="M 660.5,1489.5 C 668.061,1490.14 668.061,1491.81 660.5,1494.5C 659.495,1498.06 657.828,1501.23 655.5,1504C 649.673,1505.5 647.506,1503.34 649,1497.5C 652.035,1495.03 655.535,1493.7 659.5,1493.5C 659.433,1492.04 659.766,1490.71 660.5,1489.5 Z"/></g>
<g><path style="opacity:0.441" fill="#000000" d="M 576.5,1503.5 C 578.912,1503.69 579.912,1505.03 579.5,1507.5C 578.5,1507.5 577.5,1507.5 576.5,1507.5C 576.5,1506.17 576.5,1504.83 576.5,1503.5 Z"/></g>
<g><path style="opacity:0.339" fill="#000000" d="M 548.5,1506.5 C 550.048,1506.82 550.715,1507.82 550.5,1509.5C 547.752,1509.6 547.086,1508.6 548.5,1506.5 Z"/></g>
<g><path style="opacity:0.618" fill="#000000" d="M 574.5,1509.5 C 575.833,1509.5 577.167,1509.5 578.5,1509.5C 578.465,1515.02 576.799,1515.69 573.5,1511.5C 573.863,1510.82 574.196,1510.15 574.5,1509.5 Z"/></g>
<g><path style="opacity:0.53" fill="#000000" d="M 506.5,1513.5 C 507.833,1513.5 509.167,1513.5 510.5,1513.5C 510.5,1514.83 510.5,1516.17 510.5,1517.5C 509.167,1517.5 507.833,1517.5 506.5,1517.5C 506.5,1516.17 506.5,1514.83 506.5,1513.5 Z"/></g>
<g><path style="opacity:0.703" fill="#000000" d="M 622.5,1517.5 C 624.199,1517.34 625.866,1517.51 627.5,1518C 628.995,1521.84 627.661,1523.17 623.5,1522C 622.62,1520.64 622.286,1519.14 622.5,1517.5 Z"/></g>
<g><path style="opacity:0.644" fill="#000000" d="M 501.5,1526.5 C 505.909,1525.9 507.242,1527.57 505.5,1531.5C 501.317,1532.31 499.984,1530.64 501.5,1526.5 Z"/></g>
<g><path style="opacity:0.69" fill="#000000" d="M 595.5,1531.5 C 600.159,1531.01 601.492,1532.85 599.5,1537C 594.728,1537.81 593.395,1535.98 595.5,1531.5 Z"/></g>
<g><path style="opacity:0.591" fill="#000000" d="M 548.5,1537.5 C 551.166,1537.07 552.333,1538.07 552,1540.5C 550.817,1541.73 549.651,1541.73 548.5,1540.5C 547.209,1539.47 547.209,1538.47 548.5,1537.5 Z"/></g>
<g><path style="opacity:0.528" fill="#000000" d="M 674.5,1541.5 C 676.167,1541.5 677.833,1541.5 679.5,1541.5C 679.853,1543.63 679.02,1544.97 677,1545.5C 675.405,1544.64 674.572,1543.31 674.5,1541.5 Z"/></g>
<g><path style="opacity:0.751" fill="#000000" d="M 524.5,1554.5 C 525.873,1554.34 527.207,1554.51 528.5,1555C 529.376,1556.58 530.709,1557.58 532.5,1558C 533.517,1559.05 533.684,1560.22 533,1561.5C 530.254,1562.65 527.421,1563.15 524.5,1563C 521.899,1560.17 521.899,1557.34 524.5,1554.5 Z"/></g>
<g><path style="opacity:0.391" fill="#000000" d="M 560.5,1562.5 C 562.176,1563.18 562.843,1564.52 562.5,1566.5C 561.5,1566.5 560.5,1566.5 559.5,1566.5C 559.433,1565.04 559.766,1563.71 560.5,1562.5 Z"/></g>
<g><path style="opacity:0.338" fill="#000000" d="M 699.5,1565.5 C 702.861,1566.2 703.194,1567.54 700.5,1569.5C 698.358,1568.56 698.024,1567.23 699.5,1565.5 Z"/></g>
<g><path style="opacity:0.638" fill="#000000" d="M 618.5,1573.5 C 622.677,1572.84 624.177,1574.51 623,1578.5C 620.442,1581.15 618.608,1580.65 617.5,1577C 617.648,1575.74 617.982,1574.58 618.5,1573.5 Z"/></g>
<g><path style="opacity:0.743" fill="#000000" d="M 383.5,1578.5 C 384.117,1578.61 384.617,1578.94 385,1579.5C 386.36,1584.99 384.194,1588.33 378.5,1589.5C 376.914,1584.23 378.581,1580.56 383.5,1578.5 Z"/></g>
<g><path style="opacity:0.649" fill="#000000" d="M 671.5,1582.5 C 674.91,1582.38 676.244,1584.05 675.5,1587.5C 673.833,1587.5 672.167,1587.5 670.5,1587.5C 670.366,1585.71 670.699,1584.04 671.5,1582.5 Z"/></g>
<g><path style="opacity:0.55" fill="#000000" d="M 330.5,1588.5 C 337.04,1588.62 337.707,1590.12 332.5,1593C 333.973,1593.71 334.64,1594.88 334.5,1596.5C 332.669,1595.95 331.003,1595.95 329.5,1596.5C 328.713,1595.76 328.047,1594.92 327.5,1594C 328.971,1592.42 329.971,1590.58 330.5,1588.5 Z"/></g>
<g><path style="opacity:0.6" fill="#000000" d="M 809.5,1590.5 C 809.5,1591.5 809.5,1592.5 809.5,1593.5C 807.958,1594.3 806.292,1594.63 804.5,1594.5C 804.5,1593.17 804.5,1591.83 804.5,1590.5C 806.167,1590.5 807.833,1590.5 809.5,1590.5 Z"/></g>
<g><path style="opacity:0.553" fill="#000000" d="M 383.5,1596.5 C 384.5,1596.5 385.5,1596.5 386.5,1596.5C 386.5,1597.5 386.5,1598.5 386.5,1599.5C 385.5,1599.5 384.5,1599.5 383.5,1599.5C 383.5,1598.5 383.5,1597.5 383.5,1596.5 Z"/></g>
<g><path style="opacity:0.648" fill="#000000" d="M 349.5,1599.5 C 350.833,1599.5 352.167,1599.5 353.5,1599.5C 353.5,1600.83 353.5,1602.17 353.5,1603.5C 352.167,1603.5 350.833,1603.5 349.5,1603.5C 349.5,1602.17 349.5,1600.83 349.5,1599.5 Z"/></g>
<g><path style="opacity:0.345" fill="#000000" d="M 383.5,1603.5 C 384.833,1603.5 386.167,1603.5 387.5,1603.5C 387.5,1604.5 387.5,1605.5 387.5,1606.5C 386.167,1606.5 384.833,1606.5 383.5,1606.5C 383.5,1605.5 383.5,1604.5 383.5,1603.5 Z"/></g>
<g><path style="opacity:0.772" fill="#000000" d="M 744.5,1604.5 C 748.215,1604.2 751.715,1604.86 755,1606.5C 758.984,1604.51 761.817,1605.51 763.5,1609.5C 761.219,1610.18 758.886,1610.35 756.5,1610C 755.167,1610.67 754.167,1611.67 753.5,1613C 750.5,1613.67 747.5,1613.67 744.5,1613C 741.939,1610.18 741.939,1607.34 744.5,1604.5 Z"/></g>
<g><path style="opacity:0.732" fill="#000000" d="M 372.5,1613.5 C 375.91,1613.38 377.244,1615.05 376.5,1618.5C 374.473,1618.66 372.473,1618.5 370.5,1618C 371.267,1616.53 371.933,1615.03 372.5,1613.5 Z"/></g>
<g><path style="opacity:0.556" fill="#000000" d="M 549.5,1613.5 C 550.833,1613.5 552.167,1613.5 553.5,1613.5C 553.5,1614.5 553.5,1615.5 553.5,1616.5C 552.167,1616.5 550.833,1616.5 549.5,1616.5C 549.5,1615.5 549.5,1614.5 549.5,1613.5 Z"/></g>
<g><path style="opacity:0.532" fill="#000000" d="M 508.5,1616.5 C 509.5,1616.5 510.5,1616.5 511.5,1616.5C 511.5,1617.5 511.5,1618.5 511.5,1619.5C 510.5,1619.5 509.5,1619.5 508.5,1619.5C 508.5,1618.5 508.5,1617.5 508.5,1616.5 Z"/></g>
<g><path style="opacity:0.495" fill="#000000" d="M 788.5,1619.5 C 789.5,1619.5 790.5,1619.5 791.5,1619.5C 791.5,1620.5 791.5,1621.5 791.5,1622.5C 790.5,1622.5 789.5,1622.5 788.5,1622.5C 788.5,1621.5 788.5,1620.5 788.5,1619.5 Z"/></g>
<g><path style="opacity:0.645" fill="#000000" d="M 551.5,1622.5 C 553.429,1622.23 555.095,1622.73 556.5,1624C 554.5,1624.67 552.5,1624.67 550.5,1624C 551.056,1623.62 551.389,1623.12 551.5,1622.5 Z"/></g>
<g><path style="opacity:0.082" fill="#000000" d="M 557.5,1624.5 C 558.525,1624.9 558.692,1625.56 558,1626.5C 557.536,1625.91 557.369,1625.24 557.5,1624.5 Z"/></g>
<g><path style="opacity:0.634" fill="#000000" d="M 518.5,1630.5 C 522.267,1632.33 522.433,1634.33 519,1636.5C 515.911,1634.8 515.745,1632.8 518.5,1630.5 Z"/></g>
<g><path style="opacity:0.503" fill="#000000" d="M 573.5,1635.5 C 575.912,1635.69 576.912,1637.03 576.5,1639.5C 575.167,1639.5 573.833,1639.5 572.5,1639.5C 572.433,1638.04 572.766,1636.71 573.5,1635.5 Z"/></g>
<g><path style="opacity:0.822" fill="#000000" d="M 762.5,1639.5 C 765.518,1639.34 768.518,1639.5 771.5,1640C 774.169,1643.35 773.503,1646.02 769.5,1648C 761.318,1649.66 758.984,1646.83 762.5,1639.5 Z"/></g>
<g><path style="opacity:0.572" fill="#000000" d="M 328.5,1644.5 C 330.625,1645.37 330.791,1646.37 329,1647.5C 327.317,1646.82 327.15,1645.82 328.5,1644.5 Z"/></g>
<g><path style="opacity:0.677" fill="#000000" d="M 415.5,1646.5 C 420.123,1645.41 421.956,1647.07 421,1651.5C 415.42,1653.75 413.587,1652.08 415.5,1646.5 Z"/></g>
<g><path style="opacity:0.41" fill="#000000" d="M 712.5,1648.5 C 713.5,1648.5 714.5,1648.5 715.5,1648.5C 715.5,1649.5 715.5,1650.5 715.5,1651.5C 714.5,1651.5 713.5,1651.5 712.5,1651.5C 712.5,1650.5 712.5,1649.5 712.5,1648.5 Z"/></g>
<g><path style="opacity:0.795" fill="#000000" d="M 351.5,1649.5 C 354.167,1649.5 356.833,1649.5 359.5,1649.5C 360.146,1653.82 358.313,1655.82 354,1655.5C 349.173,1655.19 348.339,1653.19 351.5,1649.5 Z"/></g>
<g><path style="opacity:0.591" fill="#000000" d="M 603.5,1650.5 C 606.084,1651.05 607.084,1652.71 606.5,1655.5C 602.716,1655.47 601.716,1653.81 603.5,1650.5 Z"/></g>
<g><path style="opacity:0.661" fill="#000000" d="M 386.5,1652.5 C 388.167,1652.5 389.833,1652.5 391.5,1652.5C 391.725,1654.72 390.892,1656.38 389,1657.5C 387.108,1656.38 386.275,1654.72 386.5,1652.5 Z"/></g>
<g><path style="opacity:0.422" fill="#000000" d="M 559.5,1654.5 C 563.31,1655.75 563.31,1656.75 559.5,1657.5C 559.5,1656.5 559.5,1655.5 559.5,1654.5 Z"/></g>
<g><path style="opacity:0.418" fill="#000000" d="M 319.5,1655.5 C 323.588,1655.22 324.088,1655.89 321,1657.5C 319.97,1657.16 319.47,1656.5 319.5,1655.5 Z"/></g>
<g><path style="opacity:0.537" fill="#000000" d="M 402.5,1657.5 C 406.905,1657.7 407.405,1659.03 404,1661.5C 401.5,1660.84 401,1659.51 402.5,1657.5 Z"/></g>
<g><path style="opacity:0.756" fill="#000000" d="M 634.5,1657.5 C 640.158,1656.68 641.825,1658.85 639.5,1664C 636.364,1665.04 633.864,1664.21 632,1661.5C 631.107,1662.71 630.274,1662.71 629.5,1661.5C 628.359,1660.57 628.359,1659.74 629.5,1659C 631.382,1658.8 633.048,1658.3 634.5,1657.5 Z"/></g>
<g><path style="opacity:0.622" fill="#000000" d="M 359.5,1660.5 C 361.213,1661.64 361.88,1663.3 361.5,1665.5C 360.167,1665.5 358.833,1665.5 357.5,1665.5C 357.365,1663.45 358.032,1661.78 359.5,1660.5 Z"/></g>
<g><path style="opacity:0.585" fill="#000000" d="M 385.5,1664.5 C 388.998,1664.48 390.331,1665.98 389.5,1669C 387.866,1669.49 386.199,1669.66 384.5,1669.5C 384.366,1667.71 384.699,1666.04 385.5,1664.5 Z"/></g>
<g><path style="opacity:0.597" fill="#000000" d="M 678.5,1664.5 C 680.167,1664.5 681.833,1664.5 683.5,1664.5C 683.5,1665.83 683.5,1667.17 683.5,1668.5C 684.5,1668.5 685.5,1668.5 686.5,1668.5C 686.5,1669.5 686.5,1670.5 686.5,1671.5C 685.167,1671.5 683.833,1671.5 682.5,1671.5C 682.5,1670.5 682.5,1669.5 682.5,1668.5C 681.167,1668.5 679.833,1668.5 678.5,1668.5C 678.5,1667.17 678.5,1665.83 678.5,1664.5 Z"/></g>
<g><path style="opacity:0.531" fill="#000000" d="M 437.5,1666.5 C 440.5,1666.17 441.833,1667.5 441.5,1670.5C 440.167,1670.5 438.833,1670.5 437.5,1670.5C 437.5,1669.17 437.5,1667.83 437.5,1666.5 Z"/></g>
<g><path style="opacity:0.649" fill="#000000" d="M 558.5,1668.5 C 560.927,1668.52 563.26,1669.02 565.5,1670C 566.337,1671.01 566.67,1672.18 566.5,1673.5C 563.04,1673.47 559.706,1672.81 556.5,1671.5C 557.193,1670.48 557.859,1669.48 558.5,1668.5 Z"/></g>
<g><path style="opacity:0.612" fill="#000000" d="M 778.5,1671.5 C 782.138,1670.74 783.638,1672.07 783,1675.5C 778.415,1677.41 776.915,1676.08 778.5,1671.5 Z"/></g>
<g><path style="opacity:0.59" fill="#000000" d="M 559.5,1676.5 C 561.465,1676.95 561.798,1677.95 560.5,1679.5C 559.614,1678.68 559.281,1677.68 559.5,1676.5 Z"/></g>
<g><path style="opacity:0.783" fill="#000000" d="M 469.5,1679.5 C 472.247,1679.19 474.914,1679.52 477.5,1680.5C 478.747,1686.75 476.08,1689.25 469.5,1688C 466.899,1685.17 466.899,1682.34 469.5,1679.5 Z"/></g>
<g><path style="opacity:0.55" fill="#000000" d="M 657.5,1679.5 C 659.665,1679.12 661.332,1679.78 662.5,1681.5C 661.332,1683.22 659.665,1683.88 657.5,1683.5C 657.5,1682.17 657.5,1680.83 657.5,1679.5 Z"/></g>
<g><path style="opacity:0.622" fill="#000000" d="M 504.5,1682.5 C 508.225,1682.78 509.392,1684.78 508,1688.5C 506.413,1689.73 505.079,1689.39 504,1687.5C 503.36,1685.73 503.527,1684.07 504.5,1682.5 Z"/></g>
<g><path style="opacity:0.472" fill="#000000" d="M 681.5,1688.5 C 685.223,1688.36 686.056,1689.69 684,1692.5C 681.423,1691.83 680.59,1690.5 681.5,1688.5 Z"/></g>
<g><path style="opacity:0.725" fill="#000000" d="M 401.5,1691.5 C 404.206,1691.58 406.873,1691.91 409.5,1692.5C 409.126,1699.32 406.293,1700.32 401,1695.5C 400.421,1694.07 400.588,1692.74 401.5,1691.5 Z"/></g>
<g><path style="opacity:0.617" fill="#000000" d="M 771.5,1691.5 C 774.187,1691.34 776.854,1691.5 779.5,1692C 780.517,1693.05 780.684,1694.22 780,1695.5C 777.263,1696.61 774.429,1696.78 771.5,1696C 770.272,1694.51 770.272,1693.01 771.5,1691.5 Z"/></g>
<g><path style="opacity:0.781" fill="#000000" d="M 579.5,1695.5 C 580.5,1695.5 581.5,1695.5 582.5,1695.5C 583.441,1698.97 583.275,1702.3 582,1705.5C 577.114,1708.48 573.947,1707.14 572.5,1701.5C 573.656,1698 575.989,1696 579.5,1695.5 Z"/></g>
<g><path style="opacity:0.557" fill="#000000" d="M 429.5,1697.5 C 430.5,1697.5 431.5,1697.5 432.5,1697.5C 433.167,1700.83 431.833,1702.83 428.5,1703.5C 427.5,1703.17 426.833,1702.5 426.5,1701.5C 427.524,1700.15 428.524,1698.81 429.5,1697.5 Z"/></g>
<g><path style="opacity:0.636" fill="#000000" d="M 524.5,1706.5 C 530.277,1707.34 531.11,1710.01 527,1714.5C 524.204,1712.29 523.37,1709.62 524.5,1706.5 Z"/></g>
<g><path style="opacity:0.557" fill="#000000" d="M 600.5,1713.5 C 602.346,1713.22 603.68,1713.89 604.5,1715.5C 599.022,1722.52 597.689,1721.86 600.5,1713.5 Z"/></g>
<g><path style="opacity:0.587" fill="#000000" d="M 393.5,1718.5 C 394.833,1718.5 396.167,1718.5 397.5,1718.5C 397.662,1720.53 397.495,1722.53 397,1724.5C 395.989,1725.34 394.822,1725.67 393.5,1725.5C 393.5,1723.17 393.5,1720.83 393.5,1718.5 Z"/></g>
<g><path style="opacity:0.722" fill="#000000" d="M 591.5,1720.5 C 594.313,1720.55 596.979,1721.21 599.5,1722.5C 600.583,1723.36 600.749,1724.36 600,1725.5C 597.263,1726.61 594.429,1726.78 591.5,1726C 590.248,1724.17 590.248,1722.34 591.5,1720.5 Z"/></g>
<g><path style="opacity:0.663" fill="#000000" d="M 408.5,1724.5 C 412.701,1724.43 414.035,1726.26 412.5,1730C 410.866,1730.49 409.199,1730.66 407.5,1730.5C 407.325,1728.38 407.659,1726.38 408.5,1724.5 Z"/></g>
<g><path style="opacity:0.731" fill="#000000" d="M 528.5,1726.5 C 532.5,1725.83 534.167,1727.5 533.5,1731.5C 529.5,1732.17 527.833,1730.5 528.5,1726.5 Z"/></g>
<g><path style="opacity:0.557" fill="#000000" d="M 557.5,1726.5 C 558.833,1726.5 560.167,1726.5 561.5,1726.5C 561.64,1728.12 560.973,1729.29 559.5,1730C 561,1732.17 560.5,1733.67 558,1734.5C 556.268,1734.27 555.434,1733.27 555.5,1731.5C 556.547,1729.94 557.214,1728.28 557.5,1726.5 Z"/></g>
<g><path style="opacity:0.528" fill="#000000" d="M 425.5,1730.5 C 426.833,1730.5 428.167,1730.5 429.5,1730.5C 429.5,1731.5 429.5,1732.5 429.5,1733.5C 428.167,1733.5 426.833,1733.5 425.5,1733.5C 425.5,1732.5 425.5,1731.5 425.5,1730.5 Z"/></g>
<g><path style="opacity:0.541" fill="#000000" d="M 589.5,1731.5 C 590.5,1731.5 591.5,1731.5 592.5,1731.5C 592.5,1732.5 592.5,1733.5 592.5,1734.5C 591.5,1734.5 590.5,1734.5 589.5,1734.5C 589.5,1733.5 589.5,1732.5 589.5,1731.5 Z"/></g>
<g><path style="opacity:0.66" fill="#000000" d="M 442.5,1737.5 C 443.833,1737.5 445.167,1737.5 446.5,1737.5C 446.5,1738.83 446.5,1740.17 446.5,1741.5C 445.167,1741.5 443.833,1741.5 442.5,1741.5C 442.5,1740.17 442.5,1738.83 442.5,1737.5 Z"/></g>
<g><path style="opacity:0.581" fill="#000000" d="M 421.5,1741.5 C 425.161,1741.35 426.161,1742.85 424.5,1746C 420.707,1746.49 419.707,1744.99 421.5,1741.5 Z"/></g>
<g><path style="opacity:0.602" fill="#000000" d="M 601.5,1744.5 C 602.833,1744.5 604.167,1744.5 605.5,1744.5C 605.5,1745.5 605.5,1746.5 605.5,1747.5C 604.167,1747.5 602.833,1747.5 601.5,1747.5C 601.5,1746.5 601.5,1745.5 601.5,1744.5 Z"/></g>
<g><path style="opacity:0.694" fill="#000000" d="M 431.5,1745.5 C 435.485,1745.63 436.818,1747.46 435.5,1751C 430.001,1751.81 428.668,1749.97 431.5,1745.5 Z"/></g>
<g><path style="opacity:0.524" fill="#000000" d="M 479.5,1747.5 C 481.167,1747.5 482.833,1747.5 484.5,1747.5C 483.969,1750.78 481.969,1752.11 478.5,1751.5C 478.433,1750.04 478.766,1748.71 479.5,1747.5 Z"/></g>
<g><path style="opacity:0.653" fill="#000000" d="M 397.5,1751.5 C 402.376,1750.4 404.043,1752.07 402.5,1756.5C 397.153,1758.49 395.486,1756.82 397.5,1751.5 Z"/></g>
<g><path style="opacity:0.533" fill="#000000" d="M 526.5,1751.5 C 528.665,1751.12 530.332,1751.78 531.5,1753.5C 528.83,1755.09 527.163,1754.42 526.5,1751.5 Z"/></g>
<g><path style="opacity:0.482" fill="#000000" d="M 585.5,1754.5 C 586.833,1754.5 588.167,1754.5 589.5,1754.5C 589.5,1755.5 589.5,1756.5 589.5,1757.5C 588.167,1757.5 586.833,1757.5 585.5,1757.5C 585.5,1756.5 585.5,1755.5 585.5,1754.5 Z"/></g>
<g><path style="opacity:0.442" fill="#000000" d="M 444.5,1761.5 C 446.346,1761.22 447.68,1761.89 448.5,1763.5C 447.68,1765.11 446.346,1765.78 444.5,1765.5C 444.5,1764.17 444.5,1762.83 444.5,1761.5 Z"/></g>
<g><path style="opacity:0.405" fill="#000000" d="M 406.5,1779.5 C 408.346,1779.22 409.68,1779.89 410.5,1781.5C 409.311,1782.43 407.978,1782.76 406.5,1782.5C 406.5,1781.5 406.5,1780.5 406.5,1779.5 Z"/></g>
<g><path style="opacity:0.635" fill="#000000" d="M 567.5,1782.5 C 569.167,1782.5 570.833,1782.5 572.5,1782.5C 573.169,1786.68 571.669,1788.01 568,1786.5C 567.51,1785.21 567.343,1783.87 567.5,1782.5 Z"/></g>
<g><path style="opacity:0.485" fill="#000000" d="M 532.5,1786.5 C 534.346,1786.22 535.68,1786.89 536.5,1788.5C 535.68,1790.11 534.346,1790.78 532.5,1790.5C 532.5,1789.17 532.5,1787.83 532.5,1786.5 Z"/></g>
<g><path style="opacity:0.56" fill="#000000" d="M 455.5,1793.5 C 456.833,1793.5 458.167,1793.5 459.5,1793.5C 459.5,1794.5 459.5,1795.5 459.5,1796.5C 457.027,1796.91 455.694,1795.91 455.5,1793.5 Z"/></g>
<g><path style="opacity:0.399" fill="#000000" d="M 420.5,1796.5 C 421.5,1796.5 422.5,1796.5 423.5,1796.5C 423.5,1797.5 423.5,1798.5 423.5,1799.5C 422.5,1799.5 421.5,1799.5 420.5,1799.5C 420.5,1798.5 420.5,1797.5 420.5,1796.5 Z"/></g>
<g><path style="opacity:0.593" fill="#000000" d="M 484.5,1798.5 C 487.91,1798.38 489.244,1800.05 488.5,1803.5C 484.065,1804.08 482.732,1802.41 484.5,1798.5 Z"/></g>
<g><path style="opacity:0.626" fill="#000000" d="M 571.5,1802.5 C 575.161,1802.35 576.161,1803.85 574.5,1807C 569.522,1807.86 568.522,1806.36 571.5,1802.5 Z"/></g>
<g><path style="opacity:0.599" fill="#000000" d="M 476.5,1807.5 C 480.138,1806.74 481.638,1808.07 481,1811.5C 476.415,1813.41 474.915,1812.08 476.5,1807.5 Z"/></g>
<g><path style="opacity:0.531" fill="#000000" d="M 580.5,1812.5 C 581.675,1812.28 582.675,1812.61 583.5,1813.5C 581.948,1814.8 580.948,1814.46 580.5,1812.5 Z"/></g>
<g><path style="opacity:0.597" fill="#000000" d="M 428.5,1825.5 C 432.619,1826.37 433.119,1828.03 430,1830.5C 427.389,1829.5 426.889,1827.83 428.5,1825.5 Z"/></g>
<g><path style="opacity:0.768" fill="#000000" d="M 384.5,1829.5 C 387.807,1830.29 390.807,1831.79 393.5,1834C 394.711,1835.11 394.711,1836.28 393.5,1837.5C 390.054,1838.05 386.388,1838.22 382.5,1838C 380.944,1834.61 381.611,1831.77 384.5,1829.5 Z"/></g>
<g><path style="opacity:0.496" fill="#000000" d="M 421.5,1838.5 C 422.5,1838.5 423.5,1838.5 424.5,1838.5C 424.5,1839.5 424.5,1840.5 424.5,1841.5C 421.433,1841.88 420.433,1840.88 421.5,1838.5 Z"/></g>
<g><path style="opacity:0.631" fill="#000000" d="M 776.5,1976.5 C 780.138,1975.74 781.638,1977.07 781,1980.5C 777.331,1982.01 775.831,1980.68 776.5,1976.5 Z"/></g>
<g><path style="opacity:0.463" fill="#000000" d="M 756.5,2005.5 C 756.167,2005.5 755.833,2005.5 755.5,2005.5C 754.032,2004.22 753.365,2002.55 753.5,2000.5C 757.284,2000.53 758.284,2002.19 756.5,2005.5 Z"/></g>
</svg>
