<svg width="260" height="186" viewBox="0 0 260 186" fill="none" xmlns="http://www.w3.org/2000/svg">
<path d="M134.396 167.983C132.056 165.086 128.35 163.024 132.389 158.929C131.986 162.481 133.644 164.501 136.639 165.824C139.884 167.217 142.726 167.217 145.136 163.651C145.819 165.49 144.426 167.705 147.755 167.663C157.046 167.663 165.599 164.877 173.943 161.311C176.66 160.127 177.704 157.411 178.763 154.764C180.853 149.582 182.748 148.592 187.484 151.03C188.647 151.596 189.925 151.884 191.218 151.872C192.511 151.86 193.784 151.548 194.937 150.961C200.258 148.83 205.69 146.921 210.538 143.731C211.972 142.505 213.718 141.7 215.581 141.404C216.194 144.051 214.257 144.344 213.032 144.957C203.838 149.554 194.477 153.733 184.405 156.017C183.012 156.324 181.619 156.491 180.867 157.898C178.457 162.607 173.902 163.721 169.36 165.225C156.784 169.366 143.593 171.326 130.356 171.02C117.359 170.742 103.541 171.243 91.1567 164.793C86.4204 162.327 85.682 159.834 87.9108 154.652C92.271 144.553 101.326 144.637 110.115 143.968L100.364 146.907C96.8316 147.957 93.7674 150.19 91.6859 153.231C87.9247 158.511 88.3705 161.283 94.4719 163.818C101.339 166.688 108.402 169.042 115.52 164.152C116.467 163.512 118.404 163.387 118.878 164.515C122.402 173.026 128.88 167.941 134.396 167.983Z" fill="black"/>
<path d="M129.293 19.7289C136.871 17.3608 144.616 18.9907 152.306 18.7121C155.607 18.6006 149.951 21.6655 153.267 21.777C150.575 22.9653 148.213 24.7915 146.385 27.0981C146.316 28.101 147.179 28.0173 147.778 28.3238C149.896 29.466 154.075 29.2433 153.183 32.6422C152.361 35.7905 148.656 33.6452 145.466 34.676C147.569 32.67 150.926 34.3837 150.815 32.1131C150.703 29.5778 147.611 29.1322 145.452 29.2019C139.864 29.5917 134.614 32.0207 130.7 36.0275C127.913 38.6325 129.042 42.5886 130.839 45.7787C134.196 51.6572 142.471 55.1815 149.255 54.1368C151.567 53.7885 151.957 52.4788 152.333 50.6957C152.506 49.6491 153.048 48.6993 153.86 48.0171C154.673 47.335 155.702 46.9656 156.763 46.9765C157.63 46.8311 158.521 46.9631 159.309 47.3533C160.097 47.7434 160.742 48.3719 161.151 49.1497C162.308 51.476 160.719 52.9387 159.619 54.7217C157.641 57.9257 155.44 58.9009 151.846 57.2711C149.882 56.4074 147.402 56.6995 145.159 56.5045C141.067 56.2193 137.163 54.6752 133.983 52.084C130.804 49.4927 128.503 45.9817 127.398 42.0315C127.105 41.0703 127.398 39.5102 126.312 39.2455C124.027 38.7997 124.027 38.382 125.755 36.975C128.986 34.3701 130.129 30.0096 133.876 27.5579C122.216 26.5827 110.919 30.191 99.5518 28.6169L99.4824 27.1538H122.202L118.929 24.8691V24.9392C121.325 25.1063 123.721 25.4129 126.131 25.4268C133.542 25.4268 140.771 24.6466 148.182 19.6596H129.377L129.293 19.7289Z" fill="black"/>
<path d="M114.264 136.879C107.633 138.272 100.989 139.428 94.4001 140.947C88.1455 142.34 81.0827 142.59 78.241 150.168C78.032 150.697 77.1823 151.032 76.5834 151.367C75.8725 151.719 75.1419 152.03 74.3959 152.3C78.3938 146.045 77.7117 144.819 70.663 144.387C67.7737 144.357 64.9101 143.839 62.1934 142.855C64.5476 142.715 66.8879 142.437 69.2421 142.423C80.5813 142.339 90.3458 137.116 100.348 132.798C111.561 127.978 123.096 125.763 135.257 127.351C137.096 127.587 139.715 127.434 139.868 129.76C140.021 132.087 137.165 131.878 135.521 132.547C134.518 132.832 133.494 133.032 132.457 133.146C133.237 131.892 135.549 132.254 135.633 130.011C126.021 127.393 116.786 129.44 107.578 131.906C104.499 132.742 102.159 134.33 101.211 137.617L114.264 136.879Z" fill="black"/>
<path d="M200.062 46.0001C206.638 39.3554 214.327 35.1206 223.995 35.5246C233.133 35.9147 236.978 40.7065 235.055 49.6357C234.61 51.7113 235.808 51.9205 236.936 52.6728C243.553 57.0608 243.608 63.0086 237.117 67.6613C231.183 71.91 219.119 74.1112 211.834 72.0635C213.227 70.6008 214.843 71.2697 216.194 71.2697C222.713 71.2697 229.037 70.4476 234.679 66.8397C237.465 65.0705 239.792 62.8696 239.053 59.2338C238.315 55.598 235.223 54.1772 231.824 53.3693C229.748 52.8678 227.282 53.8986 225.527 51.9763C225.987 50.1932 227.394 50.3883 228.494 50.0262C233.662 48.3685 234.498 44.4536 230.403 40.7899C226.656 37.4606 222.114 37.6283 217.545 38.2134C210.956 39.1328 205.69 42.9216 200.062 46.0001Z" fill="black"/>
<path d="M63.4014 39.3702C60.4203 37.0299 60.1838 34.6616 59.5291 32.5582C58.3729 28.8388 59.5288 26.6239 63.4014 24.8966C76.7326 18.9205 91.1364 18.6842 105.192 16.3439C123.19 13.335 141.41 11.7468 159.227 7.4981C161.63 7.14705 164.057 6.99751 166.485 7.0519C166.001 7.73629 165.36 8.29486 164.616 8.68027C163.872 9.06567 163.046 9.26713 162.208 9.26727C135.421 13.4463 108.605 17.625 81.8731 22.1105C75.6185 23.1831 69.6143 25.8719 63.5129 27.8778C61.2841 28.6161 60.7268 30.2878 61.3676 32.4609L63.4014 39.3702Z" fill="black"/>
<path d="M153.266 21.7752C158.838 19.2539 164.118 15.5901 171.376 18.1254L166.737 18.8219C174.189 19.9781 180.932 18.251 187.939 15.5903C195.921 12.5535 204.655 11.4111 213.013 9.53056C213.438 9.39446 213.897 9.41825 214.306 9.5979C214.714 9.77755 215.042 10.1009 215.228 10.5059C215.632 11.5089 214.698 11.8989 214.072 12.4839C209.419 16.9694 203.275 17.5122 197.453 18.5709C187.701 20.354 177.867 21.218 168.283 23.7811C166.778 24.1851 164.87 24.9231 163.407 23.5022C163.869 22.6661 164.405 21.8739 165.009 21.1345C160.941 20.4798 157.055 21.6916 153.127 21.7195L153.266 21.7752ZM207.928 12.9852C202.356 13.821 196.896 14.7128 191.811 17.0949C197.471 17.3396 203.077 15.9099 207.928 12.9852Z" fill="black"/>
<path d="M230.355 51.9485C233.142 49.1625 235.928 46.3064 238.714 43.5203C241.5 40.7343 244.62 38.185 246.417 34.4378C247.42 32.3344 249.496 31.2755 251.613 32.8217C253.731 34.368 252.922 36.2767 251.251 37.6558C248.785 39.6617 250.443 41.0969 251.934 42.1974C254.144 43.657 256.437 44.987 258.801 46.1812C257.072 46.7842 255.197 46.8228 253.444 46.2921C251.692 45.7614 250.153 44.6887 249.05 43.2279C246.863 40.609 245.302 41.0545 243.074 43.0048C239.187 46.4177 235.078 49.5802 231.08 52.8538L230.355 51.9485Z" fill="black"/>
<path d="M6.47441 174.505C2.03068 167.735 6.47457 162.135 8.38301 155.783C5.15121 154.139 -0.17045 153.443 0.735012 147.188C1.47331 142.132 6.54414 137.701 14.2197 136.211C10.6257 138.677 7.58847 140.223 5.41536 142.87C1.77959 147.286 2.54564 150.88 7.7416 153.067C8.53562 153.401 9.4275 153.526 10.1937 153.93C11.921 154.822 15.1108 154.056 15.1944 156.716C15.264 158.931 12.2412 158.514 10.6671 159.377C7.88103 160.896 7.04509 163.556 6.69683 166.342C6.463 169.122 6.37043 171.912 6.41864 174.701L6.47441 174.505Z" fill="black"/>
<path d="M146.375 107.641C146.835 109.438 146.375 110.622 144.383 111.095C140.051 112.126 136.805 115.274 132.891 117.099C131.345 117.824 130.188 118.882 130.481 120.665C130.732 122.198 132.111 122.713 133.448 123.256C137.056 124.649 140.566 124.036 144.16 123.173C146.325 122.74 148.528 122.53 150.735 122.546C142.141 126.265 140.204 126.237 126.58 122.337C129.296 112.168 139.201 111.75 146.445 107.71L146.375 107.641Z" fill="black"/>
<path d="M197.83 67.6205C188.622 61.0594 177.185 69.0134 166.139 62.313C172.923 63.511 178.3 64.0263 183.663 63.2741C186.755 62.8423 189.904 62.6191 191.06 58.7604C191.151 58.3698 191.33 58.0055 191.583 57.6946C191.836 57.3836 192.158 57.1347 192.522 56.9668C192.886 56.7988 193.284 56.7161 193.685 56.7253C194.086 56.7345 194.479 56.8347 194.835 57.0191C196.493 57.8689 195.866 59.471 195.225 60.669C193.261 64.3048 196.381 65.0712 198.373 66.52C198.434 66.5788 198.479 66.6509 198.506 66.7308C198.533 66.8108 198.539 66.8958 198.526 66.9791C198.498 67.1045 198.303 67.2026 197.83 67.6205Z" fill="black"/>
<path d="M107.676 148.342C115.63 140.513 124.837 137.198 135.954 140.764C126.173 141.525 116.629 144.159 107.843 148.524L107.676 148.342Z" fill="black"/>
<path d="M193.885 21.1211C186.92 23.141 179.676 23.7682 172.892 26.3592C171.499 26.8885 169.702 27.3344 169.562 29.2289C169.423 31.1234 171.666 30.6219 172.697 32.0149C170.092 32.196 167.752 31.9311 167.208 29.3541C166.665 26.777 169.089 25.8991 171.067 25.2723C178.482 22.9899 186.142 21.5964 193.885 21.1211Z" fill="black"/>
<path d="M252.35 12.861C250.219 13.446 249.313 11.9133 249.564 10.3252C250.135 6.91235 253.576 7.17746 255.944 6.24414C257.811 5.50584 258.828 6.98205 259.19 8.63975C259.552 10.2974 255.54 12.7356 252.35 12.861Z" fill="black"/>
<path d="M145.247 93.402C137.279 84.5563 127.945 91.4522 119.002 89.6413C126.285 87.6709 133.86 87.0107 141.374 87.6912C144.439 87.9419 146.18 89.2926 145.247 93.402Z" fill="black"/>
<path d="M6.41797 174.547C11.0707 182.474 18.9553 184.229 27.8288 185.149C16.7683 187.698 8.17323 183.184 6.47374 174.506L6.41797 174.547Z" fill="black"/>
<path d="M82.435 86.2711C85.5972 86.2711 88.829 84.8777 92.1861 84.1394C93.7324 83.7772 95.2511 83.3452 96.672 84.3482C96.8653 84.5216 97.015 84.7381 97.1093 84.9801C97.2037 85.222 97.2397 85.4827 97.2148 85.7412C97.0847 86.1662 96.8089 86.5317 96.4353 86.7724C91.2393 83.9863 86.8791 88.0818 82.0732 88.4857C80.9309 88.5833 79.621 89.3775 78.813 87.9845C78.6649 87.6907 78.5879 87.366 78.5879 87.037C78.5879 86.7079 78.6649 86.3832 78.813 86.0895C79.8857 84.6546 80.9863 85.9367 82.435 86.2711Z" fill="black"/>
<path d="M230.664 2.20487C236.487 1.56408 241.293 1.04869 246.085 0.491487C247.366 0.352185 248.606 0.282697 249.177 1.70358C249.328 1.97039 249.423 2.26505 249.458 2.56945C249.492 2.87386 249.465 3.18174 249.378 3.47546C249.291 3.76917 249.146 4.04232 248.951 4.27876C248.756 4.51519 248.515 4.71049 248.243 4.85215C247.756 5.13076 247.241 5.79949 246.572 4.93581C244.176 1.87117 244.163 1.94017 240.875 2.52524C237.88 3.06852 234.885 4.69838 230.664 2.20487Z" fill="black"/>
<path d="M45.7715 114.674C48.8083 111.442 53.224 110.578 56.0797 107.124C56.4804 106.788 56.997 106.623 57.5183 106.665C58.0395 106.706 58.5235 106.951 58.8657 107.347C59.6319 108.531 58.3642 109.241 57.4727 109.632C53.6419 111.373 49.6998 113.002 45.7715 114.674Z" fill="black"/>
<path d="M71.2364 145.74C67.726 147.607 64.4245 149.724 63.1429 153.68C62.5021 155.616 60.9837 153.416 60.3568 154.544C58.9638 153.638 59.8416 152.83 60.4963 152.05C63.2963 148.749 66.5001 146.047 71.2364 145.74Z" fill="black"/>
<path d="M118.857 24.8704C118.341 24.8753 117.825 24.8524 117.311 24.801C115.723 24.5782 113.383 25.0103 113.424 22.6421C113.424 20.8173 115.611 20.8451 117.06 20.4968C121.077 19.6436 125.199 19.3851 129.291 19.7303C125.196 21.9312 120.111 20.1621 116.127 22.9203C116.461 24.4805 118.091 24.1462 118.843 25.0099L118.857 24.8704Z" fill="black"/>
<path d="M82.587 92.6797C80.3442 95.3821 76.4582 94.0732 76.1238 97.6811C76.1238 97.9318 75.2879 98.3636 74.9675 98.266C74.0063 98.0014 73.7972 97.082 73.7276 96.2044C73.5959 95.6104 73.6998 94.9887 74.0166 94.4693C74.3335 93.9499 74.839 93.5732 75.4273 93.4184C77.5865 92.9587 79.8009 92.9304 82.587 92.6797Z" fill="black"/>
<path d="M50.2544 128.688C47.1201 131.168 44.3619 130.708 41.8963 131.307C41.0744 131.516 40.044 131.488 39.9326 130.29C39.8211 129.092 40.7959 128.758 41.6317 128.716C44.1809 128.619 46.744 128.688 50.2544 128.688Z" fill="black"/>
<path d="M107.843 148.525C106.282 152.704 102.117 153.15 98.6621 154.627C100.961 151.663 104.111 149.47 107.689 148.344L107.843 148.525Z" fill="black"/>
<path d="M146.443 107.709C150.388 104.739 154.832 102.498 159.565 101.092C155.094 103.126 151.555 106.943 146.373 107.639L146.443 107.709Z" fill="black"/>
</svg>
