<svg width="436" height="719" viewBox="0 0 436 719" fill="none" xmlns="http://www.w3.org/2000/svg">
<path d="M39.2083 112.626C38.7912 112.824 38.4276 113.118 38.1475 113.485C37.8674 113.852 37.6789 114.281 37.5978 114.735C37.3885 116.652 37.6783 118.6 37.5978 120.533C37.4529 123.609 37.3246 126.701 36.9381 129.761C36.4549 133.433 35.4562 137.056 35.1341 140.744C34.6027 147.009 34.4579 153.306 34.1197 159.603C33.701 167.43 33.1212 175.257 32.8796 183.084C32.5898 191.812 32.622 200.541 32.477 209.27C32.477 212.748 32.122 216.211 32.1704 219.673C32.1704 226.228 32.6378 232.783 32.6217 239.337C32.6217 250.9 32.2671 262.464 32.2671 274.043C32.2671 283.255 32.7184 292.483 32.6862 301.711C32.6862 314.594 32.1546 327.478 32.1546 340.265C32.1546 354.018 32.5574 367.772 32.7185 381.509C32.799 387.404 32.7185 393.282 32.7185 399.466L31.5428 398.146C31.0446 400.593 31.3733 403.136 32.477 405.377C32.7701 406.222 32.9277 407.107 32.9441 408.001C33.2823 418.663 33.4428 429.324 33.942 439.969C34.3608 449.085 35.3274 458.168 34.7315 467.347C34.6006 471.841 34.7674 476.339 35.2309 480.811C35.553 485.304 36.1329 489.765 36.5677 494.242C37.7111 506.288 38.8704 518.318 39.9656 530.365C40.6742 538.304 41.5755 546.228 41.8654 554.184C42.3486 564.845 42.413 575.539 42.6707 586.216C42.616 588.534 42.724 590.854 42.9931 593.157C44.4425 601.934 44.6035 610.872 44.9739 619.649C45.2799 625.914 45.0868 632.211 45.1351 638.508C45.1351 643.339 45.1353 648.267 45.2963 653.163C45.2963 654.435 45.5378 655.724 45.6022 656.996C45.9397 660.362 46.0046 663.75 45.7957 667.126L30.3995 656.69C35.3275 652.535 38.5969 642.695 34.5224 639.377C36.8737 643.935 33.9262 650.876 29.4008 652.857C27.9418 653.407 26.36 653.547 24.8273 653.26C23.472 653.596 22.0595 653.634 20.6879 653.373C19.7571 653.205 18.815 653.108 17.8696 653.082C15.6717 653.641 13.5184 654.362 11.4277 655.241C11.5797 655.41 11.6945 655.609 11.7639 655.826C11.8333 656.042 11.8557 656.271 11.8303 656.497C14.6165 656.4 17.4029 656.271 20.189 656.497C21.385 656.573 22.5712 656.762 23.7319 657.061C24.2817 657.109 24.823 657.228 25.3424 657.415C30.3993 659.364 35.3755 661.586 39.305 665.467C39.7973 665.963 40.2448 666.502 40.6418 667.078C41.6138 667.74 42.4916 668.531 43.251 669.429C46.3914 673.358 41.2699 676.193 38.1939 677.61C36.2774 678.496 34.2161 679.011 32.2514 679.768C30.6409 680.396 28.4665 681.234 27.935 683.102C26.55 687.804 33.6523 691.154 37.2597 691.863C37.6868 691.892 38.0844 692.091 38.3653 692.414C38.6462 692.737 38.7876 693.159 38.7577 693.586C38.7278 694.013 38.5296 694.411 38.2065 694.692C37.8833 694.972 37.4611 695.113 37.034 695.084C32.9434 695.245 28.8209 693.682 24.8431 694.665C24.9236 694.858 24.9878 695.003 25.0522 695.003C33.9742 695.808 42.9129 696.614 52.2053 697.322C53.6063 704.399 54.4835 711.568 54.8302 718.773C55.5843 718.287 56.4105 717.923 57.2781 717.695C56.4955 715.058 56.1685 712.308 56.3117 709.562C56.3117 704.36 56.553 699.11 56.8912 693.908C57.0878 690.024 57.5671 686.159 58.3248 682.345C58.518 678.592 58.7116 674.84 58.6472 671.072C58.5344 663.47 58.0834 655.885 57.713 648.299C57.1976 637.896 56.8754 627.46 55.9735 617.073C54.6368 601.548 53.5579 586.023 53.2197 570.45C53.1231 565.94 52.9193 561.441 52.6079 556.954C52.1248 549.9 51.4645 542.846 50.9974 535.808C50.3371 526.806 49.7245 517.819 49.1125 508.833C48.1946 495.225 47.0674 481.632 46.4554 468.008C45.6663 450.792 45.3445 433.544 44.7325 416.312C44.346 405.763 43.6694 395.231 43.3312 384.698C42.8964 370.671 42.719 356.628 42.3003 342.601C41.6561 320.231 40.8834 297.861 40.207 275.476C39.8205 262.753 39.3697 250.015 39.2248 237.276C39.0476 220.672 39.2243 204.052 39.1116 187.448L39.1116 171.118C38.8539 171.118 38.5962 171.118 38.3386 171.118C38.3386 173.936 38.3386 176.738 38.3386 179.557C38.5318 205.824 38.5968 232.09 38.9511 258.341C39.241 280.485 39.9007 302.629 40.3517 324.789C40.6845 340.754 40.9852 356.714 41.2536 372.668C41.3825 378.965 41.3506 385.278 41.6083 391.575C41.9304 399.788 42.5098 408.002 42.8641 416.231C43.0412 420.08 42.8642 423.961 42.9931 427.81C43.2346 434.107 43.7336 440.388 43.943 446.685C44.1845 454.528 44.2494 462.371 44.3944 470.23C44.3944 473.822 44.3942 477.445 44.6358 481.036C45.28 490.409 46.0366 499.766 46.7613 509.123L47.7922 522.989C48.7263 535.712 49.8213 548.402 50.5461 561.125C51.2708 573.848 51.5123 586.602 52.1565 599.325C52.8007 612.048 53.7669 624.77 54.4755 637.477C54.9587 645.443 55.3993 653.415 55.7966 661.393C56.4754 670.919 56.1456 680.489 54.8136 689.946C54.1408 688.309 53.6289 686.609 53.2842 684.873C52.1085 678.029 50.7717 671.201 49.9343 664.324C49.0163 656.674 48.3239 648.976 47.9857 641.294C47.728 636.189 48.3402 631.035 48.1791 625.914C47.9698 618.49 47.7925 611.033 46.9068 603.657C45.9466 597.043 45.4351 590.371 45.3765 583.688C45.3765 579.983 45.1672 576.279 44.9739 572.591C44.7323 567.969 43.9114 563.315 44.2174 558.741C44.4256 552.456 44.1723 546.164 43.4602 539.915C42.7999 531.315 41.6083 522.78 40.803 514.148C39.9656 505.097 39.1924 496.03 38.661 486.963C38.2584 479.683 36.7284 472.468 38.661 465.092C38.7413 464.327 38.7413 463.555 38.661 462.79C38.5082 456.498 38.0246 450.22 37.2117 443.979C36.2293 432.98 35.9229 421.916 35.5203 410.884C35.1337 400.465 34.9409 390.045 34.7315 379.625C34.6188 373.183 34.6509 366.741 34.5703 360.3C34.4415 351.313 34.1673 342.327 34.1834 333.34C34.1834 325.288 34.6667 317.397 34.6828 309.425C34.6828 297.862 34.5702 286.282 34.4414 274.719C34.3286 264.944 34.0069 255.168 33.9585 245.393C33.9585 233.846 33.958 222.282 34.1834 210.719C34.3767 200.944 35.0055 191.184 35.3276 181.425C35.7624 167.671 36.3097 153.918 37.8235 140.229C38.1456 137.25 38.339 134.318 41.9786 133.336C40.4207 128.594 40.001 123.551 40.7543 118.617C40.8645 117.337 40.9026 116.051 40.8675 114.767C40.787 113.608 40.4967 112.384 39.2083 112.626ZM51.7217 693.248C47.7921 692.958 44.4584 692.829 41.1569 692.443C36.7442 691.911 33.3465 689.35 30.3028 686.339C28.9017 684.938 29.1269 683.633 30.8501 682.538C31.899 682.03 32.9742 681.579 34.071 681.185C37.8878 679.414 41.6888 677.61 45.6667 675.726L46.6009 679.092C48.6301 676.08 47.4867 673.165 48.6462 670.459L51.7217 693.248Z" fill="black"/>
<path d="M270.761 536.919C268.652 545.664 266.574 554.441 263.9 563.025C261.595 569.709 259.977 576.611 259.069 583.623C258.756 587.853 258.148 592.056 257.249 596.201C255.478 603.287 253.143 610.228 252.418 617.572C252.136 618.692 251.72 619.773 251.178 620.793C246.79 618.837 242.183 617.415 237.457 616.557C237.825 617.053 238.328 617.434 238.906 617.652C241.279 618.053 243.613 618.662 245.879 619.472C247.941 620.261 250.985 621.904 249.922 624.609C249.149 626.622 246.781 627.734 244.559 628.362C246.073 628.362 247.587 628.362 249.117 628.249C248.247 633.58 245.783 638.572 244.462 643.87C243.206 648.895 241.676 653.791 240.13 658.558C240.238 658.913 240.227 659.294 240.1 659.643C239.972 659.992 239.734 660.289 239.422 660.491C235.39 662.799 230.884 664.154 226.248 664.452C221.543 664.906 216.817 665.094 212.092 665.016C211.858 665.021 211.626 664.971 211.415 664.871C206.767 665.295 202.144 665.962 197.565 666.868C197.332 666.917 197.09 666.917 196.857 666.868C196.696 666.981 196.503 667.061 196.342 667.174C196.625 667.472 196.979 667.694 197.372 667.818C199.981 668.382 202.654 668.672 205.295 669.026C205.685 669.061 206.075 668.952 206.391 668.72C208.822 666.9 211.737 666.916 214.443 666.787C221.269 666.58 228.04 665.498 234.59 663.566C235.742 663.303 236.909 663.115 238.085 663.003C238.906 667.222 237.327 670.894 237.134 674.663C237.075 674.903 236.932 675.114 236.732 675.258C234.316 674.453 234.799 676.756 234.574 677.626C233.704 680.959 233.173 684.374 232.464 688.03C226.698 688.142 220.981 688.255 215.28 688.384C208.098 688.674 200.867 688.481 193.765 689.656C193.421 689.734 193.061 689.697 192.74 689.551C192.419 689.404 192.156 689.156 191.989 688.846C191.823 688.535 191.762 688.178 191.818 687.83C191.875 687.481 192.043 687.161 192.299 686.918L192.299 686.822C192.269 685.779 192.439 684.741 192.798 683.762C192.871 683.023 192.871 682.279 192.798 681.539C192.748 681.296 192.755 681.044 192.818 680.803C192.881 680.562 192.999 680.34 193.163 680.153C193.327 679.966 193.532 679.819 193.762 679.724C193.992 679.629 194.241 679.589 194.489 679.607C198.26 679.557 202.03 679.805 205.762 680.348C210.297 680.099 214.846 680.407 219.307 681.265C220.323 681.384 221.311 681.684 222.222 682.151C222.991 682.634 223.882 682.891 224.791 682.891C225.699 682.891 226.589 682.634 227.359 682.151C227.971 681.861 228.309 680.976 228.728 680.251C216.988 679.655 205.247 679.317 193.507 678.737C191.075 681.958 192.267 686.596 190.817 690.3C189.529 693.521 186.71 695.792 184.826 698.675C184.917 699.06 185.132 699.406 185.439 699.657C191.881 692.378 203.573 695.824 212.044 693.602C213.815 693.135 215.586 692.652 217.374 692.217C209.434 693.102 201.527 694.375 193.459 693.827C194.522 691.75 196.357 691.653 198.065 691.54C203.83 691.186 209.579 690.8 215.345 690.703C218.334 690.668 221.322 690.786 224.299 691.057C224.541 691.057 224.766 690.977 224.992 690.96C228.213 690.735 232.4 691.154 233.334 694.938C233.422 695.245 233.401 695.574 233.275 695.867C233.148 696.161 232.925 696.401 232.642 696.549L232.561 697.08L232.561 697.322C232.875 697.509 233.117 697.797 233.246 698.14C233.374 698.482 233.383 698.858 233.269 699.206L232.948 700.446C232.748 701.345 232.597 702.253 232.496 703.168C233.012 702.62 233.334 702.443 233.334 702.266C233.511 696.42 236.732 691.347 236.893 685.324C237.134 675.661 239.969 666.385 242.578 657.108C242.693 656.341 243.016 655.619 243.513 655.023C244.01 654.426 244.662 653.978 245.396 653.727C246.83 653.276 247.764 651.987 246.733 650.763C244.946 648.637 245.928 646.625 246.411 644.563C246.813 642.808 247.409 641.116 247.892 639.377C248.955 635.544 249.374 631.325 251.242 627.975C252.513 625.27 253.334 622.376 253.674 619.408C254.511 615.124 255.542 610.872 256.702 606.669C257.523 603.738 258.039 600.678 260.197 598.214C260.745 597.204 260.991 596.058 260.905 594.912C261.211 590.822 261.082 586.65 261.79 582.64C262.805 576.843 264.383 571.126 265.784 565.392C267.588 558.033 269.554 550.705 271.261 543.329C273.242 534.826 274.852 526.242 276.945 517.771C279.039 509.3 281.454 501.199 283.661 492.905C283.838 492.277 283.42 491.472 283.275 490.764C281.217 494.421 279.642 498.329 278.588 502.391C275.979 513.874 273.531 525.437 270.761 536.919ZM235.009 687.096L234.429 687.096L234.783 684.39L235.331 684.293L235.009 687.096Z" fill="black"/>
<path d="M376.15 164.79C372.479 178.302 368.243 191.621 363.959 204.939C363.089 207.629 362.139 210.286 361.14 212.991C360.617 213.835 360.001 214.618 359.305 215.327L359.305 210.012C354.651 214.07 357.211 218.805 356.712 222.992C355.23 223.105 354.956 224.104 354.699 225.424C354.189 228.71 353.387 231.944 352.299 235.087C346.896 248.567 342.755 262.52 339.931 276.766C338.642 283.449 338.031 290.278 336.356 296.864C332.346 312.534 327.868 328.091 323.585 343.681C321.749 350.38 319.977 357.096 318.06 363.763C315.913 371.279 313.68 378.794 311.361 386.31C309.348 392.752 307.126 399.194 305.096 405.764C304.146 408.824 303.615 412.029 302.568 415.057C299.788 422.952 298.213 431.22 297.897 439.584C297.988 440.867 297.72 442.149 297.124 443.288C294.918 446.252 295.772 449.569 295.369 452.822C295.868 452.822 296.287 452.822 296.303 452.661C297.543 448.248 300.361 444.367 300.716 439.665C300.716 439.053 300.957 438.247 300.716 437.813C299.556 436.105 301.859 435.767 301.923 434.592C299.91 433.577 300.458 431.806 300.877 430.276C302.987 422.481 305.225 414.719 307.415 406.94L306.852 413.495C308.822 408.689 310.081 403.622 310.588 398.453C310.89 397.903 311.154 397.332 311.377 396.746C312.633 392.542 313.213 388.21 314.518 383.975C317.562 374.022 319.719 363.812 322.489 353.778C324.905 345.001 327.884 336.385 330.236 327.592C333.457 315.707 337.37 304.015 338.82 291.663C340.008 283.654 341.621 275.714 343.651 267.876C345.696 257.807 349.081 248.057 353.716 238.888C355.533 235.348 357.146 231.708 358.548 227.985C360.609 222.751 362.767 217.517 364.329 212.106C365.279 208.885 367.373 206.082 367.373 202.33C367.373 199.576 368.984 196.741 370.176 194.084C370.916 192.474 372.43 191.089 373.283 189.446C376.585 183.101 377.181 175.95 379.162 169.203C379.331 168.327 379.401 167.436 379.371 166.545C380.289 163.679 381.239 160.796 382.125 157.913C382.222 157.591 382.125 156.947 381.948 156.883C380.241 156.19 381.095 154.918 381.352 153.935C381.932 151.858 382.737 149.829 383.398 147.768C383.897 146.157 384.911 144.627 384.171 142.147C383.689 142.742 383.267 143.384 382.914 144.063C380.563 150.795 378.067 157.736 376.15 164.79ZM371.673 189.511C371.673 189.672 371.367 189.768 370.659 190.348L371.802 188.303C371.788 188.687 371.744 189.069 371.673 189.446L371.673 189.511ZM375.296 178.076L374.347 181.297L373.799 181.136L374.829 177.706L375.296 178.076ZM377.02 171.425C376.924 171.699 376.682 171.908 376.15 171.989C376.44 171.232 376.714 170.475 377.02 169.734C377.02 169.654 377.294 169.637 377.632 169.525C377.39 170.281 377.197 170.862 377.02 171.425ZM379.258 166.336L377.873 166.336L379.661 159.894L379.258 166.336Z" fill="black"/>
<path d="M75.5728 218.433C75.0252 206.355 74.4776 194.276 73.8656 182.214C73.7495 179.774 73.4864 177.343 73.0769 174.935C72.7078 173.656 72.2055 172.42 71.5788 171.247L70.6446 171.247C70.016 172.423 69.5344 173.673 69.2111 174.967C68.3415 182.246 67.2786 189.461 66.8921 196.837C66.0708 213.151 65.5395 229.481 65.008 245.811C64.4927 261.095 64.0417 276.41 63.7357 291.694C63.5102 303.273 63.5426 314.852 63.462 326.432C63.3654 340.684 63.188 354.937 63.1719 369.173C63.1719 375.986 63.4299 382.782 63.5588 389.594C63.8003 401.93 63.9452 414.283 64.2673 426.635C64.7504 445.96 65.3463 465.286 65.8777 484.612C66.6078 509.048 67.365 533.484 68.1488 557.92C68.4225 566.665 68.8089 575.41 69.2276 584.155C69.2276 585.073 68.761 586.393 70.3875 587.021C70.2587 585.556 70.1456 584.09 70.0651 582.625C69.8557 578.703 69.8557 574.774 70.0651 570.852C69.582 559.579 69.1421 548.306 68.7448 537.032C68.2939 523.778 67.9557 510.54 67.5692 497.286C67.1183 482.131 66.6185 466.961 66.1836 451.79C66.0065 445.88 66.0069 439.985 65.8298 434.075C65.4916 422.802 64.9441 411.529 64.7186 400.175C64.5254 389.884 64.7186 379.577 64.7186 369.286C64.7186 353.584 64.6381 337.882 64.7186 322.18C64.7992 310.617 65.0889 299.038 65.3304 287.474C65.47 280.657 65.658 273.844 65.8942 267.037C66.2163 257.664 66.5651 248.286 66.9409 238.902C67.6334 222.331 68.31 205.759 69.1474 189.204C69.3568 185.145 70.1458 181.151 70.6612 177.077C73.4151 192.892 73.9949 208.722 75.1222 224.521C75.5173 222.517 75.6684 220.473 75.5728 218.433Z" fill="black"/>
<path d="M81.8207 566.972C81.5791 563.284 81.3699 559.612 81.2089 555.924C80.146 531.51 79.3567 507.063 78.6642 482.632C78.1918 465.894 77.9399 449.161 77.9077 432.433C77.9077 415.314 78.1654 398.195 78.3426 381.076C78.3426 374.247 78.5999 367.419 78.7609 360.607L79.276 337.464C79.276 337.206 76.9254 253.817 76.8288 253.559C76.2329 258.616 78.4388 346.741 78.3583 351.797C78.4649 352.939 78.2532 354.087 77.7465 355.115C77.2802 355.883 76.9864 356.743 76.8862 357.636C76.7861 358.529 76.8823 359.433 77.167 360.285C77.3938 361.149 77.5337 362.034 77.5853 362.926C77.4082 368.144 77.0379 373.378 76.9413 378.596C76.8124 385.424 76.8123 392.252 76.8446 399.081C76.9573 427.908 76.9408 456.751 77.2951 485.579C77.5045 502.553 78.2775 519.512 78.9056 536.486C79.421 551.399 79.953 566.312 80.6616 581.209C81.134 590.989 81.7669 600.749 82.5614 610.487C83.3344 619.828 84.3655 629.168 85.364 638.493C86.137 645.788 86.9746 653.084 87.9087 660.363C88.0697 661.619 87.9087 663.182 90.3566 663.842C88.3274 658.672 87.989 653.035 87.7475 647.544L87.6185 645.402C87.3128 645.178 87.0963 644.852 87.0067 644.484C84.9167 634.344 83.7949 624.028 83.6568 613.675C83.3508 604.399 83.2058 595.139 82.7226 585.879C82.3683 579.534 82.0944 573.253 81.8207 566.972Z" fill="black"/>
<path d="M432.21 4.7399C429.246 11.5683 426.267 18.3805 423.384 25.2411C422.337 27.7051 421.532 30.2818 420.566 32.7941C418.617 37.7866 416.104 42.4571 414.816 47.836C413.206 54.6805 410.693 61.3154 408.616 68.0632C406.425 75.1815 404.525 82.4125 402.029 89.4181C400.499 93.7019 400.419 98.6463 396.988 102.157C396.896 102.246 396.824 102.354 396.777 102.474C396.73 102.593 396.708 102.721 396.715 102.849C397.278 106.537 394.911 109.42 393.88 112.625C391.078 121.289 387.841 129.825 384.83 138.393C384.728 139.03 384.755 139.682 384.91 140.309L385.715 140.486L392.769 120.887C396.119 121.789 397.294 121.144 397.053 118.165C396.65 112.947 398.518 108.39 400.274 103.671C402.424 98.3187 404.042 92.768 405.105 87.0991C405.816 82.298 406.959 77.5708 408.52 72.9752C408.954 71.6708 409.969 70.5598 410.372 69.2554C412.803 61.5412 414.913 53.7141 417.538 46.0805C421.999 33.0679 426.412 20.0393 433.079 7.9286C433.836 6.5597 434.11 5.36786 432.789 4.20832C432.596 4.41768 432.306 4.53054 432.21 4.7399Z" fill="black"/>
<path d="M84.0916 698.353C82.3043 699.123 80.4766 699.795 78.6162 700.366C77.505 700.801 76.3771 701.204 75.2498 701.622C74.9085 701.754 74.535 701.776 74.1803 701.687C73.8257 701.597 73.5072 701.4 73.2689 701.123C73.0402 700.981 72.8574 700.777 72.7405 700.534C72.6236 700.292 72.5779 700.022 72.6092 699.754C72.8507 697.113 73.1729 694.488 73.4789 691.863C73.3229 691.611 73.2387 691.321 73.2367 691.025C73.2367 675.178 73.833 659.347 74.0584 643.5C73.8169 639.281 73.6234 635.062 73.4301 630.826C73.3496 629.361 73.2531 627.895 73.1887 626.43C73.0599 623.724 72.9634 621.002 72.8828 618.377C72.6735 614.238 72.4638 610.099 72.19 605.96C71.8518 600.63 71.1916 595.299 70.6763 589.968L70.2737 589.968C70.0501 590.729 69.9101 591.512 69.8553 592.303C69.9842 595.895 70.1607 599.486 70.4184 603.078C70.982 610.889 71.7069 618.683 72.19 626.494C72.4477 630.6 72.1906 634.723 72.3678 638.83C73.42 657.316 73.3445 675.85 72.1421 694.327C71.9005 697.902 71.6267 701.316 68.9211 704.328C67.52 705.938 67.1172 708.547 66.6824 710.77C66.5647 711.148 66.5698 711.555 66.6965 711.931C66.8233 712.307 67.0655 712.633 67.3885 712.863C67.7115 713.093 68.0991 713.216 68.4957 713.213C68.8924 713.21 69.2777 713.082 69.5974 712.847C70.7811 712.121 71.7182 711.055 72.2868 709.787C73.1564 707.839 72.9954 705.052 74.3643 703.796C75.7332 702.54 78.616 702.395 80.8062 701.638C82.9964 700.881 83.0287 700.753 84.0916 698.353Z" fill="black"/>
<path d="M0.347656 636.592C4.66371 637.139 8.97976 637.606 13.2314 637.767C19.552 638.207 25.8782 636.997 31.5906 634.257C33.0232 633.465 34.2268 632.316 35.0852 630.923C35.987 629.457 35.2946 628.701 32.7662 627.976C32.8169 628.388 32.8169 628.804 32.7662 629.216C32.8425 629.388 32.8818 629.575 32.8818 629.763C32.8818 629.952 32.8425 630.139 32.7662 630.311C30.9786 635.014 24.9234 636.254 20.5107 636.833C15.4913 637.435 10.4223 637.504 5.38823 637.043C3.69724 636.914 1.95812 636.769 0.347656 636.592Z" fill="black"/>
<path d="M239.84 612.144C240.695 611.864 241.476 611.397 242.127 610.775C242.818 610.29 243.323 609.583 243.557 608.772C243.792 607.96 243.742 607.093 243.416 606.314C242.965 604.929 242.642 603.496 242.256 602.062C238.616 600.935 234.848 599.727 230.983 598.664C230.58 598.568 230.161 598.567 229.758 598.662C229.355 598.757 228.98 598.945 228.664 599.212C232.213 599.105 235.681 600.29 238.423 602.546C238.522 602.653 238.599 602.779 238.649 602.916C238.869 602.9 239.089 602.9 239.309 602.916C241.756 602.916 244.14 605.847 242.529 608.134C241.289 609.889 238.777 610.63 236.845 611.258C234.422 612.008 231.952 612.599 229.452 613.03C227.863 613.383 226.247 613.604 224.621 613.69C224.386 613.679 224.157 613.61 223.955 613.489C223.753 613.368 223.583 613.199 223.462 612.997C222.509 612.924 221.562 612.79 220.627 612.595C220.957 613.459 221.59 614.173 222.408 614.606C223.226 615.038 224.172 615.159 225.072 614.946C230.049 614.109 234.944 613.142 239.84 612.144Z" fill="black"/>
<path d="M293.614 456.589C290.941 463.965 288.267 471.326 285.674 478.718C284.552 482.03 283.902 485.483 283.742 488.976L284.483 489.057C286.464 483.243 288.509 477.461 290.409 471.631C292.309 465.801 294.934 460.358 295.337 454.254C294.548 454.848 293.949 455.66 293.614 456.589Z" fill="black"/>
<path d="M75.3945 228.645L75.3945 248.502C76.699 244.202 76.3447 231.431 75.3945 228.645Z" fill="black"/>
<path d="M422.95 19.5257L421.34 24.6146C421.63 24.7113 421.92 24.792 422.21 24.8887L423.82 19.7993C423.514 19.7027 423.24 19.6062 422.95 19.5257Z" fill="black"/>
<path d="M430.922 1.01928C432.532 1.56684 433.321 3.00031 435.189 1.18049C433.676 1.13217 432.838 -0.269093 430.922 1.01928Z" fill="black"/>
<path d="M361.35 228.096L362.042 224.73L361.14 224.569L360.625 227.967L361.35 228.096Z" fill="black"/>
<path d="M421.726 7.72049C421.163 7.96206 420.68 8.01047 420.6 8.21983C420.535 8.66302 420.535 9.11345 420.6 9.55664C421.018 9.44391 421.614 9.47616 421.807 9.20238C422.001 8.92861 421.759 8.36467 421.726 7.72049Z" fill="black"/>
<path d="M351.204 261.738L351.881 260.128L351.333 259.919L350.754 261.529L351.204 261.738Z" fill="black"/>
<path d="M304.08 424.977L304.644 423.366L304.064 423.173L303.549 424.783L304.08 424.977Z" fill="black"/>
</svg>
