<svg width="596" height="111" viewBox="0 0 596 111" fill="none" xmlns="http://www.w3.org/2000/svg">
<path d="M7.81667 0.349609C10.1434 6.09668 15.262 7.14372 20.3343 7.91155C26.4304 8.84225 32.5728 9.23844 38.7154 9.72705C40.2202 9.70039 41.7176 9.51264 43.1826 9.16809C42.9965 7.81857 42.7875 6.46906 42.485 4.51458C43.6019 4.28191 45.2997 3.32835 46.4398 3.77043C53.0478 6.26006 59.6101 8.88924 65.9854 11.8675C72.9657 15.1249 74.2455 24.3622 71.8955 29.3647C68.5682 36.4846 70.895 42.2782 74.2222 47.9787C80.2485 58.3095 89.8108 63.9864 100.909 67.9651C115.18 72.787 129.861 76.3 144.769 78.4594C157.543 80.5767 170.363 82.3221 183.323 83.4855C206.288 85.5796 229.067 85.16 250.799 75.6668C252.942 74.3949 254.96 72.9233 256.826 71.2701C264.411 65.9185 271.832 60.8452 282.163 63.2651C294.407 66.1959 305.82 71.8871 315.529 79.9022C326.217 88.2579 339.211 93.131 352.758 93.8627C368.96 95.3645 385.298 94.3202 401.177 90.768C403.271 90.2794 405.365 89.4413 407.459 89.1388C407.273 91.6517 395.499 93.1878 392.963 93.6764C387.038 94.8234 381.046 95.6005 375.024 96.0032C353.665 97.3527 330.467 95.0725 313.086 81.5076C304.026 74.4139 293.628 69.2222 282.513 66.2439C275.835 64.4291 269.623 66.8718 263.899 70.5714C251.713 78.2311 237.967 83.0651 223.669 84.7182C208.484 86.7418 193.099 86.7889 177.901 84.8579C156.286 82.345 134.787 78.4362 113.358 74.4807C105.482 72.8304 97.7958 70.3822 90.4163 67.1744C86.1087 65.1581 82.1375 62.49 78.6428 59.2637C74.8688 56.1689 71.4575 52.6564 68.4747 48.7933C66.686 46.1905 65.6034 43.168 65.3333 40.0214C64.6117 35.7722 64.9396 31.4112 66.2877 27.3174C69.0099 20.3372 66.9628 17.5683 59.68 15.102C56.8181 14.1247 54.1887 12.5186 51.3501 11.4948C50.0247 10.8457 48.5007 10.73 47.092 11.1699C41.6706 14.6135 35.9463 13.3796 30.2457 12.7048C25.9878 12.1929 21.7531 11.1925 17.4952 11.0995C9.6075 10.9366 5.02434 5.95726 0.603516 0.535931L7.81667 0.349609Z" fill="black"/>
<path d="M371.464 0.603516C376.257 1.27827 381.375 5.60621 385.563 7.77009C389.752 9.93397 393.661 12.0741 395.685 15.983C398.966 22.3351 394.778 29.3386 390.567 34.0619C387.606 37.2389 384.963 40.699 382.679 44.3926C378.328 51.7916 381.771 59.0511 390.148 59.5164C398.524 59.9818 406.784 59.516 415.091 59.0972C416.244 59.0323 417.394 59.2637 418.432 59.7687C419.471 60.2736 420.363 61.036 421.024 61.9829C423.066 64.1685 425.652 65.7741 428.516 66.6364C437.451 69.3587 446.199 67.009 454.506 64.0075C461.317 61.2074 467.959 58.0136 474.399 54.4437C485.819 48.3483 499.138 46.8504 511.627 50.256C514.319 50.8895 516.975 51.6662 519.585 52.5828C524.452 54.5612 528.618 57.9481 531.549 62.309C534.48 66.6699 536.042 71.8061 536.035 77.0602C536.178 77.79 536.492 78.4746 536.953 79.0575C537.415 79.6405 538.009 80.1047 538.687 80.4106C546.342 82.5512 554.067 81.5278 561.955 80.7833C569.15 79.9165 576.393 79.4885 583.641 79.5029C585.173 79.4528 586.699 79.7129 588.128 80.2663C589.558 80.8198 590.861 81.6551 591.96 82.7237C593.059 83.7924 593.932 85.0719 594.526 86.4854C595.119 87.8989 595.421 89.4185 595.414 90.9514C594.809 107.634 578.103 111.566 564.165 110.798C559.07 110.519 554.021 109.774 548.948 109.216C545.365 108.843 536.896 110.147 534.406 107.261C539.246 107.657 544.062 108.309 548.902 108.402C558.127 108.86 567.371 108.805 576.59 108.238C588.619 107.075 591.761 99.8164 591.691 88.6713C591.691 84.5995 588.968 82.6217 585.269 81.691C578.056 79.8296 570.959 81.1556 563.746 82.0398C555.716 82.9976 547.636 83.4796 539.548 83.4827C534.173 83.4827 533.08 81.3649 532.801 76.0366C532.126 63.9142 527.007 54.9099 513.698 52.3737C505.508 50.7915 497.248 48.4413 489.081 50.9774C482.955 53.194 477.024 55.918 471.351 59.1211C460.369 64.7053 449.107 69.6377 436.752 70.4753C428.957 71.0105 421.163 69.7539 416.23 62.1454C415.672 61.2845 413.695 60.9827 412.392 61.0525C403.643 61.5178 382.144 67.0091 377.723 55.3753C375.908 50.5822 378.979 45.4394 381.911 41.2512L389.217 30.8047C391.544 27.4309 394.033 23.6149 393.451 19.5663C392.73 14.7034 387.983 11.585 383.47 9.65376C379.817 8.09484 371.022 5.62884 370.766 0.719399L371.464 0.603516Z" fill="black"/>
<path d="M420.512 85.3896C424.604 83.8193 428.857 82.7031 433.193 82.0619C437.67 81.0441 442.198 80.2674 446.758 79.7352C455.103 78.761 463.56 79.7659 471.445 82.6675C480.264 85.608 488.896 89.0806 497.295 93.0674C505.089 96.8368 513.861 99.6297 522.354 97.9777C520.283 98.3965 516.561 96.791 514.513 96.2326C511.838 95.5113 509.184 94.673 506.555 93.7888C501.25 91.9507 496.062 89.8565 490.873 87.7856C480.682 83.6906 470.281 79.4327 459.322 78.0367C445.928 76.0869 432.265 78.6755 420.512 85.3896Z" fill="black"/>
</svg>
