<svg width="172" height="268" viewBox="0 0 172 268" fill="none" xmlns="http://www.w3.org/2000/svg">
<path d="M157.697 11.7253C158.812 11.4689 159.402 9.95261 160.908 10.5101C161.443 12.7402 159.024 13.5878 158.734 15.4499C162.324 17.4681 165.602 14.892 169.46 14.5129C166.439 17.0105 163.361 18.5496 159.971 18.2151C156.013 17.8137 153.794 19.9656 151.631 22.5413C149.657 24.894 147.762 27.3023 145.811 29.655C145.294 30.2699 144.727 30.8408 144.116 31.3613C143.715 31.7181 143.179 31.9852 142.733 31.4723C142.287 30.9594 142.577 30.4688 142.923 30.0562C146.067 26.4436 149.167 22.7863 152.378 19.2517C152.843 18.8178 153.15 18.2425 153.253 17.6151C153.356 16.9877 153.249 16.3438 152.947 15.7842C152.122 13.3646 150.092 14.3013 148.665 13.7327C147.238 13.164 146.702 14.5909 146.111 15.6279C144.864 18.0251 143.921 20.5684 143.302 23.1989C145.755 21.794 146.747 19.6534 148.464 18.3822C149.646 19.0959 149.033 19.843 148.587 20.4005C147.356 21.9783 146.043 23.4895 144.651 24.9276C140.916 28.6071 140.57 33.4125 140.068 38.1848C139.878 39.9911 140.068 41.8982 138.106 43.5595C137.069 40.5267 139.109 37.8838 138.184 34.9067C132.475 43.3586 129.263 52.7474 125.205 61.7456C140.469 50.0044 153.649 36.245 165.97 21.5155C165.358 23.9225 164.087 26.1115 162.301 27.8376C158.399 32.0227 154.519 36.2224 150.661 40.4372C144.738 46.7443 138.489 52.7366 131.939 58.3891C129.297 60.7195 126.677 63.0945 124.224 65.6591C128.282 64.2319 131.672 61.6895 135.374 59.6713C136.422 59.1138 137.291 58.1999 138.585 58.1888C138.139 59.5937 136.868 60.1288 135.764 60.8201C131.694 63.3512 127.703 66.0272 123.499 68.3465C120.232 70.164 119.685 72.695 120.533 76.5975C124.642 72.2877 129.207 68.437 134.147 65.113C130.902 69.2609 126.576 72.2268 122.997 75.9398C121.793 77.1775 120.678 78.5488 118.537 77.7126C117.355 77.2554 116.887 78.4598 116.53 79.2403C114.923 82.445 113.558 85.7656 112.449 89.1747C111.724 91.862 109.806 94.2705 110.052 97.3926C118.648 92.5088 153.961 53.2715 155.344 46.9716C153.504 48.5884 151.687 49.8817 149.925 51.2977C146.446 54.0853 142.945 56.9732 138.507 58.2666C140.001 55.9251 142.644 55.0665 144.762 53.5501C150.211 49.698 155.291 45.3495 159.938 40.5602C162.469 37.8953 163.818 34.5055 165.859 31.5507C166.956 29.7172 168.226 27.9922 169.65 26.3992C169.842 26.2057 170.091 26.0803 170.361 26.042C170.631 26.0038 170.906 26.0549 171.144 26.1874C171.724 26.5108 171.612 27.124 171.345 27.5812C169.494 30.614 168.557 34.2044 165.491 36.5014C162.893 38.4638 161.655 41.6193 160.005 44.3065C154.24 53.5389 147.015 61.5557 139.935 69.7511C134.727 75.8057 129.275 81.6373 123.644 87.3127C122.546 88.2084 121.682 89.356 121.124 90.6578C121.403 90.8251 121.559 90.9815 121.615 90.948C126.911 87.8817 132.286 84.8266 136.288 80.0989C142.332 72.9739 148.119 65.6034 153.437 57.9432C153.984 57.1404 154.352 55.5457 155.667 56.3039C156.983 57.0621 155.891 58.1995 155.567 59.1584C155.03 60.3793 154.303 61.5081 153.415 62.5035C146.257 72.1707 137.938 80.8236 129.709 89.5542C123.856 95.7649 118.158 102.132 112.382 108.42C111.294 109.776 109.991 110.944 108.524 111.877C108.669 110.271 109.862 109.324 110.832 108.253C114.066 104.685 117.355 101.172 120.544 97.5821C122.707 95.1736 124.748 92.6538 126.844 90.1896L126.32 89.5874C121.012 93.858 114.791 96.6235 109.249 100.493C108.429 100.966 107.78 101.688 107.398 102.555C105.717 107.319 103.793 111.993 101.633 116.56C104.622 115.11 105.926 112.423 108.625 111.765C108.19 112.702 107.275 113.382 107.108 114.642C109.438 114.375 110.631 111.788 113.029 111.922C111.033 114.698 107.933 116.114 105.168 117.798C100.072 120.898 97.1285 125.235 95.8128 131.579C98.645 129.115 101.009 127.008 103.428 124.967C104.733 123.852 105.77 122.347 107.71 122.224C104.554 126.227 100.496 129.316 96.7716 132.705C94.3946 134.851 92.6614 137.615 91.7654 140.689C91.1967 142.562 90.5614 144.425 89.7139 147.045C100.53 139.73 109.963 131.758 119.663 124.165C129.364 116.571 137.559 107.439 146.178 98.2626C146.326 98.4726 146.431 98.7096 146.486 98.9601C146.542 99.2105 146.548 99.4696 146.503 99.7223C146.459 99.975 146.365 100.216 146.227 100.433C146.089 100.649 145.91 100.836 145.699 100.983C139.087 107.952 132.564 114.988 125.216 121.221C116.787 128.368 107.888 134.902 99.2804 141.815C96.0691 144.402 92.8694 147 89.647 149.621C89.0337 150.122 88.1975 150.457 88.0191 151.304C86.2573 159.455 81.6633 166.424 78.6192 174.04C78.5412 174.24 78.6191 174.53 78.7194 175.155C81.2335 174.039 83.622 172.66 85.8446 171.04C97.1843 163.235 107.632 154.259 118.236 145.506C122.116 142.294 125.361 138.314 128.907 134.69C129.464 134.122 130.189 133.575 130.022 132.705C129.699 130.475 131.728 131.312 132.598 130.085C133.356 132.583 131.873 133.642 130.925 134.757C126.627 139.675 121.939 144.239 116.909 148.405C113.965 150.925 110.799 153.177 107.989 155.797C106.651 157.046 108.546 156.544 108.937 156.912C108.58 157.894 107.621 158.15 106.851 158.63C103.685 160.581 100.429 162.388 97.4075 164.54C90.3717 169.535 83.4917 174.764 76.4447 179.748C75.5979 180.258 74.8749 180.95 74.3274 181.773C73.7798 182.597 73.4215 183.531 73.2782 184.509C73.2002 185.167 73.3341 185.937 72.5759 186.193C70.5466 186.873 69.8775 189.081 68.1158 190.029L67.7031 189.672C67.9054 188.894 68.2054 188.145 68.5955 187.442C70.0784 185.379 70.2901 183.105 70.3235 180.64C70.3256 177.433 70.6316 174.234 71.2377 171.085C74.159 157.047 73.5348 142.941 72.2525 128.825C71.6392 122.135 71.5388 115.501 71.5611 108.844C71.5611 106.525 70.301 104.128 72.0516 101.195C73.2447 105.923 72.6761 110.238 72.9772 114.453C73.2782 118.668 73.4788 122.983 73.7018 127.253C73.9248 131.524 74.226 136.028 74.3486 140.433C74.4713 144.837 74.3487 149.23 74.4602 153.634C74.5159 157.907 74.1836 162.177 73.4677 166.39C72.7875 170.638 71.6614 174.809 72.4196 179.169C74.8169 170.037 74.7615 160.581 76.4006 151.293C77.0027 158.953 74.9399 166.524 75.1963 174.709C78.3853 171.542 78.9872 167.572 80.827 164.272C81.273 163.469 81.4402 162.51 81.875 161.685C83.8274 158.068 84.6067 153.934 84.1051 149.855C83.4361 143.778 84.0381 137.589 83.7817 131.445C83.1956 120.783 81.9821 110.165 80.147 99.645C79.288 95.0463 78.888 90.374 78.9535 85.6963C78.9535 84.86 78.6082 83.4662 79.8236 83.4662C81.0389 83.4662 80.8607 84.7928 80.7938 85.6179C80.5295 90.6886 80.8773 95.7727 81.8304 100.76C83.4866 110.767 84.5776 120.859 85.0976 130.988C85.3652 136.329 85.4432 141.67 85.6328 147C85.5543 147.454 85.5702 147.918 85.6796 148.365C85.789 148.812 85.9892 149.232 86.2681 149.598C86.112 145.339 86.8368 141.592 87.3832 136.965C88.4982 139.619 87.4726 141.626 88.1639 143.778C91.509 137.088 93.8395 130.554 93.5719 123.284C93.5345 117.811 93.8322 112.341 94.4637 106.904C94.7573 104.108 94.7273 101.286 94.3744 98.4967C94.5539 98.2732 94.6848 98.0147 94.7588 97.7378C94.8328 97.4608 94.8486 97.1712 94.8045 96.8879C94.7604 96.6046 94.6575 96.3339 94.5029 96.0925C94.3482 95.8511 94.1451 95.6444 93.9062 95.486C94.118 96.7013 94.2855 97.6271 94.4528 98.5637C93.298 100.648 92.6236 102.964 92.4792 105.343C92.1224 109.312 92.0775 113.326 91.6315 117.296C91.2427 119.908 90.6881 122.493 89.9704 125.034C89.9082 125.366 89.726 125.663 89.4586 125.869C89.1912 126.074 88.857 126.174 88.5205 126.149C88.1887 126.092 87.8906 125.912 87.6842 125.646C87.4779 125.38 87.3783 125.046 87.4055 124.711C87.3888 123.78 87.4227 122.85 87.5062 121.923C87.9717 115.942 87.5167 109.925 86.1571 104.083C84.1723 96.0434 83.9268 87.77 83.1463 79.5522C83.0459 78.3592 83.3134 77.322 84.6403 77.1659C86.1344 77.0321 86.1455 78.281 86.2905 79.396C87.7065 89.4312 89.4685 99.3772 89.8588 109.502C91.141 104.127 90.9735 98.6417 90.9177 93.1781C90.9177 88.718 89.1002 84.3358 90.9177 79.9203C89.6466 74.7577 90.4049 69.3163 88.8216 64.176C88.4313 62.9049 87.3052 60.6971 88.8216 60.2511C90.8955 59.6602 90.6055 62.2916 91.1965 63.5962C93.1143 67.8333 93.0139 72.4495 93.4265 76.9765C93.5455 80.2973 93.9677 83.6004 94.6869 86.8445C96.0628 92.5637 96.5182 98.4658 96.036 104.328C95.6904 110.048 95.8685 115.757 95.7235 121.488C95.7235 122.603 95.0768 123.718 95.7235 124.833C97.4183 123.718 95.5897 122.603 95.7235 121.488C97.5522 121.889 98.0096 120.473 98.5225 119.258C99.8494 116.192 101.031 113.07 102.38 110.026C103.128 108.376 102.28 106.96 102.325 104.986C100.474 106.101 100.987 107.461 100.942 108.654C100.942 109.167 100.831 109.769 100.073 109.68C99.9345 109.679 99.7981 109.648 99.6735 109.589C99.5488 109.53 99.4387 109.444 99.3506 109.338C99.2625 109.232 99.1985 109.107 99.1633 108.974C99.1281 108.841 99.1226 108.701 99.147 108.565C99.3164 106.175 99.6214 103.796 100.061 101.44C102.503 90.3567 101.176 79.3962 98.8791 68.5136C97.798 63.4842 97.053 58.3883 96.6491 53.2599C97.1458 53.6287 97.5505 54.1078 97.8311 54.6591C98.1116 55.2105 98.2605 55.8192 98.2661 56.4378C99.2919 64.1092 101.422 71.5913 102.236 79.3072C102.983 86.4657 103.529 93.6129 101.878 100.727C101.878 100.927 102.057 101.195 102.146 101.451C106.707 101.195 107.175 97.4263 108.368 94.2708C108.58 93.6909 108.513 93.2116 107.878 93.0109C105.413 92.2192 105.87 90.3236 105.982 88.4169C106.516 81.3652 106.516 74.2832 105.982 67.2315C105.804 65.3471 106.161 63.117 103.953 61.9128C103.804 61.7928 103.686 61.6392 103.609 61.4647C103.531 61.2902 103.496 61.1 103.506 60.9094C103.562 60.508 103.038 59.9503 103.74 59.6827C103.74 60.2068 103.741 60.7418 104.934 61.199C104.354 54.5758 101.934 48.1868 104.175 41.7531C105.491 55.0776 108.87 68.1678 108.234 81.693C109.706 76.3743 109.695 70.8996 110.375 65.5252C111.323 57.9542 111.022 50.3277 111.033 42.7233C110.915 38.1876 111.162 33.6499 111.769 29.1535C112.382 25.2956 112.538 25.0945 117.021 24.0575C115.816 30.9372 116.921 37.672 117.378 45.243C118.281 44.0576 118.864 42.6604 119.072 41.1847C119.206 40.538 119.162 39.5786 119.563 39.3221C122.038 37.6719 121.425 35.1854 121.592 32.8661C121.836 28.3205 122.372 23.7954 123.198 19.3187C123.337 21.2898 123.337 23.2684 123.198 25.2395C122.328 31.3498 122.696 37.505 122.718 43.6042C122.718 44.7192 122.384 46.4136 123.677 46.8039C124.971 47.1941 126.599 46.9378 126.699 44.0833C127.513 46.3802 126.821 47.8971 127.758 49.5027C128.873 47.1389 129.988 45.0421 130.936 42.879C131.164 42.4 131.227 41.8589 131.115 41.3404C129.598 35.8656 130.301 30.1902 129.609 24.615C129.639 24.0433 129.471 23.4788 129.134 23.016C128.797 22.5532 128.311 22.2205 127.758 22.073C124.123 20.6904 122.986 14.4238 125.662 11.6028C125.828 11.3915 126.059 11.2417 126.32 11.1771C126.58 11.1124 126.855 11.1368 127.1 11.2462C127.339 11.3625 127.531 11.5553 127.646 11.7939C127.761 12.0325 127.793 12.3028 127.736 12.5616C127.48 14.2578 127.313 15.9664 127.234 17.6799C127.234 18.5831 127.468 19.7648 128.684 19.6867C129.899 19.6087 129.476 18.4937 129.554 17.7578C129.844 15.1152 130.067 12.4501 130.368 9.79635C130.501 8.68133 130.747 7.47704 132.954 7.22058C131.505 10.666 131.482 13.9107 131.382 17.2558C131.326 19.2963 132.698 18.2374 133.434 18.5385C133.869 19.5197 133.099 19.9992 132.598 20.5568C132.231 20.8418 131.927 21.2003 131.706 21.6092C131.486 22.0181 131.353 22.4684 131.315 22.9316C131.416 28.2168 131.315 33.5243 132.431 39.0995C133.05 38.7382 133.59 38.2559 134.019 37.6812C134.448 37.1065 134.758 36.4511 134.928 35.7544C135.72 33.6135 135.876 31.2939 138.496 30.1009C139.734 29.5434 139.968 27.637 140.291 26.2097C141.272 21.7496 143.268 17.6684 144.751 13.3755C144.93 12.8738 145.164 12.3948 145.342 11.893C145.61 11.1348 145.956 10.2093 145.186 9.66296C145.003 9.51513 144.79 9.40848 144.561 9.35045C144.333 9.29243 144.095 9.28417 143.863 9.3265C143.631 9.36882 143.411 9.46046 143.218 9.59545C143.025 9.73044 142.864 9.90573 142.744 10.1089C142.521 10.4434 142.332 10.7442 141.897 10.7442C140.202 6.22839 140.38 2.20342 142.487 0.140625C143.034 1.93581 141.997 3.94263 143.525 5.49252C144.049 6.02773 144.183 6.98641 145.209 6.91951C145.682 6.93579 146.146 6.7915 146.527 6.51008C146.907 6.22867 147.182 5.82709 147.305 5.37002C147.517 4.6118 147.605 3.80861 147.806 3.03925C147.918 2.64899 148.52 2.21459 148.62 2.39299C149.847 4.38888 151.107 2.77199 152.389 2.56014C153.672 2.34828 153.961 3.31846 153.638 4.34428C153.002 6.34017 151.854 8.23547 152.445 10.5101C153.738 10.9561 154.831 10.2316 155.979 10.1758C157.306 10.0978 157.451 11.0342 157.786 11.8816C157.462 11.8288 157.13 11.8833 156.841 12.0362C156.551 12.1891 156.319 12.4325 156.18 12.7293C155.868 13.1641 155.533 13.7551 156.024 14.1231C156.927 14.8032 157.072 13.8329 157.318 13.32C157.49 12.8005 157.617 12.2668 157.697 11.7253ZM116.341 69.9744C117.191 69.7326 117.936 69.212 118.456 68.4962C118.975 67.7804 119.24 66.911 119.206 66.0271C119.206 65.4919 118.961 64.7227 119.897 64.4662C122.44 63.7749 122.719 61.2324 122.819 59.5041C122.997 56.6385 122.15 53.7174 121.704 50.8295C121.514 49.5695 120.801 49.0565 119.474 49.3018C116.508 49.8482 116.128 49.6251 115.448 46.9825C115.169 45.8674 115.181 44.5966 114.969 43.4147C114.267 39.4898 115.136 35.4419 113.854 31.5616C112.795 44.4178 111.535 57.2743 116.341 69.9744ZM116.106 74.4345C112.037 76.6645 109.584 79.0397 109.807 83.2768C109.799 84.3383 109.595 85.389 109.205 86.3763C108.774 87.6765 108.838 89.0895 109.383 90.3458C111.3 85.1833 113.932 80.3216 116.106 74.49V74.4345ZM110.643 75.2484C115.326 72.0037 115.527 70.409 112.137 65.2687C110.788 68.4688 111.535 71.8697 110.698 75.3039L110.643 75.2484ZM125.339 49.2795C122.897 51.0858 122.852 51.4205 124.614 54.7544C124.748 52.9258 125.996 51.2752 125.339 49.335V49.2795Z" fill="black"/>
<path d="M84.8854 184.553C81.2058 188.311 76.4892 190.608 71.9733 193.039C66.7773 195.837 62.4177 199.294 59.842 204.568C57.612 209.028 54.3891 212.685 51.334 216.487C49.3277 219.213 47.7906 222.254 46.7851 225.485C49.0152 226.601 50.7658 225.062 52.706 224.973C53.2189 226.734 54.8134 226.311 56.051 226.612C59.2728 227.218 62.3608 228.392 65.1716 230.08C64.313 231.373 63.5324 230.815 62.8523 230.548C57.9189 228.504 52.5187 227.856 47.2419 228.675C45.5825 228.827 43.9957 229.426 42.649 230.407C41.3023 231.389 40.2462 232.717 39.593 234.25C47.1975 233.637 54.2667 233.826 61.8935 236.692C58.0801 237.483 55.2703 236.346 52.4604 236.023C47.9691 235.589 43.4376 236.157 39.1918 237.684C38.8127 237.818 38.4447 237.996 38.0768 238.108C34.9416 239.07 32.0223 240.63 29.48 242.702C26.4583 245.467 22.8567 247.597 20.4928 251.142C19.6677 252.38 18.0287 253.138 16.6572 253.93C12.5428 256.316 9.96716 260.408 6.43254 263.341C4.69311 264.746 2.88662 266.073 0.701172 267.745C0.924176 264.668 1.66003 262.449 3.70052 260.698C10.0673 255.234 16.367 249.715 22.7338 244.263C23.6144 243.665 24.258 242.777 24.5517 241.754C25.838 236.142 25.8186 230.309 24.4956 224.705C24.0866 222.594 22.9406 220.697 21.2621 219.353C20.0356 221.471 21.8643 223.401 21.0503 225.609C19.1548 222.866 19.5785 219.665 18.5862 216.9C18.1959 215.785 19.3774 215.004 20.6709 215.305C21.6954 215.633 22.5874 216.282 23.2134 217.157C25.6051 219.888 27.0246 223.334 27.2499 226.958C27.6488 231.296 27.5101 235.666 26.8372 239.97C29.6094 238.029 32.1564 235.785 34.4306 233.28C40.0057 226.98 45.9373 221.015 50.7988 214.135C51.7354 212.808 52.3156 211.905 51.5017 209.954C50.487 207.545 50.9219 204.691 51.5017 202.059C52.9436 195.678 53.5841 189.142 53.4083 182.602C53.2522 176.079 54.7799 169.567 54.0551 163.044C53.4419 157.469 54.1105 151.894 54.2331 146.319C54.2331 144.022 54.8801 141.859 55.0362 139.573C55.0216 139.18 55.154 138.796 55.4075 138.495C55.6611 138.194 56.0176 137.998 56.4077 137.945C57.1101 138.492 56.9651 139.172 56.8759 139.807C55.471 150.958 56.0621 162.108 55.4266 173.191C54.936 181.821 55.605 190.552 53.5422 199.048C52.8838 201.76 52.554 204.542 52.5606 207.333C52.529 208.237 52.7956 209.127 53.319 209.864C55.6829 208.136 56.898 205.65 58.3698 203.397C61.057 199.272 63.6775 195.09 66.3759 190.954C66.7892 190.444 67.2565 189.98 67.7697 189.571L68.1824 189.928C68.4054 190.965 67.0672 191.756 67.725 192.994C69.2526 192.793 70.3118 191.734 71.4937 190.964C74.6046 188.935 77.6821 186.883 80.7596 184.809C81.9217 183.923 83.3002 183.365 84.7514 183.193L84.8854 184.553Z" fill="black"/>
<path d="M67.2122 161.865C67.1939 169.993 66.3155 178.096 64.5918 186.039C63.4099 191 61.0013 195.505 59.1615 200.211C58.9608 200.723 58.7044 201.237 58.0465 201.17C57.2102 201.092 56.9873 200.378 57.0208 199.72C57.1434 197.189 57.1659 194.636 57.5227 192.138C59.6078 177.453 61.0013 162.735 60.5553 147.894C60.4811 141.348 61.0639 134.811 62.2948 128.381C62.5401 126.92 62.5517 125.203 63.8339 124.055C64.7483 124.623 64.5138 125.315 64.38 125.917C62.0496 136.119 61.6707 146.477 61.7487 156.892C61.8268 166.782 60.6338 176.572 59.3738 186.362C58.9947 189.518 58.749 192.707 58.4145 196.175C59.9867 195.65 60.2435 194.379 60.723 193.275C63.3239 186.975 64.9084 180.303 65.4172 173.506C65.7405 170.049 66.599 166.66 66.3983 163.158C66.3965 162.89 66.478 162.628 66.6318 162.408C66.7857 162.188 67.0042 162.022 67.2569 161.932L67.2122 161.865Z" fill="black"/>
<path d="M85.186 162.219C85.1333 161.961 85.1559 161.694 85.2508 161.449C85.3457 161.204 85.5088 160.991 85.7212 160.836C89.6934 157.267 93.9191 153.992 98.3654 151.035C107.798 145.17 116.206 138.056 124.434 130.63C129.809 125.835 134.885 120.715 139.633 115.299C140.045 114.819 140.536 114.128 141.238 114.808C141.941 115.488 141.316 116.068 140.87 116.514C136.365 121.041 131.842 125.557 127.3 130.062C124.992 132.37 121.87 133.92 120.61 137.242C120.454 137.655 119.807 137.922 119.339 138.157C111.534 142.171 105.412 148.393 98.4432 153.5C94.6856 156.254 91.006 159.074 87.293 161.94C86.624 162.453 85.9888 162.877 85.186 162.219Z" fill="black"/>
<path d="M50.6429 160.447C51.39 163.647 50.4756 165.821 50.2749 168.04C49.703 173.738 49.476 179.465 49.5949 185.19C49.6788 193.178 48.8293 201.148 47.0637 208.939C46.3613 212.452 45.0229 215.786 44.5212 219.32C44.4366 219.847 44.2633 220.357 44.0083 220.826C43.1609 222.431 40.2729 223.702 39.7823 222.699C39.5212 222.02 39.459 221.281 39.6032 220.568C39.7474 219.855 40.0919 219.198 40.5963 218.673C43.2166 216.198 43.841 213.009 44.733 209.82C47.8104 198.96 47.8443 187.765 48.5245 176.626C48.7677 171.182 49.4763 165.77 50.6429 160.447Z" fill="black"/>
<path d="M108.769 121.197C108.59 119.681 109.883 119.212 110.753 118.465C115.213 114.629 119.673 110.872 123.989 106.947C125.104 105.944 126.743 105.152 126.754 103.245C126.909 103.219 127.059 103.17 127.2 103.1C129.095 102.721 129.831 101.272 130.4 99.6551C131.515 97.7373 133.645 96.9567 135.261 95.6632C139.253 92.5586 143.017 89.171 146.523 85.5273C146.873 85.1343 147.245 84.762 147.638 84.4123C148.173 83.9551 148.876 83.5876 149.367 84.2566C149.857 84.9256 149.077 85.3717 148.631 85.762C137.614 96.9122 125.728 107.203 113.953 117.584C112.478 119.116 110.716 120.343 108.769 121.197Z" fill="black"/>
<path d="M92.3778 189.751C92.3778 190.866 91.6088 191.357 90.7836 191.836C81.016 197.579 72.0513 204.503 62.6516 210.792C62.2056 211.093 61.7373 211.505 61.2579 211.07C60.5219 210.412 61.1239 209.866 61.6368 209.476C63.0597 208.278 64.5487 207.161 66.0969 206.131C74.5791 201.101 82.6777 195.451 90.3263 189.227C90.628 188.872 91.0042 188.588 91.4283 188.395C91.8523 188.203 92.3138 188.106 92.7796 188.112L92.3778 189.751Z" fill="black"/>
<path d="M163.751 19.7324C163.751 20.9255 163.473 21.3604 163.049 21.6837C157.797 25.7535 152.567 29.8459 147.271 33.8488C146.187 34.6157 145.001 35.2273 143.748 35.6661C143.564 35.7495 143.362 35.7888 143.16 35.781C142.958 35.7732 142.76 35.7183 142.583 35.6209C142.405 35.5236 142.253 35.3866 142.138 35.2202C142.023 35.0539 141.948 34.863 141.919 34.6627C141.718 33.8265 142.276 33.4139 143.034 33.3136C148.442 32.5331 151.665 28.3069 155.623 25.2852C158.167 23.2028 160.886 21.3449 163.751 19.7324Z" fill="black"/>
<path d="M113.977 160.113C117.244 155.452 121.782 151.985 125.528 147.759C126.275 146.9 127.569 146.354 127.011 144.849C128.282 143.042 130.356 142.262 132.029 140.98C133.679 139.687 135.458 138.566 137.337 137.635C137.337 138.828 136.5 139.43 135.776 140.021C128.829 145.596 122.841 152.219 116.608 158.563C115.85 159.366 115.237 160.225 113.977 160.113Z" fill="black"/>
<path d="M84.6963 183.195C84.6963 182.236 85.3873 181.846 86.0786 181.444C92.3703 177.566 98.3906 173.263 104.098 168.566C104.8 168.02 105.391 167.195 106.45 167.262C106.316 168.789 104.309 169.001 104.153 170.507C103.908 170.964 103.763 171.621 103.384 171.822C96.6937 175.312 91.1187 180.352 84.8858 184.555L84.6963 183.195Z" fill="black"/>
<path d="M95.9355 185.779C98.3774 182.434 101.901 180.204 104.934 177.539C108.093 174.895 110.943 171.903 113.431 168.619C114.055 167.738 114.78 166.913 114.189 165.731C114.846 164.917 115.727 164.46 116.553 165.218C117.378 165.977 116.653 166.657 116.207 167.315C112.057 173.143 106.975 178.248 101.165 182.423C99.5487 183.639 98.2325 185.512 95.9355 185.779Z" fill="black"/>
<path d="M99.1465 197.41C99.4364 195.403 101.176 194.689 102.592 193.831C105.619 191.875 108.453 189.635 111.055 187.14C111.891 186.393 113.129 185.568 112.493 184.197C111.969 183.082 110.665 183.316 109.628 183.238C108.825 183.238 108.033 183.238 107.23 183.238C109.683 182.201 112.75 181.565 114.065 183.918C115.113 185.802 112.705 187.91 110.999 189.37C107.361 192.485 103.385 195.181 99.1465 197.41Z" fill="black"/>
<path d="M78.2959 210.634C78.3074 210.372 78.3875 210.118 78.5284 209.896C78.6693 209.675 78.8663 209.495 79.099 209.374C83.8824 206.13 88.6432 202.862 93.4935 199.718C94.5416 199.038 95.7239 198.213 97.1288 198.525C95.0994 201.112 91.9439 202.093 89.3236 203.788C85.6998 206.14 82.5664 209.285 78.2959 210.634Z" fill="black"/>
<path d="M67.3128 161.931C66.6772 157.315 67.3801 152.688 67.2017 148.072C67.1476 147.544 67.2035 147.011 67.3667 146.506C67.5298 146.001 67.7963 145.536 68.149 145.139V145.072C67.4689 150.647 68.5173 156.3 67.3019 161.853C67.3034 161.879 67.3069 161.905 67.3128 161.931Z" fill="black"/>
<path d="M69.231 125.447C69.3648 129.573 69.7105 133.777 68.2275 137.846C68.6401 133.732 68.7738 129.606 69.231 125.447Z" fill="black"/>
<path d="M63.8672 219.454C66.4429 216.433 70.0781 215.206 73.5904 213.768C70.8515 216.414 67.5168 218.365 63.8672 219.454Z" fill="black"/>
<path d="M52.6279 225.074C54.8022 222.633 57.7462 221.729 60.7456 220.982C58.549 223.357 55.6385 224.316 52.6279 225.074Z" fill="black"/>
<path d="M121.692 106.324C120.079 108.506 117.679 109.974 115.002 110.416C116.914 108.589 119.195 107.194 121.692 106.324Z" fill="black"/>
<path d="M106.36 167.339C106.819 166.265 107.546 165.327 108.472 164.615C109.397 163.902 110.49 163.439 111.646 163.27C110.129 164.942 108.713 166.748 106.36 167.339Z" fill="black"/>
<path d="M73.4785 213.837C73.9733 212.937 74.6772 212.169 75.5311 211.598C76.385 211.028 77.3637 210.671 78.3845 210.559C77.9629 211.515 77.2777 212.331 76.4087 212.912C75.5398 213.492 74.5233 213.813 73.4785 213.837Z" fill="black"/>
<path d="M130.399 99.7031C129.831 101.32 129.095 102.769 127.199 103.148C127.233 101.041 128.738 100.305 130.399 99.7031Z" fill="black"/>
<path d="M70.1882 112.736V116.817H69.7646V112.814L70.1882 112.736Z" fill="black"/>
<path d="M104.978 69.2394C103.774 67.9237 104.142 66.3515 104.499 64.7793C104.644 66.2846 104.777 67.8011 104.922 69.3064L104.978 69.2394Z" fill="black"/>
<path d="M122.674 135.951C123.416 134.936 124.439 134.16 125.617 133.721C126.253 133.91 126.286 134.077 125.997 134.334C125.012 135.096 123.881 135.647 122.674 135.951Z" fill="black"/>
<path d="M68.1476 145.138C68.0361 143.822 67.9357 142.517 67.8242 141.201C68.9392 142.472 68.3594 143.766 68.103 145.059C68.1154 145.086 68.1303 145.113 68.1476 145.138Z" fill="black"/>
<path d="M92.7236 188.188C92.949 187.487 93.3863 186.872 93.9753 186.428C94.5643 185.985 95.2764 185.735 96.0132 185.713C95.8109 186.428 95.3795 187.058 94.7854 187.505C94.1914 187.952 93.4671 188.192 92.7236 188.188Z" fill="black"/>
<path d="M124.915 103.938C124.618 104.603 124.154 105.18 123.568 105.614C122.982 106.047 122.294 106.323 121.57 106.413C121.994 104.651 123.299 104.082 124.915 103.938Z" fill="black"/>
<path d="M104.922 69.3186C105.187 69.8363 105.325 70.4096 105.325 70.9912C105.325 71.5728 105.187 72.1461 104.922 72.6637C104.922 71.5487 104.922 70.4333 104.922 69.2402C104.978 69.2402 104.922 69.3186 104.922 69.3186Z" fill="black"/>
<path d="M60.6445 221.049C60.9238 220.428 61.4098 219.922 62.0198 219.62C62.6298 219.317 63.3259 219.235 63.9896 219.388C63.6711 219.975 63.1788 220.45 62.58 220.748C61.9813 221.045 61.3053 221.15 60.6445 221.049Z" fill="black"/>
</svg>
