<svg width="466" height="517" viewBox="0 0 466 517" fill="none" xmlns="http://www.w3.org/2000/svg">
<path d="M401.178 295.166C395.064 294.322 388.183 293.441 381.091 292.598C381.582 293.124 382.03 293.687 382.432 294.284C387.818 294.993 393.204 295.703 398.629 296.201C399.817 296.316 401.005 296.45 402.194 296.603C401.821 296.149 401.482 295.669 401.178 295.166Z" fill="black"/>
<path d="M1.08937 339.403C1.08637 340.682 1.56977 341.915 2.44176 342.851C3.31375 343.787 4.50948 344.356 5.78577 344.444C9.88743 345.116 14.0961 344.444 17.7841 342.527C19.5444 341.359 21.6762 340.888 23.7646 341.204C22.5916 342.675 20.9579 343.709 19.1262 344.138C17.4778 344.578 15.7141 344.598 14.0274 345.096C15.9542 345.79 18.0292 345.968 20.0462 345.613C22.3787 345.392 24.6355 344.665 26.6594 343.485C32.0263 340.093 36.6451 341.128 40.977 344.578C43.2196 346.38 43.2961 347.683 40.8618 349.235C39.956 349.781 39.2064 350.551 38.6858 351.471C38.1653 352.392 37.8919 353.431 37.8913 354.488C37.7637 355.317 37.9122 356.165 38.3134 356.902C40.3451 359.03 40.8818 361.848 42.1468 364.32C42.6115 365.142 43.1231 365.936 43.6799 366.698V362.48C45.9416 363.17 46.7087 366.314 49.2963 365.394C48.2229 367.905 47.1296 370.378 46.0945 372.889C45.2585 374.896 44.8384 377.052 44.8582 379.226C44.8779 381.4 45.3373 383.547 46.2096 385.539C47.513 388.72 49.4878 391.634 51.0595 394.701C51.7879 396.081 52.2857 397.595 52.8799 399.032C53.4998 401.17 54.8583 403.018 56.7134 404.246C57.4272 404.814 57.8884 405.64 57.9974 406.546C58.3233 408.597 58.4001 410.706 58.5917 412.795C60.911 413.006 61.7168 414.808 62.7519 416.341C65.3511 420.199 66.7818 424.724 66.8727 429.375C66.8727 430.352 66.8728 431.292 67.9462 431.79C67.8312 430.64 67.6962 429.509 67.5812 428.359L68.0987 428.244L71.147 431.502C72.8529 433.419 74.5203 435.509 76.2645 437.425C76.499 437.604 76.6888 437.835 76.8195 438.099C76.9503 438.364 77.0189 438.654 77.0189 438.949C77.0189 439.244 76.9503 439.535 76.8195 439.799C76.6888 440.063 76.499 440.294 76.2645 440.473C76.0813 440.809 75.8164 441.093 75.4943 441.3C75.1722 441.507 74.8027 441.629 74.4208 441.656C74.0389 441.682 73.6567 441.613 73.3089 441.454C72.9611 441.294 72.6594 441.049 72.4311 440.741C71.0925 439.299 69.8438 437.776 68.693 436.18C68.9861 438.306 70.1011 440.232 71.7984 441.546C73.926 443.463 75.3252 443.214 77.1078 440.972C77.359 440.608 77.5891 440.23 77.7976 439.84C78.1426 439.974 78.488 439.994 78.6605 440.185C82.7815 444.709 86.8257 449.29 91.0042 453.756C93.1691 456.062 95.4801 458.226 97.9234 460.234C100.607 462.42 100.703 462.285 104.268 461.672C104.9 466.061 105.648 470.413 106.185 474.802C107.258 484.903 108.217 495.005 109.195 505.106C109.425 507.483 109.194 507.827 106.741 508.268C105.418 508.517 104.019 508.441 102.677 508.671C101.344 508.954 100.026 509.306 98.7283 509.725C97.7745 510.126 96.778 510.415 95.7577 510.587C85.4073 510.894 75.0382 511.258 64.6686 511.316C59.0717 511.316 53.4743 510.741 47.8774 510.549C44.1973 510.434 40.5363 510.549 36.8561 510.549L36.741 511.258C37.0298 511.383 37.3326 511.472 37.6423 511.526C50.2162 512.197 62.7899 512.887 75.3829 513.443C77.9897 513.558 80.635 513.117 83.2801 513.002C88.877 512.753 94.4547 512.102 99.9749 513.808C101.52 514.028 103.087 514.028 104.632 513.808C105.571 513.808 106.549 513.808 107.43 513.808L128.994 514.44C130.911 514.44 132.827 514.632 134.744 514.632C143.734 514.632 152.723 514.632 161.694 514.862C165.527 514.862 169.495 515.436 173.406 515.513C176.571 515.622 179.741 515.52 182.893 515.207C189.112 514.731 195.363 514.84 201.562 515.533C202.502 515.533 203.479 514.938 204.456 514.957C207.811 514.957 211.185 515.13 214.539 515.341C216.858 515.475 219.157 515.839 221.477 516.012C222.263 516.175 223.079 516.109 223.83 515.824C224.58 515.539 225.233 515.045 225.713 514.401L225.943 514.114C226.642 513.041 227.239 511.906 227.726 510.721C227.726 510.625 227.821 510.53 227.86 510.415C229.086 507.425 230.275 504.396 231.693 501.483C234.925 494.849 240.407 489.578 247.162 486.608C249.328 485.612 251.723 485.114 254.004 484.309C258.279 482.833 259.64 479.345 259.755 475.32C259.648 472.576 259.32 469.845 258.777 467.154C257.939 462.639 258.578 457.975 260.598 453.852C260.834 453.293 261.21 452.805 261.69 452.434C262.668 451.859 263.204 451.187 262.61 450.133C262.284 449.539 261.479 448.619 261.211 448.714C260.333 448.95 259.583 449.522 259.122 450.305C257.378 455.193 255.748 460.1 256.764 465.467C257.267 468.166 257.606 470.892 257.781 473.632C257.852 475.216 257.671 476.802 257.244 478.328C256.923 479.56 256.244 480.667 255.291 481.511C254.339 482.354 253.157 482.895 251.896 483.063C249.026 483.725 246.274 484.817 243.731 486.302C235.747 491.091 229.835 498.683 227.15 507.597C226.901 508.306 226.575 508.977 226.269 509.648C225.92 510.634 225.246 511.473 224.358 512.027C223.47 512.581 222.421 512.817 221.381 512.696C215.631 512.6 209.746 513.022 203.939 513.214C203.46 513.214 202.961 513.214 202.214 513.214C203.038 510.473 205.185 509.782 207.255 509.169C209.818 508.45 212.531 508.45 215.095 509.169C217.625 509.82 217.836 509.744 219.216 507.616C222.225 503.016 225.291 498.435 228.147 493.739C230.433 489.897 233.659 486.698 237.52 484.443C239.685 483.132 241.72 481.618 243.596 479.92C245.647 478.003 245.609 476.258 243.29 475.108C239.897 473.421 239.456 470.661 239.552 467.441C239.707 466.504 239.778 465.554 239.763 464.604C239.721 463.977 239.541 463.367 239.237 462.817C238.932 462.267 238.509 461.791 237.999 461.423C235.437 459.581 232.98 457.598 230.639 455.481C227.343 452.491 226.978 448.197 226.096 444.191C224.983 438.239 225.14 432.118 226.557 426.231C227.86 419.829 229.585 413.504 231.176 407.064L233.092 407.447L233.399 407.102L230.122 404.419C230.249 399.574 231.44 394.817 233.61 390.484C235.414 386.871 238.138 383.797 241.507 381.571C244.056 379.865 244.766 380.229 247.257 382.223C248.571 383.29 249.606 384.661 250.274 386.217C250.941 387.773 251.222 389.467 251.091 391.155C251.014 391.573 251.014 392.002 251.091 392.42C252.72 397.02 251.532 401.582 250.937 406.163C250.094 412.757 249.327 419.369 251.455 425.905C251.8 426.998 251.742 428.205 252.011 429.336C253.276 434.895 256.381 439.591 259.237 444.383C262.304 449.482 267.21 452.491 272.27 455.155C277.346 458.016 282.711 460.33 288.276 462.056C291.677 463.034 295.151 463.738 298.664 464.163C298.817 464.163 298.952 464.452 299.258 464.739C298.568 465.467 297.859 466.195 297.188 466.962C293.96 470.631 292.022 475.256 291.668 480.13C291.151 485.292 291.151 490.494 291.668 495.656C291.81 497.194 291.545 498.742 290.899 500.145C290.253 501.549 289.249 502.757 287.988 503.649C287.212 504.351 286.216 504.764 285.17 504.818C283.768 504.724 282.379 505.128 281.246 505.959C280.113 506.79 279.31 507.995 278.979 509.36C278.04 511.986 276.354 512.331 274.207 512.561L271.524 512.811C273.011 513.954 274.843 514.555 276.718 514.516C278.922 514.421 281.126 514.345 283.33 514.21C285.534 514.076 287.969 513.788 290.289 513.635C292.071 513.52 293.873 513.52 295.655 513.405C297.438 513.29 298.799 513.06 300.352 512.983C302.563 512.792 304.784 512.735 307.002 512.811C313.631 512.907 320.26 512.637 326.859 512.005C346.889 511.775 402.628 512.006 402.168 511.316L305.105 510.012C305.201 509.149 305.277 508.249 305.431 507.367C305.601 506.533 305.545 505.668 305.269 504.862C304.992 504.057 304.505 503.341 303.858 502.787C300.657 499.892 300.505 496.365 302.038 492.647C302.671 491.094 303.744 489.733 304.434 488.181C306.159 484.347 307.96 480.514 309.36 476.68C310.135 474.732 311.132 472.88 312.331 471.16C313.845 468.745 315.225 466.253 316.49 463.723C317.015 462.79 317.252 461.724 317.174 460.657C317.095 459.59 316.705 458.569 316.05 457.723C315.411 456.649 314.841 455.535 314.343 454.389C311.028 454.777 307.688 453.901 304.99 451.935C303.252 450.907 301.838 449.413 300.907 447.622C298.991 443.789 296.978 440.147 294.927 436.447C292.967 432.433 292.044 427.992 292.244 423.529C292.244 419.312 292.243 415.075 292.473 410.859C292.629 409.387 292.879 407.928 293.221 406.489C294.467 399.416 295.559 392.305 297.054 385.251C298.076 380.764 299.401 376.351 301.022 372.045C301.464 375.252 301.075 378.519 299.891 381.533C299.167 383.169 299.039 385.006 299.527 386.727C300.186 388.631 300.987 390.483 301.923 392.267C302.632 391.596 303.188 391.098 303.993 390.35C304.338 391.462 305.008 392.42 304.817 393.187C304.184 395.889 305.794 397.595 307.174 399.435C307.512 399.849 307.892 400.229 308.306 400.566C311.415 403.084 313.786 406.396 315.168 410.15C316.062 411.93 317.378 413.463 319.001 414.616C319.406 414.819 319.852 414.923 320.304 414.923C320.757 414.923 321.203 414.819 321.608 414.616C322.605 414.08 322.279 412.986 321.819 412.086C321.665 411.798 321.647 411.434 321.436 411.224C321.138 410.951 320.809 410.713 320.458 410.514C319.465 409.193 318.298 408.013 316.988 407.006C314.132 405.32 313.538 402.981 314.305 399.339C315.493 401.256 316.375 402.637 317.372 404.036C318.982 406.259 320.534 408.54 322.336 410.591C323.055 411.555 324.002 412.324 325.093 412.83C326.184 413.335 327.385 413.56 328.585 413.485C328.164 411.223 328.584 409.019 326.821 406.681C326.495 408.444 326.284 409.652 325.939 411.511L323.717 407.294L322.835 409.21C322.272 408.761 321.752 408.261 321.282 407.716C319.366 404.841 317.449 401.966 315.532 399.014C314.915 398.085 314.508 397.032 314.339 395.93C314.17 394.828 314.243 393.702 314.554 392.631C315.129 390.369 315.819 388.146 316.375 385.884C316.644 384.81 316.74 383.718 316.893 382.74C315.436 382.088 314.976 382.855 314.516 383.565C313.143 385.874 312.526 388.555 312.752 391.232C312.752 395.065 312.752 398.899 312.752 403.039C309.686 401.378 307.294 398.701 305.987 395.468C307.635 394.701 308.421 393.55 307.635 391.768C307.424 391.327 307.022 390.619 306.715 390.619C304.702 390.619 304.798 388.702 303.801 387.782C301.252 385.233 301.885 382.3 302.153 379.29C302.517 375.706 302.747 372.122 302.9 368.538C302.9 367.368 303.418 365.969 301.769 364.8C299.942 368.16 298.575 371.751 297.706 375.476C296.747 369.725 295.387 364.167 291.132 359.778C291.569 361.019 292.074 362.234 292.646 363.419C295.687 369.167 296.859 375.72 296.001 382.165C295.464 387.207 294.39 392.19 293.47 397.174C292.799 400.816 292.033 404.438 291.285 408.042C291.228 408.786 290.984 409.505 290.576 410.13C290.081 410.795 289.736 411.56 289.564 412.37C289.392 413.181 289.397 414.019 289.579 414.827C289.694 417.568 289.58 420.328 289.886 423.011C290.615 428.206 290.71 433.573 293.72 438.345C295.809 441.642 297.726 445.073 299.47 448.562C301.387 452.395 304.913 453.909 308.536 455.366C310.261 456.037 312.178 456.286 313.385 458.011C313.871 458.629 314.22 459.344 314.408 460.107C314.596 460.871 314.62 461.665 314.477 462.439C313.919 465.688 312.474 468.719 310.299 471.198C308.146 473.913 306.58 477.047 305.699 480.399C304.755 482.86 303.686 485.272 302.498 487.625C301.463 489.925 300.256 492.187 299.432 494.564C298.901 496.023 298.825 497.608 299.215 499.11C299.606 500.613 300.443 501.961 301.616 502.978C301.999 503.361 302.44 503.668 302.805 504.051C303.241 504.441 303.554 504.95 303.704 505.516C303.854 506.081 303.834 506.678 303.648 507.233C303.207 508.517 302.134 508.479 301.08 508.632C296.198 509.615 291.221 510.045 286.244 509.916C284.708 509.955 283.18 510.147 281.682 510.491C281.835 508.823 283.023 508.325 284.289 507.961C285.554 507.597 287.183 507.329 288.563 506.811C291.285 505.795 292.723 503.284 294.486 501.214C294.908 500.697 294.735 499.604 294.697 498.78C294.486 494.046 294.007 489.196 294.045 484.558C294.045 476.584 296.844 469.876 303.955 465.39C304.204 465.237 304.338 464.93 304.778 464.394C304.184 463.991 303.705 463.378 303.13 463.301C300.121 462.841 297.035 462.765 294.064 462.113C290.129 461.37 286.277 460.24 282.564 458.739C276.785 456.355 271.351 453.209 266.406 449.385C265.199 448.52 264.121 447.487 263.204 446.318C259.735 441.143 256.381 435.891 254.981 429.662C254.25 427.467 253.724 425.208 253.41 422.915C253.237 418.171 253.371 413.42 253.812 408.693C254.71 401.659 255.235 394.583 255.385 387.494C255.39 386.761 255.23 386.036 254.919 385.373C254.607 384.709 254.15 384.124 253.582 383.66C251.972 382.184 250.458 380.536 248.887 379.003C246.51 376.665 244.478 376.051 241.776 377.201C238.704 378.413 235.922 380.257 233.61 382.615C231.298 384.973 229.509 387.791 228.359 390.886C226.645 395.205 225.772 399.811 225.789 404.457C225.913 406.78 225.507 409.1 224.602 411.242C223.978 413.243 223.579 415.306 223.413 417.395C223.36 418.243 223.225 419.084 223.011 419.906C220.727 425.883 217.937 431.654 214.673 437.157C214.49 436.373 214.349 435.579 214.251 434.78C214.116 432.039 214.06 429.279 213.906 426.538C213.907 425.697 213.724 424.866 213.369 424.104C213.162 423.822 212.898 423.588 212.594 423.417C212.29 423.245 211.953 423.139 211.606 423.107C211.165 423.107 210.513 423.682 210.245 424.162C209.963 424.846 209.788 425.57 209.727 426.308C209.325 428.799 208.961 431.329 208.558 433.821C208.367 434.933 208.079 436.007 207.695 437.828C207.271 435.567 206.629 433.352 205.779 431.215C204.801 429.394 206.086 427.075 204.284 425.1C202.942 427.477 203.824 429.605 203.556 431.598C203.288 433.592 202.865 435.738 202.424 438.287L198.131 432.998C197.615 433.454 197.217 434.029 196.974 434.674C196.73 435.318 196.647 436.012 196.732 436.696C196.567 439.009 196.286 441.312 195.889 443.597C195.525 445.514 194.681 447.143 192.266 447.43C190.541 447.603 190.541 448.945 190.828 450.325C191.262 451.735 191.488 453.201 191.5 454.676C191.324 456.226 190.727 457.697 189.774 458.931C188.068 460.963 186.151 460.502 185.289 457.896C184.69 455.877 184.298 453.803 184.12 451.705C183.737 448.35 183.545 444.977 183.238 441.623C183.157 441.201 183.028 440.789 182.855 440.396C181.264 440.894 181.571 441.968 181.59 442.984C181.59 445.476 181.59 447.948 181.59 450.766C179.673 449.424 180.459 447.181 178.6 446.031C178.274 448.715 177.986 451.11 177.66 453.698C174.977 453.027 175.188 450.612 174.057 449.232C172.926 447.852 173.807 445.763 171.718 443.865C172.955 452.075 172.734 460.439 171.067 468.573C169.437 466.943 170.127 464.738 168.632 462.649C168.45 465.652 169.03 468.653 170.319 471.371C172.236 470.815 172.236 469.359 172.409 468.247C172.984 464.586 173.425 460.906 173.808 457.226C173.961 455.692 173.808 454.12 173.808 452.107C176.971 456.496 177.468 455.941 179.941 453.162C180.631 454.983 181.858 454.254 182.913 453.564C183.088 455.218 183.408 456.854 183.871 458.452C185.232 462.151 187.704 462.726 190.445 460.656C191.506 459.943 192.335 458.936 192.829 457.757C193.322 456.578 193.46 455.28 193.224 454.024C192.994 452.471 192.669 450.919 192.381 449.385C196.809 447.641 198.131 445.418 198.821 435.738L201.868 440.914C204.494 438.633 204.399 435.719 205.281 432.921C206.335 435.528 205.683 438.364 207.351 440.588C209.019 440.415 209.076 439.131 209.268 438.058C209.958 434.416 210.59 430.774 211.185 427.132C211.185 426.749 211.395 426.365 211.664 425.388C212.476 426.775 212.887 428.361 212.851 429.969C212.641 435.068 213.274 440.357 210.226 444.996C209.807 445.736 209.614 446.582 209.67 447.43C209.67 448.044 210.206 448.638 210.494 449.252C211.126 448.926 212.065 448.753 212.295 448.255C213.005 446.645 213.427 444.881 214.04 443.194C214.468 441.812 215.007 440.466 215.65 439.169C218.372 434.166 221.19 429.222 224.256 423.721C224.483 425.631 224.483 427.561 224.256 429.471C223.467 435.355 223.726 441.331 225.023 447.124C226.101 451.681 228.573 455.788 232.096 458.874C232.786 459.525 233.476 460.177 234.224 460.79C235.14 461.502 235.864 462.429 236.332 463.49C236.801 464.55 236.998 465.711 236.907 466.866C236.69 468.667 236.977 470.492 237.734 472.14C238.492 473.788 239.692 475.194 241.2 476.201C242.657 477.16 242.715 478.118 241.412 479.287C239.796 480.813 238.036 482.179 236.159 483.369C231.852 486.086 228.32 489.869 225.905 494.352C223.547 498.473 220.653 502.288 218.065 506.275C217.716 506.798 217.222 507.207 216.643 507.452C216.064 507.697 215.425 507.768 214.807 507.654C212.294 507.471 209.771 507.548 207.274 507.885C205.333 508.38 203.477 509.169 201.773 510.223C201.413 510.428 201.099 510.704 200.848 511.033C200.598 511.362 200.417 511.739 200.316 512.14C200.067 513.712 199.052 513.961 197.844 514.057C188.433 514.057 179.022 514.268 169.61 514.057C164.435 514.057 159.26 513.443 154.085 513.156C152.168 513.156 150.251 513.156 148.334 513.156H117.57C116.997 513.108 116.428 513.025 115.865 512.907C119.698 510.3 118.26 506.332 118.951 502.997C119.302 500.688 119.269 498.338 118.854 496.04C118.145 491.209 119.277 486.571 119.66 481.99L122.592 480.265C123.436 482.182 123.953 484.423 125.985 485.765C126.598 486.168 126.617 487.472 126.905 488.373C127.691 490.673 128.994 490.998 130.489 489.158C131.237 488.257 131.774 487.375 133.154 487.241C133.825 487.241 134.514 486.36 134.974 485.708C138.461 480.987 140.079 475.143 139.517 469.301C139.407 468.798 139.452 468.274 139.647 467.798C139.842 467.322 140.178 466.916 140.609 466.636C142.047 465.563 141.779 463.666 140.169 461.097C139.9 461.96 139.689 462.65 139.459 463.455C138.156 458.088 136.929 452.874 135.626 447.661C135.349 446.311 134.952 444.99 134.438 443.712C133.978 442.677 133.134 442.006 131.889 443.271C132.694 445.629 133.594 447.987 134.303 450.402C135.219 453.323 135.974 456.291 136.565 459.295C136.701 461.11 136.65 462.935 136.412 464.739C138.444 468.764 137.466 473.192 136.776 477.6H135.933C135.933 475.684 135.933 473.767 135.684 471.85C135.434 469.933 136.316 467.767 133.403 466.387C132.502 472.942 135.204 479.363 132.732 485.401H131.946C131.869 484.56 131.869 483.713 131.946 482.871C132.684 477.314 132.626 471.679 131.773 466.138C131.523 464.78 131.023 463.48 130.297 462.305C130.087 461.902 129.377 461.748 128.745 461.403C131.871 470.257 132.06 479.883 129.282 488.852C128.395 488.125 127.751 487.144 127.435 486.041C127.12 484.938 127.149 483.765 127.518 482.68C128.858 477.227 128.977 471.545 127.863 466.042C127.665 465.337 127.241 464.718 126.656 464.279C126.253 467.499 127.461 470.565 127.404 473.709C127.582 476.954 126.956 480.194 125.582 483.14C124.565 482.089 123.795 480.824 123.328 479.438C122.86 478.053 122.707 476.58 122.879 475.128C123.483 471.575 123.483 467.946 122.879 464.394C122.573 463.033 122.324 461.691 120.407 461.634C119.391 463.78 123.359 466.483 119.468 467.94C120.925 470.508 121.806 472.789 119.64 475.243C119.161 475.799 119.487 477.064 119.43 478.271C117.302 478.578 117.168 480.303 116.919 482.105C116.545 487.055 116.506 492.023 116.804 496.978C116.695 500.57 116.336 504.15 115.73 507.693C115.471 508.684 114.916 509.574 114.139 510.242C113.322 511.192 112.254 511.893 111.057 512.263C109.86 512.632 108.583 512.656 107.373 512.332C105.442 512.01 103.486 511.863 101.528 511.891V511.009C103.253 511.009 104.958 511.009 106.684 511.009C107.524 510.98 108.363 510.903 109.195 510.779C109.51 510.75 109.814 510.653 110.088 510.495C110.362 510.336 110.6 510.12 110.782 509.861C110.964 509.602 111.088 509.307 111.145 508.995C111.202 508.684 111.19 508.364 111.111 508.058C110.766 504.493 110.364 500.927 110.038 497.362C109.616 492.934 109.405 488.488 108.811 484.098C107.661 475.607 106.357 467.154 104.977 458.701C104.402 455.06 103.674 451.437 103.061 447.814C102.938 446.978 102.693 446.163 102.332 445.398C101.269 443.196 100.869 440.733 101.182 438.307C101.182 437.713 100.78 437.08 100.569 436.39C100.025 436.734 99.5178 437.132 99.0549 437.579C97.7413 439.477 96.3068 441.288 94.761 443.003C93.9943 443.75 92.4611 443.713 91.1961 444.326L95.8728 444.747C97.3463 447.84 98.006 451.257 97.7896 454.676C95.5365 453.812 93.4774 452.509 91.7323 450.843C89.1639 448.811 86.5763 446.798 84.0654 444.747C83.353 444.295 82.7353 443.709 82.245 443.022C80.5391 439.898 78.9666 436.735 77.1649 433.189L74.5968 435.106L71.4147 431.273C70.2663 429.642 69.2353 427.931 68.329 426.154C67.525 424.349 67.2781 422.346 67.6195 420.399C67.961 418.453 68.8753 416.653 70.2457 415.229C70.514 414.903 70.7822 414.596 71.0506 414.251C71.0708 414.157 71.0708 414.059 71.0506 413.964C68.7697 413.772 68.7122 413.849 66.2971 420.96C64.0162 416.743 61.8702 412.891 59.8767 408.962C59.5652 408.063 59.4858 407.1 59.6465 406.163C59.819 402.905 60.1066 399.646 60.2408 396.388C60.1821 395.569 60.0343 394.76 59.8 393.973C57.9983 394.816 57.1733 397.192 56.675 402.31C55.5013 401.401 54.6465 400.143 54.2332 398.717C53.8199 397.291 53.8698 395.771 54.3755 394.375C54.9203 392.562 55.2927 390.7 55.4873 388.816C55.7173 387.072 55.6976 385.289 55.8317 383.066C55.0459 383.564 54.3562 383.737 54.2603 384.101C53.3978 387.091 52.6311 390.12 51.826 393.205C45.635 386.209 44.8294 378.178 49.3721 369.361C49.7171 368.71 50.0622 368.039 50.4456 367.445C51.8448 365.068 52.3625 362.73 50.1582 360.392L59.2824 355.331C65.4935 352.607 71.2472 348.941 76.3413 344.463C81.574 339.882 86.7878 335.262 92.3847 330.317C93.9372 333.633 97.1184 335.071 99.4377 337.352C102.083 339.959 105.341 340.917 108.465 342.316C110.095 343.045 111.877 343.428 113.449 344.233C118.318 346.744 123.761 347.281 128.783 349.102C133.405 350.697 138.351 351.124 143.178 350.347C147.913 349.657 152.762 350.348 157.324 349.293C161.886 348.239 166.6 347.108 171.162 345.824C183.276 342.393 195.295 338.655 207.428 335.377C217.086 332.589 227.131 331.378 237.176 331.793C238.116 331.909 239.045 332.102 239.954 332.368C241.64 332.985 243.477 333.058 245.207 332.579C246.444 332.352 247.72 332.506 248.867 333.02C252.087 334.055 255.25 335.224 258.451 336.413C259.345 336.749 260.195 337.193 260.982 337.735C264.949 340.514 268.898 343.351 272.846 346.168C273.213 346.384 273.528 346.679 273.766 347.031C275.204 350.002 278.615 350.616 280.685 352.782C280.896 353.012 281.586 352.782 282.41 352.782C281.969 351.823 281.625 351.114 281.203 350.175C282.24 349.511 283.337 348.947 284.48 348.489C287.703 347.467 291.127 347.255 294.451 347.874C297.774 348.492 300.894 349.921 303.533 352.034C306.057 353.997 307.798 356.798 308.44 359.931C308.634 360.844 309.063 361.69 309.685 362.385C313.059 365.854 316.51 369.266 319.96 372.658C321.994 375.001 324.654 376.716 327.627 377.604C328.585 378.601 327.281 380.651 329.409 381.437L331.096 379.157L351.433 387.206C351.433 388.261 351.605 389.411 351.701 390.561L352.371 390.791L354.787 388.146C357.662 389.008 360.709 389.775 363.661 390.848C368.932 392.765 374.127 394.816 379.341 396.828C379.916 397.058 380.452 397.423 381.027 397.691C383.538 398.88 385.378 400.375 383.902 403.442C384.362 409.958 381.219 415.248 378.037 420.519C377.54 421.396 376.872 422.164 376.071 422.777C375.271 423.389 374.355 423.834 373.379 424.085C369.344 425.036 365.589 426.919 362.416 429.585C360.618 430.976 359.225 432.822 358.379 434.931C357.533 437.041 357.265 439.337 357.604 441.585C357.316 441.378 357.041 441.154 356.78 440.914C356.57 440.722 356.416 440.492 356.109 440.147C356.723 443.885 360.422 447.929 363.776 448.37C365.024 448.372 366.263 448.157 367.438 447.737C369.259 447.296 371.041 446.664 372.881 446.3C376.22 445.672 379.337 444.186 381.927 441.987C382.541 441.47 382.656 440.396 383.001 439.591C382.081 439.284 381.084 438.537 380.241 438.728C378.843 439.183 377.515 439.828 376.292 440.645C374.376 441.833 372.46 443.176 370.351 444.288C368.67 444.888 366.858 445.026 365.105 444.689C363.352 444.352 361.722 443.552 360.384 442.371C359.952 441.844 359.655 441.218 359.522 440.549C359.388 439.881 359.421 439.19 359.617 438.537C360.748 433.362 364.352 430.448 368.875 428.455C371.271 427.4 373.858 426.73 376.254 425.656C377.483 425.058 378.564 424.194 379.417 423.127C383.634 418.059 386.782 412.191 388.674 405.876L390.227 410.207C392.796 417.357 395.613 424.449 397.894 431.714C399.023 435.994 399.843 440.349 400.348 444.747C400.504 445.642 400.462 446.56 400.227 447.437C399.992 448.314 399.57 449.129 398.987 449.826C398.741 450.257 398.584 450.733 398.527 451.225C401.517 452.375 402.226 452.03 402.36 449.309C402.525 443.163 401.571 437.039 399.543 431.234C397.147 423.567 394.617 415.9 391.646 408.463C387.659 398.457 383.595 388.433 377.117 379.712C375.813 377.948 374.127 376.454 372.747 374.729C372.12 373.75 371.581 372.716 371.136 371.642C368.817 372.236 367.821 370.358 367.016 368.173C366.211 365.988 365.099 363.458 364.371 361.043C364.255 360.421 363.917 359.861 363.42 359.47C362.923 359.078 362.3 358.882 361.668 358.916C361.974 359.893 362.262 360.832 362.626 361.829C363.182 363.267 363.815 364.666 364.409 366.065L356.55 367.214C356.55 364.799 356.704 362.577 356.55 360.392C356.3 358.299 355.916 356.224 355.4 354.181C354.712 352 354.319 349.738 354.231 347.453L358.582 353.835C359.215 355.024 359.866 356.213 360.499 357.401C360.523 356.693 360.358 355.991 360.022 355.368C359.685 354.744 359.188 354.223 358.582 353.855C358.046 352.293 357.406 350.769 356.665 349.293C352.4 341.133 349.051 332.525 346.679 323.628C346.561 322.996 346.515 322.353 346.544 321.711C347.867 320.964 348.462 321.712 348.845 322.613C350.023 324.971 351.06 327.395 351.95 329.876C354.834 338.155 358.566 346.114 363.087 353.625C364.582 356.308 365.77 359.146 367.246 361.829C368.952 364.992 369.392 365.088 372.363 363.305C374.28 362.097 376.197 360.756 378.114 359.472C380.874 357.555 382.177 357.401 384.879 359.644C387.59 361.658 390.107 363.923 392.394 366.409C394.278 369.063 395.956 371.858 397.415 374.767C401.59 382.244 404.694 390.27 406.635 398.611C407.536 402.739 408.176 406.919 408.551 411.127C408.954 414.156 409.241 417.204 409.548 420.251C409.855 423.299 410.506 426.672 408.436 429.7C407.841 430.713 407.506 431.859 407.463 433.033C407.419 434.208 407.668 435.374 408.187 436.429C410.487 442.179 410.794 448.159 411.81 454.062C412.155 455.979 412.5 458.011 412.96 459.947C413.267 461.251 413.573 462.438 412.193 463.32L410.276 461.039C409.279 465.16 406.443 466.637 402.897 467.25C404.814 468.937 405.562 468.802 410.967 466.003C410.967 466.77 411.082 467.442 411.062 468.132C411.062 470.221 411.063 472.329 410.89 474.438C410.794 476.22 410.718 478.003 410.488 479.786C410.362 480.523 410.057 481.217 409.599 481.809C409.141 482.401 408.544 482.871 407.862 483.177C407.363 483.446 406.443 483.695 406.098 483.446C404.546 482.238 402.38 481.702 401.517 479.709C400.02 476.679 398.739 473.546 397.684 470.336C396.957 466.581 397.229 462.701 398.47 459.084C398.738 458.088 399.504 456.861 398.009 456.152C397.703 456.305 397.396 456.344 397.358 456.478C395.177 461.683 394.886 467.487 396.533 472.885C397.568 475.971 399.409 478.769 400.54 481.817C401.671 484.864 403.299 488.449 401.287 492.11C400.789 493.377 400.461 494.705 400.31 496.058C399.696 498.818 399.045 499.375 396.189 499.279C393.333 499.183 390.074 498.838 387.026 498.876C384.937 498.876 382.848 499.547 380.758 499.643C373.159 500.209 365.524 500.074 357.949 499.24C355.132 498.838 352.371 498.205 349.132 497.591C348.847 496.891 348.654 496.157 348.558 495.407C348.558 492.762 348.558 490.116 348.558 487.471C348.503 486.422 348.736 485.378 349.232 484.452C349.729 483.526 350.47 482.753 351.375 482.219C352.215 481.731 352.851 480.957 353.164 480.037C353.478 479.118 353.448 478.116 353.081 477.217C352.425 474.64 350.969 472.339 348.922 470.643L348.078 468.86L347.905 466.943C347.905 466.847 347.905 466.732 347.905 466.636C348.106 466.306 348.219 465.93 348.232 465.544C348.286 464.175 348.137 462.806 347.791 461.48C346.328 454.441 346.886 447.131 349.401 440.396C350.528 440.613 351.685 440.613 352.812 440.396C353.445 440.147 353.656 438.863 354.193 437.789C351.548 436.333 350.072 433.266 346.526 433.956C345.51 431.349 346.813 429.548 348.538 427.803C351.049 425.235 353.579 422.667 355.841 419.887C357.245 418.149 358.383 416.211 359.215 414.137C359.549 413.379 359.721 412.559 359.721 411.73C359.721 410.901 359.549 410.081 359.216 409.322C358.882 408.563 358.394 407.882 357.784 407.322C357.173 406.761 356.453 406.334 355.669 406.067C351.835 404.61 344.168 407.313 342.251 410.897C341.906 411.53 341.082 417.395 340.622 417.395C339.651 417.208 338.767 416.711 338.103 415.978C337.44 415.245 337.032 414.316 336.942 413.331C336.769 412.143 336.942 410.705 335.121 410.092L333.357 412.546C334.789 414.924 336.759 416.933 339.108 418.411C339.867 418.761 340.501 419.333 340.926 420.052C341.351 420.771 341.546 421.603 341.485 422.436C341.609 423.847 341.951 425.232 342.5 426.538H343.21L343.44 425.024H346.104C346.398 424.36 346.453 423.614 346.257 422.914C346.061 422.214 345.627 421.605 345.03 421.19C343.113 419.733 342.922 414.923 343.823 412.949C345.051 411.028 346.94 409.624 349.132 409C350.723 408.406 353.847 407.314 355.572 407.908C356.296 408.122 356.914 408.598 357.307 409.242C357.7 409.887 357.841 410.654 357.7 411.396C357.562 412.647 357.212 413.865 356.665 414.999C354.421 419.344 351.4 423.242 347.753 426.5C346.967 427.19 346.123 427.861 345.395 428.608C343.114 431.023 343.056 433.63 345.606 435.776C346.211 436.184 346.643 436.802 346.82 437.51C346.997 438.218 346.906 438.965 346.564 439.61C344.513 446.683 343.459 453.852 345.874 461.097C346.248 461.897 346.372 462.79 346.232 463.662C346.092 464.533 345.693 465.342 345.088 465.985L345.548 466.292C345.15 466.889 344.828 467.532 344.589 468.208C344.062 468.024 343.488 468.024 342.961 468.208C340.929 468.745 338.935 469.397 336.961 470.125C335.866 470.563 334.798 471.062 333.76 471.62C333.76 467.48 334.009 463.684 333.76 459.928C332.974 450.19 334.24 440.473 333.971 430.755C333.876 427.573 333.971 424.411 333.721 421.171C333.721 420.041 333.722 418.584 331.978 417.971C331.77 418.589 331.659 419.235 331.651 419.887C332.599 426.701 332.773 433.601 332.169 440.454C331.798 447.639 331.85 454.839 332.322 462.017C332.423 465.397 332.16 468.776 331.537 472.099C331.075 473.689 330.306 475.173 329.275 476.469C329.064 476.795 328.24 476.718 327.09 476.948C327.626 476.372 328.084 475.728 328.45 475.031C328.499 474.472 328.454 473.909 328.317 473.364C327.761 473.364 326.975 473.364 326.707 473.632C325.618 474.763 324.712 476.056 324.023 477.466C322.357 481.349 319.971 484.881 316.988 487.874C315.32 490.079 313.051 491.756 310.453 492.704L312.235 498.071C311.372 499.489 309.743 497.707 308.268 498.359C308.268 498.819 308.267 499.394 308.114 500.276L318.982 499.7C320.151 499.7 321.321 499.7 322.471 499.7C330.387 500.179 338.284 500.716 346.2 501.196C347.564 501.374 348.947 501.341 350.301 501.099C353.171 500.559 356.11 500.489 359.003 500.889C364.753 501.387 370.619 501.291 376.427 501.483C383.711 501.694 391.013 502.058 398.297 502.173C401.421 502.173 404.565 501.751 407.689 501.636C409.798 501.636 411.925 501.636 414.033 501.732C417.406 501.732 420.78 501.732 424.173 501.54C419.975 500.294 415.566 501.195 410.755 500.333C411.469 499.179 412.264 498.078 413.133 497.036C414.407 495.84 415.377 494.356 415.964 492.71C416.55 491.063 416.736 489.3 416.506 487.567C415.969 482.526 415.796 477.466 415.547 472.406C415.547 471.064 415.662 469.723 415.739 468.17C416.505 468.308 417.226 468.626 417.843 469.099C418.46 469.573 418.955 470.188 419.285 470.892C419.532 471.352 419.892 471.741 420.332 472.022C420.771 472.304 421.275 472.469 421.796 472.501C422.712 472.697 423.591 473.033 424.403 473.498C425.285 473.939 426.108 474.495 426.971 473.498C427.833 472.502 427.278 471.716 426.665 470.968C424.595 468.419 422.563 465.851 420.416 463.301C418.269 460.752 416.276 458.777 414.225 456.496C413.855 456.128 413.596 455.664 413.478 455.155C413.325 452.664 413.247 450.153 413.19 447.642C413.19 446.588 413.286 445.533 413.19 444.478C413.169 436.017 412.387 427.576 410.852 419.255C410.429 416.751 410.179 414.221 410.104 411.683C409.93 407.89 409.507 404.112 408.839 400.375C406.438 388.904 402.192 377.9 396.266 367.79C395.88 367.195 395.576 366.55 395.364 365.873C394.77 363.094 394.272 360.314 393.658 357.133C394.651 356.863 395.677 356.727 396.706 356.73C399.064 356.979 401.402 357.67 403.779 357.804C405.162 357.584 406.497 357.13 407.728 356.462C408.974 357.209 410.89 358.379 412.73 359.49C414.954 360.947 416.353 361.407 416.966 360.372C418.154 358.455 416.333 357.44 415.337 356.405C410.353 351.21 405.255 346.131 400.195 341.071C394.444 335.205 388.694 329.225 382.695 323.551C378.631 319.718 374.242 316.172 369.814 312.741C369.004 311.946 367.985 311.397 366.876 311.156C365.767 310.915 364.613 310.993 363.546 311.38L366.268 315.31C366.493 314.948 366.801 314.644 367.166 314.425C367.532 314.206 367.945 314.077 368.37 314.049C368.795 314.021 369.221 314.094 369.612 314.263C370.003 314.432 370.348 314.692 370.619 315.021C374.05 317.973 377.673 320.772 380.95 323.858C389.307 331.794 397.569 339.863 405.868 347.951C408.283 350.309 410.468 352.896 412.73 355.427C413.214 355.98 413.568 356.635 413.765 357.343C406.731 354.583 400.559 349.945 392.681 347.933C392.834 349.332 392.949 350.309 393.083 351.459L390.591 352.743C387.294 349.887 385.167 345.939 381.525 343.562C377.794 337.94 374.05 332.323 370.293 326.714C369.844 326.139 369.357 325.595 368.837 325.084L368.415 325.488C371.922 330.912 375.43 336.356 378.995 341.742C379.643 342.54 380.368 343.271 381.161 343.926C382.292 345.44 383.442 346.955 384.573 348.489C386.873 351.632 389.192 354.756 391.416 357.957C391.99 359.078 392.453 360.252 392.796 361.464C391.301 360.736 390.361 360.353 389.499 359.836C387.582 358.724 385.665 357.535 383.749 356.405C380.989 354.775 379.915 354.851 377.443 356.787C375.526 358.34 373.437 359.893 371.405 361.407C370.918 361.718 370.405 361.988 369.872 362.212C369.29 361.77 368.768 361.255 368.319 360.679C364.486 353.855 360.652 347.031 356.991 340.169C356.117 338.476 355.386 336.713 354.806 334.898C352.575 328.17 349.632 321.7 346.027 315.597C345.847 315.17 345.706 314.727 345.606 314.274C346.767 313.159 348.053 312.181 349.439 311.361C353.916 309.075 359.061 308.463 363.949 309.636C368.144 310.724 372.062 312.683 375.449 315.386C377.261 316.636 379.186 317.714 381.199 318.606C384.461 320.341 387.425 322.587 389.978 325.257C390.649 325.986 391.166 326.407 392.297 325.563C390.381 321.251 386.068 318.893 382.886 315.136C383.512 314.947 384.153 314.812 384.803 314.734C388.502 314.643 392.161 315.516 395.421 317.265C396.646 317.916 397.929 318.448 399.255 318.855C399.544 318.913 399.842 318.898 400.123 318.811C400.405 318.724 400.66 318.568 400.866 318.357C400.95 318.08 400.96 317.786 400.896 317.503C400.833 317.221 400.697 316.961 400.502 316.747C397.991 315.405 397.319 312.914 396.418 310.556C395.457 308.087 394.025 305.827 392.202 303.905C385.742 296.813 379.378 289.587 372.861 282.533C369.986 279.447 366.805 276.668 363.643 273.639C366 268.675 368.281 263.864 370.754 258.689C371.923 260.107 372.938 261.238 373.858 262.522C377.366 267.142 380.816 271.837 384.362 276.437C387.448 280.443 390.669 284.334 393.793 288.302C398.277 293.789 403.555 298.576 409.453 302.505C410.468 303.215 411.216 304.307 412.213 305.074C412.596 305.361 413.573 305.458 413.784 305.208C414.474 304.461 413.784 304.039 413.151 303.541C408.743 300.493 404.047 297.79 400.425 293.688C397.415 290.334 394.33 287.018 391.474 283.51C387.64 278.757 383.921 273.927 380.241 268.962C379.828 268.179 379.531 267.34 379.359 266.471L379.244 266.336C379.934 267.084 380.644 267.812 381.334 268.54C381.047 268.387 380.758 268.234 380.49 268.119L387.18 274.233C387.18 274.138 387.065 274.042 387.026 273.946C387.697 274.521 388.387 275.077 389.097 275.633C389.386 276.236 389.746 276.802 390.17 277.319C394.789 282.111 399.408 286.903 404.085 291.618C405.486 293.045 406.992 294.365 408.59 295.567C410.589 297.33 413.134 298.352 415.797 298.461C416.55 298.554 417.285 298.754 417.982 299.056C418.863 302.697 419.783 306.262 420.569 309.847C421.125 312.358 421.49 312.55 423.502 311.074C430.211 306.128 436.92 301.087 443.705 296.314C446.112 294.79 448.684 293.543 451.372 292.596C452.579 292.247 453.837 292.111 455.09 292.194C458.215 292.098 458.924 291.656 460.016 288.743C461.209 285.565 461.857 282.209 461.933 278.815C462.067 275.441 462.355 272.087 462.681 268.713C462.681 266.261 463.543 263.887 465.115 262.005C465.294 261.767 465.41 261.488 465.454 261.193C465.497 260.899 465.467 260.598 465.364 260.318C465.153 259.954 464.329 259.858 463.773 259.762C463.35 259.678 462.911 259.739 462.527 259.935C460.476 261.334 458.808 260.356 457.16 259.148C451.007 254.644 444.625 250.446 438.798 245.578C432.742 240.579 427.876 234.294 424.556 227.178C424.071 225.808 423.711 224.396 423.483 222.96C423.382 222.342 423.228 221.732 423.023 221.139C422.046 219.031 420.781 218.897 419.19 220.718C416.756 223.612 414.398 226.602 411.849 229.4C406.712 235.017 400.194 238.812 393.812 242.818C393.322 243.126 392.749 243.279 392.171 243.255C391.592 243.231 391.035 243.032 390.572 242.684C389.039 241.802 387.429 241.055 385.838 240.25L390.783 244.083L375.123 255.047C376.542 256.063 377.232 255.258 377.96 254.817C382.369 252.114 386.796 249.469 391.185 246.728C391.842 246.208 392.628 245.877 393.459 245.769C394.289 245.661 395.133 245.78 395.901 246.115C398.467 247.853 401.137 249.434 403.894 250.849C403.396 248.702 403.396 248.703 396.227 245.751L395.307 244.639C404.546 239.291 413.477 233.675 420.052 224.724C420.728 225.419 421.338 226.177 421.873 226.986C426.281 234.941 432.131 242.006 439.124 247.821C442.306 250.581 445.928 252.824 449.379 255.258C452.829 257.692 456.432 260.184 460.285 262.925C458.751 264.362 457.275 265.819 455.722 267.179C450.796 271.492 445.909 275.862 440.849 280.041C435.09 284.859 429.901 290.319 425.381 296.314C424.985 296.81 424.562 297.283 424.115 297.732C423.981 297.886 423.751 297.924 423.329 298.154C421.853 295.72 418.844 294.033 420.244 290.372C417.503 290.698 416.985 291.983 418.116 295.625C417.023 296.106 415.833 296.329 414.639 296.276C413.446 296.223 412.281 295.895 411.235 295.318C407.659 293.208 404.428 290.564 401.651 287.478C398.527 284.335 395.384 281.191 392.202 278.105C391.483 277.456 390.728 276.847 389.94 276.284L376.772 263.269C375.372 261.544 373.992 259.839 372.689 258.056C372.171 257.392 371.835 256.604 371.714 255.771C371.593 254.937 371.692 254.087 371.999 253.303C373.495 248.579 374.321 243.669 374.452 238.717C374.452 237.26 374.663 235.841 374.816 234.059L383.73 239.483C382.235 238.042 380.661 236.685 379.015 235.419C376.37 233.503 374.491 231.586 374.778 228.04C375.334 220.622 373.264 213.588 371.194 206.573C371.079 206.17 370.964 205.767 370.811 205.326C373.36 202.317 376.005 199.423 378.382 196.337C380.299 193.749 382.024 190.912 383.825 188.19C385.11 186.274 386.317 184.261 387.659 182.44C388.187 181.862 388.533 181.141 388.656 180.368C388.778 179.595 388.671 178.802 388.349 178.089C387.907 176.48 387.745 174.807 387.87 173.144C387.87 169.579 388.157 165.975 387.87 162.429C387.39 154.187 385.953 146.022 386.624 137.742C387.165 132.7 387.441 127.633 387.448 122.562C387.046 118.893 386.341 115.264 385.34 111.712C385.014 110.179 384.611 108.646 384.228 106.979L386.95 105.79C389.692 104.731 392.07 102.9 393.795 100.519C395.519 98.1379 396.517 95.3089 396.668 92.3728C397.565 85.6914 396.086 78.907 392.489 73.2054C391.895 72.2278 391.474 71.1353 390.879 69.8894C391.322 69.6243 391.751 69.336 392.163 69.0265C393.735 67.7423 393.793 67.2247 392.566 65.6338C391.857 64.6946 390.649 64.1385 391.377 62.4517C391.569 61.9534 390.131 60.0562 389.345 59.9987L388.848 59.9032H388.694L388.215 59.7685C387.567 59.4848 387 59.0434 386.567 58.4844C385.244 56.5677 383.941 54.804 382.733 52.9064L382.119 51.8338C381.653 51.128 381.462 50.2753 381.583 49.4379C382.151 46.4045 382.046 43.2834 381.276 40.295C380.164 33.7397 378.88 27.2036 377.653 20.6483C377.429 20.0229 377.146 19.4188 376.81 18.8458C376.445 19.4329 376.22 20.0956 376.15 20.7831C376.08 21.4707 376.168 22.1656 376.407 22.814C377.193 26.8584 378.21 30.8448 378.977 34.8892C379.73 38.8329 380.223 42.8219 380.452 46.8304C377.232 42.1919 376.925 36.3843 374.165 31.65C371.306 26.7395 368.715 21.6781 366.403 16.4882C367.898 16.6032 369.048 16.489 370.236 16.7765C374.28 17.524 378.305 18.3673 382.35 19.134C384.611 19.5749 385.167 20.111 385.532 22.3919C386.527 28.5265 387.027 34.7316 387.026 40.9464C387.026 44.2815 387.391 47.6936 385.627 50.8371C385.535 51.0218 385.486 51.2248 385.485 51.4314C385.484 51.638 385.532 51.8421 385.622 52.0276C385.713 52.2131 385.845 52.3752 386.009 52.5011C386.173 52.627 386.364 52.7137 386.567 52.7538C387.659 53.0413 388.214 52.3701 388.272 51.4117C388.502 48.0383 388.771 44.6647 388.771 41.2721C388.771 35.656 388.541 30.0595 388.407 24.4435C388.292 19.1149 387.659 17.6966 380.893 16.374C377.481 15.7223 373.993 15.3006 370.523 14.8981C368.902 14.811 367.276 14.811 365.655 14.8981C364.84 13.3016 363.924 11.7584 362.913 10.2784C360.997 7.71 358.774 5.23763 356.55 2.84169C355.71 2.02362 354.721 1.37311 353.637 0.924949C350.187 -0.723453 348.02 -0.0531532 346.219 3.22448C344.272 6.67281 343.756 10.7467 344.781 14.5715C345.145 16.009 345.778 17.3708 346.162 18.8083C346.545 20.2459 347.369 20.629 349.037 20.4565C348.883 19.6323 348.826 18.9612 348.634 18.3095C348.059 16.2969 347.311 14.3229 346.813 12.2719C346.361 10.0752 346.693 7.78919 347.753 5.81228C349.401 2.3813 351.337 1.63377 354.538 3.89553C356.587 5.19993 358.386 6.86208 359.847 8.80251C363.326 13.8332 366.171 19.2733 368.319 24.9994C366.215 25.9826 364.166 27.0827 362.185 28.2957C359.165 30.4688 356.804 33.4341 355.362 36.8639C353.862 40.1036 351.182 42.6474 347.868 43.975C347.389 44.2242 345.318 45.24 345.951 45.8917C346.067 46.0155 346.211 46.1072 346.372 46.1594C347.043 46.4469 348.039 47.1186 347.982 47.962V48.1529C347.959 48.2364 347.921 48.3149 347.868 48.3831C347.796 48.506 347.678 48.5954 347.541 48.6321C347.42 48.8048 347.335 49.001 347.292 49.2077C347.226 49.5915 347.3 49.9867 347.503 50.3195C347.503 50.4537 347.676 50.5878 347.771 50.722V50.8558L347.676 51.086L347.35 51.2966C346.66 51.6991 345.97 52.3317 346.219 53.2134C346.244 53.3388 346.311 53.452 346.409 53.5353C346.506 53.6186 346.628 53.6678 346.756 53.6738C347.462 53.7608 348.172 53.8112 348.883 53.8264C349.497 53.8264 350.091 53.6738 350.8 53.5971C350.433 51.8134 349.786 50.0992 348.883 48.5179C348.883 48.2304 349.209 48.0188 349.247 47.7121C349.246 47.3624 349.124 47.0237 348.902 46.7537C348.595 46.3128 347.675 46.122 347.464 45.6428C348.231 45.1444 349.727 44.4153 350.474 43.8786C353.365 42.1842 355.738 39.7324 357.336 36.7872C358.318 34.4292 359.808 32.317 361.7 30.6008C363.591 28.8846 365.839 27.6063 368.281 26.8581L369.181 26.6475C369.277 26.6475 369.373 26.6472 369.642 26.7814C369.91 26.9155 370.082 27.644 369.948 27.8165V28.0851C369.603 30.0018 368.741 34.6404 368.683 35.3496C368.626 36.0588 368.683 37.036 368.683 37.8794C368.813 38.976 369.137 40.0408 369.642 41.0231C370.116 41.7204 370.381 42.538 370.408 43.3807C370.242 45.8824 370.608 48.3907 371.482 50.7407C371.482 50.8749 371.309 51.0668 371.098 51.4501C369.986 49.6484 368.242 48.3637 368.031 46.1978L367.495 48.4982C366.517 48.4982 365.578 48.4984 364.658 48.6517C361.86 48.8626 361.304 49.9743 362.741 52.4852C362.895 52.8465 363.023 53.2181 363.125 53.5971L359.464 53.0599C359.675 54.2866 360.02 55.1303 361.247 55.2836C361.419 54.2294 362.127 54.2489 362.798 54.7089C364.715 55.9932 366.421 57.2581 368.856 56.5106C369.124 56.5106 369.834 56.8173 369.872 57.0665C370.409 60.1525 372.689 59.27 374.567 59.1358C376.791 58.9825 377.423 59.3661 378.094 61.3212C378.33 61.8021 378.384 62.3524 378.247 62.8701C378.109 63.3877 377.79 63.8383 377.347 64.1392C375.788 65.3906 374.09 66.4576 372.287 67.3203C371.367 67.6845 369.987 66.8988 368.453 66.5538C368.108 67.2822 367.591 68.2596 367.169 69.2755C366.747 70.2913 366.345 71.1927 365.942 72.1319C365.763 72.3909 365.51 72.5884 365.215 72.6981C364.92 72.8078 364.598 72.8241 364.294 72.7449C364.403 73.5976 364.403 74.4613 364.294 75.314C363.872 76.7132 363.201 78.0163 362.665 79.3964C362.381 79.9162 362.312 80.5262 362.474 81.096C362.635 81.6659 363.013 82.1498 363.527 82.4437C363.878 82.6375 364.263 82.7594 364.662 82.8022C365.06 82.845 365.463 82.8076 365.847 82.6927C366.445 82.4486 366.933 81.9942 367.219 81.4152C367.505 80.8361 367.569 80.1731 367.399 79.5499C367.208 78.4573 366.901 77.3645 366.575 75.927V75.4281L371.692 76.4249C372.632 76.5974 373.609 76.7703 374.51 76.8854C376.067 77.1502 377.668 76.886 379.057 76.1357C380.446 75.3854 381.545 74.1918 382.177 72.7449C384.88 73.0516 387.525 73.2241 389.614 70.8281C394.368 77.9393 396.361 85.3386 394.425 93.5614C393.903 95.6794 392.919 97.6549 391.544 99.3482C390.169 101.041 388.436 102.41 386.47 103.356C386.159 103.587 385.804 103.753 385.428 103.844C385.051 103.936 384.66 103.951 384.278 103.888C383.895 103.826 383.529 103.687 383.201 103.48C382.873 103.273 382.591 103.003 382.369 102.685C382.067 103.569 381.451 104.311 380.64 104.774C379.828 105.236 378.875 105.386 377.96 105.196C373.843 105.102 369.735 104.775 365.655 104.218C363.193 103.616 360.887 102.499 358.889 100.94C355.414 98.5168 351.586 96.6423 347.541 95.3818C345.446 94.7915 343.251 94.6452 341.096 94.9522C338.94 95.2591 336.873 96.0128 335.025 97.1647C330.544 99.6604 326.933 103.466 324.675 108.071C323.995 109.354 322.964 110.418 321.703 111.138C319.154 112.786 316.835 114.818 314.228 116.888L309.801 115.891C310.107 114.3 312.139 114.741 313.059 113.706C313.004 113.386 312.9 113.075 312.752 112.786C310.494 110.385 309.083 107.311 308.737 104.033C308.391 100.755 309.128 97.4534 310.836 94.634C312.252 92.4243 313.905 90.3743 315.762 88.5197C317.222 86.9864 318.763 85.5339 320.381 84.1686C324.724 79.9759 329.73 76.5307 335.197 73.9719C339.188 72.1437 343.678 71.7113 347.944 72.7449C352.295 73.566 356.732 73.8364 361.15 73.5498C361.361 73.5498 361.572 73.1663 361.783 72.9938C361.687 72.7255 361.611 72.3808 361.534 72.3808C360.495 72.4165 359.466 72.1633 358.562 71.6489C357.659 71.1345 356.916 70.3791 356.416 69.4673C355.321 68.2251 354.025 67.1752 352.583 66.362C351.164 65.2694 349.688 64.2537 348.289 63.1228C347.668 62.728 347.226 62.1058 347.057 61.3895C346.889 60.6731 347.008 59.9194 347.389 59.2893C347.835 58.4557 347.958 57.4864 347.733 56.5677C347.223 57.5678 346.775 58.5981 346.392 59.6534C346.129 60.3524 346.076 61.1138 346.239 61.8425C346.403 62.5712 346.776 63.2357 347.312 63.7555C348.903 65.1355 350.551 66.4578 352.199 67.7612C353.848 69.0645 355.458 69.6779 356.34 72.0738C354.423 72.0738 352.87 72.1888 351.26 72.0738C349.649 71.9588 347.426 71.5373 345.624 71.269C340.004 70.5431 334.31 71.8628 329.582 74.9873C323.291 78.9145 317.56 83.6733 312.542 89.1336C309.888 91.7832 308.11 95.1813 307.445 98.8718C306.78 102.562 307.261 106.368 308.823 109.777C309.168 110.659 309.571 111.521 309.992 112.479C309.259 113.214 308.579 114.002 307.961 114.837C307.548 115.316 307.27 115.896 307.155 116.517C307.039 117.139 307.09 117.781 307.303 118.376C307.515 118.972 307.88 119.501 308.363 119.909C308.846 120.318 309.427 120.591 310.049 120.702C310.625 120.913 311.161 121.22 311.756 121.488C310.299 126.721 308.19 131.321 303.533 134.311C296 139.16 289.924 145.811 283.273 151.562C275.526 158.308 267.098 164.231 258.125 169.235C243.849 177.106 228.611 183.091 212.794 187.04C211.37 187.447 209.904 187.685 208.425 187.75C207.297 187.786 206.192 188.08 205.196 188.608C204.199 189.136 203.337 189.885 202.674 190.798C201.656 191.958 200.882 193.31 200.398 194.776C199.914 196.241 199.73 197.789 199.856 199.327C199.99 200.669 199.856 202.049 199.856 203.601C195.218 203.831 192.937 207.435 190.273 210.31C183.775 216.961 177.545 223.88 171.316 230.8C163.877 238.909 157.132 247.629 151.151 256.868C149.637 259.264 148.775 262.043 147.318 264.419C143.737 270.29 139.827 275.954 135.607 281.383C129.742 288.436 124.241 295.835 117.551 302.237C109.578 309.904 102.007 317.839 94.2631 325.64C93.8222 326.081 93.3238 326.446 92.7487 326.944L86.8637 321.194C86.5762 320.887 86.136 320.542 86.1169 320.197C85.8869 316.996 83.414 315.597 81.0564 313.834L82.494 312.473C81.0467 310.415 78.8774 308.978 76.418 308.448L79.2735 311.131L74.0605 310.728C76.8398 313.297 80.405 313.795 81.8426 317.341C77.7791 316.766 74.4817 313.756 70.2073 314.581L70.4376 316.958C70.6676 317.169 70.7442 317.284 70.84 317.303C73.0303 318.215 75.2781 318.983 77.5683 319.603C81.8809 320.523 85.8288 321.884 88.4548 325.775C89.2483 326.787 90.1132 327.741 91.0426 328.63C90.5867 329.253 90.0875 329.842 89.5479 330.394C83.3952 335.722 77.3758 341.224 70.9738 346.265C66.8603 349.208 62.6003 351.94 58.209 354.449C56.2922 355.408 54.2219 356.366 52.2669 357.363C51.4462 357.915 50.5214 358.293 49.549 358.475C48.5765 358.656 47.5766 358.636 46.6121 358.417C45.4237 358.11 43.8717 359.069 42.3958 359.49C41.2074 357.88 43.0279 356.941 43.3729 355.887C42.4337 353.97 41.2651 355.887 40.2301 355.427C40.112 354.595 40.2283 353.747 40.567 352.978C40.9057 352.209 41.4534 351.55 42.1468 351.075C45.3861 348.488 45.3285 346.341 41.9934 343.754C39.9538 342.023 37.4898 340.868 34.8552 340.406C32.2206 339.945 29.5101 340.194 27.0038 341.128C26.8523 340.405 26.6148 339.704 26.2953 339.039C26.0364 338.606 25.6828 338.238 25.2611 337.961C24.8395 337.685 24.36 337.508 23.8601 337.444C23.3601 337.379 22.8528 337.429 22.3748 337.589C21.8968 337.749 21.4604 338.015 21.1001 338.368C19.1336 340.202 16.7774 341.567 14.208 342.36C11.6386 343.154 8.92322 343.355 6.26496 342.949C5.46964 342.962 4.68971 342.727 4.03375 342.277C3.37778 341.827 2.87799 341.185 2.60367 340.438C2.20116 340.035 1.62606 339.824 1.08937 339.403ZM366.862 50.9325L363.795 51.7571C363.642 50.2045 364.486 49.8402 365.616 49.6868C366.402 49.6102 367.15 49.667 366.862 50.9513V50.9325ZM384.669 57.3538L387.275 62.2992L384.937 60.9955L385.991 65.7489C385.244 65.3656 384.688 65.2699 384.554 64.9824C383.729 63.0657 383.002 61.1489 382.254 59.2322C382.254 59.0597 382.254 58.8104 382.254 58.5995L383.864 57.0665L384.669 57.3538ZM373.763 34.6402L372.958 32.4549C372.948 32.3208 372.948 32.1864 372.958 32.0524L373.36 31.8989L374.798 35.7324C374.433 35.3874 374.087 35.023 373.763 34.6402ZM382.637 68.202C382.33 67.2244 382.1 66.5733 381.717 65.3849C383.346 66.1324 383.346 66.8415 382.637 68.1449V68.202ZM381.161 60.6314L382.426 64.1392C380.855 62.8166 380.854 62.816 381.161 60.5734V60.6314ZM388.828 66.6306C388.828 66.9564 388.675 67.2823 388.579 67.5889L388.732 67.34C388.732 69.0459 388.483 70.5601 386.816 71.1735C386.412 71.4477 385.942 71.6062 385.455 71.633L385.282 71.7294C384.409 71.633 383.57 71.3376 382.829 70.8665C383.04 70.6365 383.308 70.1955 383.442 70.2338C385.473 70.7897 386.566 69.5829 387.621 68.1645C387.927 67.6087 388.349 67.091 388.771 66.5735L388.828 66.6306ZM391.07 67.2436C390.764 66.7452 390.477 66.2089 390.208 65.6722L390.803 65.3269C391.148 65.8252 391.474 66.3433 391.799 66.8608C391.545 66.9974 391.282 67.1189 391.013 67.2249L391.07 67.2436ZM381.89 72.5146L382.024 72.3424L383.154 72.4576C382.715 72.5107 382.271 72.5107 381.832 72.4576L381.89 72.5146ZM365.54 77.5751V81.1213C363.489 79.3962 363.508 79.2431 365.483 77.518L365.54 77.5751ZM373.073 70.3302C374.702 72.5728 377.922 69.046 379.129 72.247L378.957 72.4576H378.593C376.235 75.4668 372.229 75.8694 366.977 73.4927C366.977 73.4927 366.977 73.3967 366.977 73.3392L367.974 71.9213L367.323 71.8249C367.993 70.7707 369.239 70.1196 369.527 69.0845L374.702 67.9727L375.2 69.6021L373.073 70.3302ZM378.612 64.58L379.187 64.8673L379.417 68.0494L378.785 68.3751C378.248 67.7426 377.347 67.1292 377.289 66.4584C377.232 65.7875 378.075 65.3079 378.554 64.5987L378.612 64.58ZM370.772 30.8451L370.906 31.3626C371.155 32.3018 371.405 33.2789 371.674 34.2181C372.028 34.6865 372.348 35.1797 372.632 35.694C373.169 37.5341 373.724 39.3749 374.299 41.215C374.776 42.458 375.142 43.7409 375.392 45.0485C373.303 43.6109 372.9 41.215 371.884 39.2982C370.982 36.5623 370.586 33.6846 370.715 30.8067L370.772 30.8451ZM420.301 298.288C420.895 298.997 421.24 299.208 421.24 299.438C421.24 300.243 420.819 301.355 422.007 301.47C422.889 301.475 423.742 301.155 424.403 300.57C425.755 299.406 426.999 298.123 428.121 296.736C431.62 292.107 435.64 287.894 440.101 284.181C443.206 281.651 446.101 278.872 449.148 276.246C452.56 273.294 456.048 270.4 460.054 267.007C460.054 271.818 460.208 275.69 460.054 279.543C459.778 281.845 459.368 284.13 458.827 286.385C458.811 286.887 458.693 287.38 458.48 287.834C458.267 288.288 457.964 288.694 457.589 289.027C457.215 289.361 456.776 289.615 456.301 289.773C455.825 289.932 455.322 289.993 454.822 289.951C453.241 290.014 451.678 290.311 450.183 290.833C444.548 292.977 439.326 296.084 434.753 300.014C431.354 302.672 427.937 305.31 424.499 307.93C423.96 308.242 423.388 308.493 422.793 308.678C421.422 305.37 420.563 301.874 420.244 298.308L420.301 298.288ZM417.464 464.796L418.04 464.221L419.707 465.831L419.304 466.234L417.464 464.796ZM348.461 481.951C347.921 482.27 347.475 482.723 347.166 483.268C346.856 483.813 346.695 484.43 346.698 485.057C346.698 486.322 346.583 487.606 346.698 488.89C346.735 489.61 346.625 490.329 346.375 491.004C346.124 491.68 345.739 492.298 345.242 492.819C344.23 494.485 343.516 496.313 343.133 498.224C336.566 498.952 329.938 498.952 323.371 498.224C323.581 497.419 323.974 496.674 324.52 496.045C325.065 495.417 325.748 494.923 326.515 494.602C329.257 493.447 331.611 491.531 333.3 489.081C334.661 487.299 335.964 485.458 338.628 485.727C338.947 485.721 339.25 485.591 339.472 485.363C341.024 483.734 342.482 484.367 343.958 485.459C344.435 485.716 344.935 485.927 345.452 486.091C345.263 485.159 344.775 484.314 344.062 483.685C343.35 483.055 342.452 482.676 341.504 482.603C339.923 482.356 338.306 482.537 336.819 483.127C335.333 483.717 334.031 484.694 333.05 485.957C332.205 487.174 331.256 488.316 330.214 489.369C329.006 490.481 328.163 492.532 325.863 491.612C325.758 491.604 325.654 491.621 325.558 491.661C325.461 491.7 325.376 491.762 325.308 491.841C323.659 494.39 321.339 493.643 319.059 493.145C318.886 493.145 318.656 493.26 318.272 493.394C318.771 495.483 320.802 494.736 322.106 495.522C321.527 496.336 320.706 496.948 319.76 497.271C318.815 497.595 317.791 497.613 316.835 497.324C314.918 497.075 314.247 496.231 313.711 493.969C318.426 490.864 321.684 486.302 325.211 481.99C326.369 480.528 327.927 479.435 329.696 478.846C331.138 478.522 332.404 477.667 333.242 476.45C334.529 474.327 336.399 472.617 338.628 471.524C340.929 470.374 343.765 470.432 346.295 469.608C346.463 469.551 346.645 469.551 346.813 469.608C347.235 469.761 347.618 471.006 348.078 471.351C349.112 472.157 349.967 473.169 350.589 474.323C351.171 475.354 351.524 476.498 351.625 477.677C351.586 479.575 349.994 480.878 348.423 481.97L348.461 481.951ZM414.378 464.375C414.811 464.703 415.11 465.178 415.22 465.711C415.329 466.243 415.241 466.796 414.973 467.269C414.391 468.618 414.097 470.074 414.11 471.543C414.244 476.891 414.666 482.239 414.781 487.586C415.002 489.651 414.396 491.719 413.094 493.337L410.967 491.42C410.411 496.614 410.411 496.614 405.715 497.86L405.523 499.777C402.207 499.777 401.823 499.26 402.571 496.327C402.856 495.097 403.274 493.901 403.817 492.761C404.728 491.081 405.032 489.139 404.679 487.261C404.612 486.579 404.612 485.891 404.679 485.209C410.008 485.727 412.347 483.907 412.979 479.153C413.046 478.106 413.046 477.056 412.979 476.009C412.864 473.902 412.864 471.791 412.979 469.684C413.301 467.89 413.756 466.121 414.34 464.394L414.378 464.375ZM393.294 354.545L396.341 353.491V350.232L404.507 354.296C400.838 355.41 396.935 355.503 393.217 354.565L393.294 354.545ZM373.13 444.919C377.136 441.642 378.65 440.837 380.969 440.741C380.091 442.033 378.912 443.091 377.532 443.822C376.153 444.554 374.615 444.937 373.053 444.939L373.13 444.919ZM359.713 444.345L365.463 446.434C363.029 447.545 361.362 446.587 359.694 444.363L359.713 444.345ZM355.017 386.747C355.401 381.169 355.764 375.821 356.148 370.071C357.106 369.649 358.505 368.959 359.981 368.403C363.106 367.234 364.849 367.904 366.709 370.684C367.401 371.717 368.176 372.691 369.028 373.597C371.213 375.878 373.667 377.93 375.622 380.364C379.839 385.978 383.162 392.21 385.474 398.841C375.775 392.535 364.83 390.771 354.998 386.765L355.017 386.747ZM320.419 117.98C316.797 120.338 316.797 120.338 314.669 120.166C316.452 118.402 317.218 116.025 319.748 115.162L320.419 117.98ZM370.255 202.317C369.105 199.749 368.338 197.583 367.188 195.532C366.754 194.803 366.501 193.981 366.447 193.135C366.394 192.288 366.543 191.441 366.882 190.663C368.581 186 371.129 181.692 374.395 177.955C375.166 177.231 375.745 176.326 376.08 175.323C376.414 174.319 376.494 173.247 376.312 172.205C376.044 170.633 375.794 169.08 375.526 167.509C374.625 161.988 373.609 156.488 372.861 150.929C372.676 149.366 372.84 147.782 373.34 146.291C374.498 142.557 375.862 138.891 377.424 135.308C379.683 130.164 380.869 124.613 380.912 118.996C381.214 115.722 381.935 112.501 383.059 109.412C384.669 113.84 386.318 118.191 386.049 122.944C385.762 128.33 385.34 133.698 385.244 139.084C385.244 143.301 385.435 147.517 385.627 151.734C385.895 157.752 386.298 163.752 386.528 169.771C386.58 171.142 386.384 172.512 385.953 173.815C385.632 174.403 385.465 175.062 385.465 175.732C385.465 176.401 385.632 177.06 385.953 177.648C386.355 178.319 385.953 179.681 385.589 180.581C385.052 181.827 384.075 182.881 383.5 184.108C380.395 190.932 375.296 196.452 370.216 202.317H370.255ZM359.042 167.816C361.552 165.8 363.939 163.637 366.191 161.337C368.162 158.896 369.981 156.336 371.635 153.67C372.689 159.421 373.647 165.036 374.778 170.614C375.064 171.354 375.161 172.152 375.061 172.939C374.96 173.725 374.666 174.475 374.203 175.119C370.459 179.69 367.464 184.827 365.329 190.337C365.176 190.663 364.811 190.893 364.198 191.545C363.527 190.28 362.952 189.322 362.492 188.325C361.342 185.948 360.268 183.553 359.118 181.176C358.754 180.409 358.314 179.681 357.413 179.815C357.354 179.567 357.277 179.323 357.183 179.086L359.656 177.763C359.656 176.364 359.425 174.601 359.387 172.838C359.349 171.074 360.345 169.33 359.003 167.759L359.042 167.816ZM332.534 147.997C333.22 153.138 334.782 158.123 337.153 162.736C338.111 164.653 339.069 166.57 340.277 168.755C338.724 168.602 337.498 168.409 336.233 168.352C335.429 168.332 334.657 168.037 334.043 167.518C333.43 166.999 333.012 166.286 332.859 165.496C331.422 160.628 329.716 155.817 328.642 150.872C327.71 145.978 327.458 140.98 327.894 136.017L330.789 134.656C332.11 136.655 332.736 139.032 332.571 141.422C332.358 143.588 332.333 145.768 332.495 147.939L332.534 147.997ZM331.575 166.742C330.459 166.071 329.269 165.531 328.029 165.132C327.312 164.99 326.643 164.665 326.089 164.188C325.535 163.711 325.114 163.099 324.867 162.411C323.407 159.127 322.637 155.578 322.605 151.984C322.375 148.955 322.375 145.888 322.279 142.629L326.113 139.198C327.55 143.856 326.113 148.61 327.704 153.133C329.294 157.657 330.176 161.893 331.594 166.685L331.575 166.742ZM345.567 170.576C349.401 169.886 353.407 169.656 357.854 169.158L354.71 172.569C355.554 173.048 356.722 173.317 357.048 173.988C357.642 175.272 356.416 175.904 355.572 176.805C352.974 179.49 349.513 181.173 345.798 181.559C338.826 182.202 331.803 181.123 325.346 178.415C324.503 178.051 323.908 177.15 323.122 176.498C322.234 176.836 321.26 176.873 320.349 176.603C319.438 176.333 318.641 175.771 318.081 175.003C318.963 169.579 320.189 168.41 324.655 167.949L327.32 170.02C327.435 168.793 327.512 168.104 327.627 166.8L334.182 170.978C337.651 169.253 341.638 171.227 345.529 170.537L345.567 170.576ZM367.84 200.899L368.568 203.16C368.399 203.126 368.243 203.046 368.117 202.927C367.992 202.809 367.902 202.656 367.859 202.489C367.789 201.949 367.771 201.404 367.802 200.861L367.84 200.899ZM373.15 230.053C370.973 228.361 369.514 225.911 369.066 223.191C368.408 217.738 368.345 212.23 368.875 206.764C368.875 206.572 369.278 206.4 369.68 206.074C372.669 213.679 373.844 221.876 373.111 230.014L373.15 230.053ZM363.469 267.774C362.837 268.924 362.032 269.979 361.15 271.301C353.579 264.343 346.813 257.309 342.577 248.185C341.83 246.556 340.986 244.946 340.104 243.393C338.611 240.703 337.606 237.77 337.134 234.73C336.768 232.441 336.177 230.194 335.371 228.021C333.875 224.187 332.016 220.527 330.482 216.712C329.567 214.245 328.787 211.731 328.144 209.179C326.994 204.886 325.844 200.592 324.886 196.26C324.042 192.426 323.294 188.593 322.815 184.759C322.617 183.858 322.65 182.922 322.912 182.037C323.173 181.152 323.655 180.348 324.311 179.7C331.863 182.664 339.992 183.863 348.078 183.207C348.773 185.434 349.618 187.612 350.608 189.724C354.051 196.269 356.956 203.083 359.291 210.099C361.535 216.372 363.128 222.86 364.045 229.459C364.373 230.857 364.371 232.313 364.038 233.71C363.706 235.108 363.052 236.408 362.128 237.508C364.371 237.508 365.137 235.956 365.329 234.269C365.626 232.178 365.626 230.054 365.329 227.963C364.44 222.866 363.288 217.819 361.878 212.84C360.126 206.209 357.672 199.784 354.557 193.673C352.64 190.242 350.493 186.753 351.279 182.325L357.029 179.201L357.24 179.872C356.99 179.92 356.75 180.011 356.531 180.141C358.083 183.533 359.809 186.791 361.093 190.222C362.818 194.765 365.904 198.906 365.291 204.177C365.291 204.445 365.597 204.732 365.655 205.039C366.165 206.719 366.448 208.459 366.498 210.214C366.138 214.645 366.357 219.104 367.149 223.478C367.514 225.231 367.701 227.016 367.705 228.806C367.514 233.234 366.9 237.662 366.824 242.09C366.869 247.538 364.88 252.807 361.247 256.868C360.794 257.311 360.412 257.822 360.115 258.382C359.987 258.589 359.907 258.822 359.882 259.064C359.857 259.306 359.887 259.55 359.97 259.779C360.053 260.008 360.187 260.215 360.361 260.385C360.536 260.554 360.747 260.683 360.978 260.759C361.936 261.181 362.511 260.605 362.895 259.743C363.738 258.152 364.581 256.58 365.54 255.104C367.289 252.566 368.273 249.579 368.376 246.498C368.53 241.859 369.085 237.24 369.507 232.601C369.636 231.769 369.809 230.944 370.025 230.13C371.711 231.069 373.417 231.567 373.13 233.828C372.44 239.368 371.865 244.946 371.079 250.466C370.849 252.057 370.351 253.801 367.82 253.992C368.48 254.552 368.899 255.344 368.992 256.203C369.085 257.063 368.844 257.925 368.319 258.612C366.728 261.583 365.118 264.649 363.431 267.735L363.469 267.774ZM378.344 315.194C380.261 314.332 380.893 314.715 381.276 316.287L378.344 315.194ZM345.988 317.111L347.158 319.948C345.012 319.315 345.357 318.319 345.951 317.034L345.988 317.111ZM328.508 360.276C332.093 360.276 335.14 362.02 338.36 363.132C336.646 361.297 334.401 360.043 331.939 359.547C329.908 359.011 327.741 358.666 326.534 356.481C324.157 357.612 322.49 355.944 320.401 355.331C320.304 354.799 320.246 354.261 320.228 353.721C320.649 344.636 321.11 335.55 321.531 326.465C321.665 323.628 321.876 320.714 321.78 317.935C321.646 314.236 320.726 310.498 321.09 306.875C321.8 299.898 323.16 292.998 322.7 285.791C323.267 286.681 323.682 287.659 323.927 288.686C325.174 294.158 327.106 299.452 329.677 304.441C330.548 306.436 331.682 308.307 333.05 310C335.528 312.744 338.249 315.258 341.178 317.514C345.011 320.331 345.759 324.337 346.564 328.477C346.842 330.341 347.239 332.185 347.753 333.998C349.286 338.751 351.049 343.428 352.583 348.182C353.158 349.983 353.157 352.015 353.732 353.76C355.093 357.957 354.326 362.116 353.732 366.276C353.349 368.71 352.793 369.112 350.378 369.131C349.057 369.264 347.724 369.06 346.504 368.537C345.284 368.014 344.216 367.19 343.402 366.142C343.011 365.75 342.557 365.426 342.06 365.183L341.562 365.681C342.213 366.41 342.846 367.157 343.478 367.847C344.788 369.025 346.341 369.9 348.027 370.41C349.713 370.921 351.491 371.053 353.234 370.799C354.348 375.879 353.962 381.173 352.122 386.037C349.726 385.117 347.254 384.235 344.858 383.219C341.561 381.82 338.322 380.229 335.006 378.868C329.102 376.415 330.444 377.623 329.103 371.854C328.528 369.712 328.359 367.482 328.604 365.279C328.948 363.925 328.895 362.501 328.45 361.177C328.278 360.947 328.432 360.602 328.47 360.2L328.508 360.276ZM317.468 284.335L319.73 284.104C320.693 287.936 320.83 291.927 320.132 295.816C319.898 295.97 319.647 296.099 319.384 296.199C318.969 296.228 318.553 296.228 318.139 296.199C311.125 296.193 304.172 294.893 297.629 292.366C287.029 288.532 277.293 282.955 267.575 277.377C265.962 276.361 264.413 275.247 262.937 274.042C262.703 273.854 262.445 273.699 262.169 273.582L263.454 269.001C265.031 267.357 266.148 265.328 266.693 263.117C268.246 257.616 269.587 252.057 271.235 246.594C272.75 241.407 273.398 236.006 273.152 230.609C273.152 228.788 273.152 226.948 273.152 224.859C275.022 225.622 276.852 226.479 278.635 227.427C287.256 232.368 296.316 236.5 305.699 239.77C309.13 241.016 309.82 241.86 308.9 245.405C307.711 249.901 306.298 254.335 304.664 258.689C303.828 260.636 302.732 262.461 301.405 264.113C299.795 266.356 299.699 267.008 301.731 268.867C304.587 271.74 308.205 273.735 312.158 274.617L319.384 275.94C319.193 278.815 319.959 281.69 317.429 284.258L317.468 284.335ZM311.066 250.925C313.558 258.592 316.049 266.259 318.733 274.252C312.388 273.965 307.328 272.048 303.514 267.582C305.047 264.649 306.562 262.12 307.712 259.417C308.862 256.714 309.628 253.84 310.51 251.06L311.066 250.925ZM310.529 236.914L310.126 229.247C311.003 231.683 311.137 234.326 310.51 236.838L310.529 236.914ZM94.7993 329.512C102.006 321.845 108.964 314.505 115.999 307.202C125.483 297.665 134.157 287.355 141.932 276.38C144.999 271.934 148.027 267.468 150.903 262.963C153.778 258.459 156.404 252.938 159.758 248.357C164.203 242.343 168.983 236.583 174.076 231.107C179.519 225.222 185.442 219.779 191.231 214.201C193.359 212.15 195.659 210.253 197.901 208.336C198.457 207.859 199.132 207.541 199.854 207.416C200.576 207.291 201.319 207.364 202.003 207.627C206.373 208.757 210.628 210.214 214.96 211.46C216.21 211.792 217.5 211.947 218.793 211.92C221.726 211.92 223.662 210.77 224.141 208.853C224.62 206.937 223.413 205.02 220.94 203.544C220.601 203.42 220.247 203.342 219.887 203.314C219.138 203.883 218.526 204.612 218.095 205.448C217.664 206.283 217.425 207.204 217.394 208.144L220.998 205.269C221.438 206.496 222.206 207.531 221.976 208.259C221.783 208.725 221.486 209.141 221.107 209.473C220.728 209.805 220.277 210.046 219.79 210.176C218.125 210.415 216.434 210.415 214.768 210.176C210.015 209.563 206.603 205.94 202.233 204.426C201.773 204.272 201.39 203.486 201.294 202.911C201.004 201.568 200.837 200.202 200.795 198.829C200.968 196.725 201.839 194.739 203.27 193.186C204.7 191.634 206.609 190.604 208.692 190.261C209.745 190.184 210.787 189.992 211.798 189.686C218.621 187.463 225.464 185.239 232.23 182.862C241.814 179.45 251.608 176.23 260.195 170.365C268.131 164.941 276.468 160.111 283.694 153.632C291.765 146.148 300.354 139.242 309.398 132.969C309.962 132.613 310.432 132.125 310.765 131.547C311.099 130.97 311.288 130.32 311.315 129.653C311.599 127.985 312.15 126.374 312.944 124.881C313.251 124.172 314.037 123.213 314.631 123.213C316.416 122.933 318.088 122.163 319.461 120.989C319.928 120.559 320.495 120.251 321.111 120.094C321.727 119.936 322.371 119.935 322.988 120.089C323.467 120.242 324.329 119.725 324.904 119.322C325.709 118.671 326.343 117.808 327.109 117.099C329.486 114.818 329.582 114.013 327.627 111.023C331.211 104.985 335.926 100.269 343.056 98.3907C344.798 97.8853 346.668 98.0783 348.27 98.9279C350.321 100.02 352.257 101.305 354.231 102.512C354.731 102.895 355.271 103.222 355.841 103.49C357.911 104.199 360.058 104.755 362.128 105.503C364.689 106.502 367.411 107.021 370.159 107.036C373.207 107.036 376.254 107.38 379.321 107.61C379.877 107.744 380.417 107.937 380.932 108.186C380.567 109.834 380.203 111.368 379.897 112.901C379.431 114.62 379.123 116.378 378.977 118.152C378.893 123.981 377.587 129.728 375.143 135.02C374.472 136.458 373.84 137.915 373.226 139.371C372.21 141.787 370.428 144.202 370.39 146.636C370.175 150.097 368.971 153.424 366.92 156.22C361.879 164.059 354.959 168.544 345.414 168.621C344.747 168.732 344.062 168.645 343.445 168.369C342.827 168.093 342.305 167.64 341.944 167.068C340.277 164.269 338.418 161.548 337.019 158.616C334.61 153.054 333.609 146.984 334.105 140.943C334.22 138.413 334.201 135.882 332.188 134.042C332.334 133.769 332.507 133.513 332.706 133.276C335.854 130.924 338.504 127.972 340.504 124.59C342.504 121.208 343.815 117.463 344.36 113.572C344.724 111.401 344.839 109.195 344.704 106.997C344.694 106.089 344.399 105.208 343.858 104.478C343.318 103.748 342.561 103.208 341.695 102.934C341.926 103.712 342.099 104.507 342.213 105.311C342.525 107.797 342.57 110.309 342.347 112.805C341.356 118.349 338.954 123.544 335.371 127.89C333.109 130.669 330.923 133.756 326.974 134.695C326.15 134.886 325.499 136.055 324.886 136.879C324.272 137.703 324.445 138.432 323.927 138.796C320.892 141.385 317.618 143.683 314.152 145.658C309.992 147.575 305.449 149.165 303.418 153.976C303.092 154.781 302.058 155.28 301.387 155.893C300.716 156.506 299.566 157.657 298.722 158.596C295.828 161.816 292.971 165.036 290.077 168.295C289.49 168.977 288.764 169.526 287.948 169.906C287.132 170.287 286.244 170.489 285.343 170.499C283.235 170.595 281.107 170.691 278.999 170.883C278.539 170.883 278.098 171.38 277.427 171.745C277.887 171.917 278.385 172.051 278.884 172.185C276.277 172.84 273.84 174.043 271.734 175.713C271.279 175.786 270.842 175.949 270.45 176.192C268.497 177.638 266.622 179.186 264.834 180.83C262.208 183.299 259.035 185.111 255.576 186.12C254.276 186.494 252.996 186.936 251.742 187.444C247.235 189.262 242.553 190.611 237.769 191.468C233.282 192.419 229.124 194.535 225.713 197.602C226.537 197.602 226.882 197.602 227.093 197.448C231.828 194.075 237.406 193.25 242.926 192.311C246.368 191.777 249.717 190.758 252.874 189.284C253.935 188.801 255.047 188.441 256.19 188.21C258.972 187.541 261.559 186.228 263.742 184.377C266.31 182.192 268.782 179.891 271.255 177.591L271.409 177.419L285.574 172.512C286.713 172.397 287.825 172.1 288.87 171.63C289.528 171.291 290.13 170.851 290.653 170.327C295.579 164.96 300.466 159.554 305.373 154.168C306.884 152.049 309.134 150.573 311.679 150.029C310.709 150.623 310.004 151.565 309.708 152.663C309.412 153.761 309.548 154.931 310.088 155.931C310.375 156.564 310.088 157.427 310.261 158.136C310.97 160.782 311.641 163.445 312.58 165.994C312.811 166.683 313.182 167.316 313.671 167.854C314.159 168.392 314.754 168.823 315.417 169.119C314.256 166.556 313.252 163.925 312.408 161.241C311.565 157.906 310.817 154.475 313.903 151.523C315.52 149.738 317.037 147.862 318.446 145.907C319.078 145.14 319.596 143.991 321.436 144.374C319.979 151.753 322.509 158.75 323.353 166.168C321.729 166.401 320.2 167.074 318.933 168.115C317.666 169.156 316.709 170.524 316.165 172.071L313.5 169.963C312.063 172.876 312.082 173.95 313.826 174.467C316.816 175.387 318.695 178.032 321.129 178.626C321.119 182.332 321.37 186.034 321.877 189.705C323.793 198.368 326.055 206.956 328.183 215.562C328.336 216.175 328.738 216.904 328.566 217.479C327.952 219.146 328.969 220.277 329.582 221.6C331.499 225.433 333.798 229.267 334.757 233.445C338.694 247.537 346.63 260.186 357.604 269.864C359.272 271.32 361.438 272.623 361.342 274.846C362.666 275.416 363.921 276.136 365.08 276.993C369.584 281.421 374.088 285.868 378.363 290.526C383.55 295.787 388.409 301.362 392.911 307.221C394.384 309.265 395.145 311.736 395.077 314.255C394.723 314.375 394.356 314.453 393.984 314.485C390.15 314.025 386.317 313.45 382.35 313.124C380.771 313.012 379.285 312.331 378.171 311.208C371.06 304.384 363.834 297.79 357.336 290.296C349.464 281.721 342.375 272.458 336.156 262.618C334.405 259.725 333.015 256.629 332.016 253.398C329.774 245.731 327.684 238.16 325.997 230.397C324.215 222.155 322.988 213.817 321.493 205.48C321.493 205.345 321.148 205.288 320.822 205.135C320.368 205.832 320.09 206.629 320.013 207.457C319.936 208.285 320.063 209.12 320.381 209.889C322.298 220.182 324.444 230.436 326.495 240.69C328.973 252.774 334.361 264.071 342.193 273.601C347.305 279.99 352.506 286.245 357.796 292.366C362.766 298.269 368.237 303.733 374.146 308.696C375.407 309.865 376.597 311.106 377.711 312.415L377.347 313.066C376.48 313.06 375.616 312.945 374.778 312.722C373.82 312.338 372.996 311.591 372.056 311.112C364.83 307.279 357.336 305.974 349.439 308.792C347.752 309.405 346.161 310.23 344.455 310.805C342.117 311.61 341.561 312.722 342.539 315.003C342.826 315.769 343.075 316.574 343.42 317.648C343.051 317.547 342.691 317.413 342.347 317.245C341.923 316.932 341.52 316.593 341.14 316.23C334.807 310.396 330.171 302.958 327.722 294.705C326.975 292.059 326.284 289.395 325.46 286.769C324.732 284.01 323.79 281.312 322.643 278.7C321.474 276.38 321.952 273.39 319.633 271.589C319.499 271.493 319.5 271.186 319.442 270.994C317.526 265.244 315.494 259.398 313.692 253.513C312.484 249.431 310.702 245.233 313.27 240.959C313.311 240.757 313.311 240.547 313.27 240.345C313.985 234.345 313.517 228.263 311.89 222.443C310.766 218.015 310.714 213.383 311.737 208.93C313.194 201.8 314.957 194.708 316.586 187.616C316.852 187.019 316.936 186.356 316.827 185.711C316.718 185.067 316.421 184.469 315.973 183.993C313.864 186.676 313.883 189.744 313.27 192.561C312.657 195.379 311.833 198.733 311.066 201.8C310.299 204.866 309.513 207.646 308.67 210.77C308.304 209.414 308.016 208.038 307.807 206.649C307.055 200.325 307.563 193.914 309.303 187.788C309.993 185.68 310.548 183.514 311.046 181.348C311.304 180.712 311.34 180.007 311.144 179.349C310.949 178.691 310.537 178.118 309.974 177.725C308.594 180.964 308.957 184.51 306.964 187.309L306.197 185.392C305.929 187.021 305.278 188.612 305.699 188.977C306.734 189.916 306.14 190.721 306.063 191.564C305.159 198.934 305.626 206.408 307.443 213.607C307.989 215.75 308.279 217.951 308.306 220.162C308.44 225.222 308.306 230.302 308.306 235.381V239.31C304.702 238.179 301.502 237.393 298.512 236.186C293.674 234.311 288.967 232.115 284.423 229.612C279.574 226.814 273.632 225.509 270.489 220.142C270.28 219.937 270.023 219.789 269.741 219.712C269.459 219.635 269.161 219.631 268.878 219.702C268.344 220.145 268.001 220.777 267.919 221.466C267.948 222.101 268.177 222.711 268.572 223.209C270.145 225.854 270.93 228.894 270.833 231.97C271.101 239.637 268.917 246.824 266.847 254.05C265.467 259.015 263.243 263.729 261.403 268.579V268.694L260.177 270.17C260.472 270 260.754 269.808 261.02 269.595C260.94 269.757 260.912 269.939 260.939 270.117C260.967 270.296 261.048 270.461 261.172 270.592L260.675 271.684C260.96 271.418 261.217 271.122 261.441 270.802C261.517 270.864 261.6 270.916 261.69 270.956L262.573 270.304C262.267 271.509 262.036 272.731 261.882 273.965C261.722 273.954 261.564 273.996 261.43 274.082C261.295 274.168 261.192 274.295 261.135 274.444C260.943 274.789 261.556 275.633 261.92 276.189C262.054 276.399 262.476 276.438 262.764 276.591C270.814 280.999 278.807 285.562 286.973 289.759C293.843 293.539 301.301 296.131 309.034 297.426C311.909 297.848 314.784 298.461 317.89 299.017C318.33 301.835 318.847 304.633 319.192 307.451C320.288 318.831 320.244 330.293 319.059 341.665C318.694 346.418 318.465 351.248 318.33 355.906C318.33 356.5 319.154 357.248 319.748 357.689C320.335 358.004 321.001 358.144 321.665 358.091C324.828 358.091 325.901 360.334 326.572 362.921C326.695 363.554 326.778 364.195 326.821 364.838C327.204 367.886 327.588 370.914 327.953 373.961C327.953 374.632 327.952 375.322 328.125 376.626C326.493 375.761 324.958 374.727 323.543 373.54C319.71 369.362 315.966 365.081 312.312 360.698C309.264 356.998 307.424 352.284 302.938 349.773C297.188 346.495 291.208 343.812 284.327 346.457C283.694 346.706 283.024 346.897 282.315 347.146C282.194 346.778 282.104 346.4 282.046 346.016C282.046 345.211 281.778 344.405 280.782 344.693C280.36 344.808 280.053 345.536 279.823 346.035C279.556 346.788 279.332 347.556 279.152 348.335C278.347 347.645 277.925 347.357 277.58 346.993C275.548 344.885 273.651 342.604 271.466 340.648C266.539 336.451 260.757 333.377 254.522 331.64C252.156 330.744 249.702 330.102 247.2 329.724C237.192 328.584 227.064 329.096 217.222 331.238C206.028 333.94 194.949 337.103 183.813 340.035C176.146 342.067 168.479 344.099 160.812 346.016C158.272 346.728 155.675 347.215 153.049 347.472C147.683 347.856 142.278 347.97 136.911 348.162C136.377 348.174 135.844 348.13 135.32 348.028C128.606 347.149 122.034 345.403 115.768 342.834C113.852 342.086 111.935 341.377 110.018 340.802C103.765 338.903 98.3703 334.883 94.761 329.435L94.7993 329.512ZM315.512 407.16L320.534 410.514C320.688 411.703 322.355 412.776 320.534 414.348C317.449 412.987 316.26 410.322 315.474 407.083L315.512 407.16ZM319.902 512.351C320.17 512.351 322.682 512.198 326.668 512.14C325.288 512.121 319.538 512.389 319.863 512.274L319.902 512.351ZM100.09 455.174C98.1733 451.341 98.959 447.2 98.499 443.405L96.5822 443.233L99.0549 440.99C100.032 445.188 100.971 448.964 101.795 452.759C102.006 453.929 101.777 454.963 100.052 455.097L100.09 455.174ZM102.754 456.094C103.003 457.225 103.233 458.279 103.559 459.697C100.76 457.052 100.76 457.052 102.715 456.017L102.754 456.094ZM90.4296 451.686C93.2663 453.315 95.5664 454.867 98.0965 456.017C99.0588 456.493 99.8742 457.219 100.458 458.12C101.041 459.021 101.372 460.062 101.412 461.135C97.0669 458.832 93.299 455.576 90.3912 451.609L90.4296 451.686ZM45.9036 361.867L48.395 361.043C48.9575 361.623 49.3444 362.35 49.5106 363.14C49.6768 363.931 49.6161 364.752 49.3346 365.509L45.9036 361.867Z" fill="black"/>
<path d="M164.301 451.284C164.186 450.441 163.956 449.559 165.623 449.214C167.091 454.089 167.091 459.289 165.623 464.164C164.646 463.321 163.706 462.247 163.399 462.247C161.138 463.091 161.138 461.079 160.429 459.948C154.774 461.27 155.004 456.248 153.126 453.239C152.904 454.054 152.615 454.848 152.263 455.615C151.017 458.136 150.442 460.936 150.595 463.743C150.534 464.901 150.206 466.029 149.637 467.039C148.793 468.592 148.123 468.611 146.034 467.615C148.468 466.886 149.12 466.081 149.388 463.302C149.716 460.361 149.134 457.391 147.72 454.792C148.161 454.207 148.517 453.561 148.775 452.875C148.82 452.226 148.736 451.574 148.526 450.958C147.644 447.297 146.762 443.656 145.727 439.458C150.001 444.652 149.139 450.69 150.346 456.21C151.087 455.166 151.555 453.954 151.707 452.683C151.707 445.265 151.056 437.963 147.337 430.909C149.254 430.641 149.561 431.772 149.925 432.711C151.5 437.083 152.516 441.636 152.953 446.262C153.486 449.574 154.334 452.828 155.483 455.98C155.669 456.773 156.132 457.474 156.789 457.956C157.446 458.438 158.255 458.668 159.068 458.606C161.406 454.255 159.853 449.214 161.08 444.422C162.263 446.268 162.701 448.494 162.307 450.651C162.181 453.794 163.009 456.902 164.683 459.564C165.022 458.942 165.187 458.24 165.163 457.532C164.952 455.443 164.607 453.373 164.301 451.284Z" fill="black"/>
<path d="M69.6719 305.631C67.5443 306.072 65.6846 306.992 64.8604 304.117C64.707 303.638 63.6912 303.331 62.9436 303.082C61.6402 302.622 60.3176 302.239 58.995 301.856C55.8076 300.673 52.3906 300.24 49.0089 300.59C45.6317 300.945 42.291 301.586 39.0227 302.507C35.0219 303.979 31.4791 306.478 28.7492 309.752C26.1616 312.819 23.5548 315.867 21.0822 318.991C18.6096 322.116 15.3317 325.01 12.6674 328.345C10.1992 331.057 7.52073 333.569 4.65603 335.858C5.33267 335.818 6.01125 335.818 6.68789 335.858C7.26069 335.986 7.82399 336.153 8.37441 336.357C7.03268 340.44 6.03616 340.785 2.81603 338.83C2.03005 338.407 1.38619 337.76 0.966671 336.972C0.547148 336.184 0.37075 335.29 0.458471 334.402C3.61727 333.756 6.40409 331.916 8.23964 329.265C8.71784 328.539 9.30663 327.892 9.98417 327.348C11.8947 326.068 13.7252 324.672 15.4658 323.169C18.4368 320.16 21.2164 316.94 23.9573 313.739C28.3467 308.64 32.2377 303.063 39.2913 301.031C43.604 299.785 47.8784 298.386 52.3444 299.114C56.8105 299.843 61.4103 301.127 65.8955 302.315C66.771 302.462 67.5888 302.851 68.2559 303.436C68.9229 304.022 69.4132 304.782 69.6719 305.631Z" fill="black"/>
<path d="M412.122 45.8914C412.122 45.2397 411.279 44.2045 410.551 43.8212C408.909 42.8682 407.131 42.1701 405.28 41.7509C402.252 41.2934 399.198 41.0374 396.137 40.9844C395.079 40.9358 394.028 41.1881 393.108 41.7126C392.381 42.2332 391.885 43.0175 391.728 43.8979C391.555 44.8946 392.265 45.4313 393.395 45.8147C397.727 47.0989 401.062 50.0502 405.03 52.9444C403.253 52.9972 401.517 52.4055 400.142 51.2776C397.766 49.9167 395.351 48.5941 392.898 47.4441C392.033 47.0717 391.071 46.9907 390.156 47.2139C396.117 51.3157 403.075 53.9035 407.522 59.9029L407.925 59.5389C407.369 58.523 406.793 57.5255 406.142 56.3755C406.352 56.2413 406.564 56.0119 406.794 55.9927C407.733 55.9927 408.595 55.5326 408.499 54.5168C408.342 53.8298 407.931 53.2276 407.349 52.8303C405.317 51.3352 403.19 49.9355 401.101 48.4979C400.717 48.2296 400.391 47.9035 399.72 47.3477C401.557 47.8993 403.436 48.3028 405.337 48.555C407.007 48.5951 408.671 48.3561 410.262 47.8465C410.952 47.4823 412.007 46.5623 412.122 45.8914ZM409.822 44.875C405.988 46.7918 399.74 45.7377 396.117 42.6326C400.783 41.8701 405.57 42.6576 409.745 44.875H409.822Z" fill="black"/>
<path d="M35.8403 318.665C35.0352 318.799 34.4602 318.818 33.9235 318.971C33.263 319.152 32.6212 319.397 32.0068 319.7C29.4958 321.003 29.2076 320.946 26.4858 318.109C28.0576 317.036 29.4184 315.349 30.7218 315.387C31.7913 315.42 32.8324 315.742 33.7335 316.32C34.6346 316.897 35.3629 317.707 35.8403 318.665Z" fill="black"/>
<path d="M411.03 66.7855C411.548 70.044 409.554 71.6541 406.564 70.1782C403.834 68.8542 401.47 66.8796 399.682 64.428C397.911 62.7576 396.418 60.8167 395.255 58.6777C395.869 59.3869 397.344 61.0162 398.744 62.5112C399.434 63.1921 400.164 63.8321 400.929 64.428C402.62 65.8263 404.428 67.0771 406.334 68.166C406.84 68.3712 407.387 68.4567 407.932 68.4168C408.477 68.3769 409.006 68.2125 409.477 67.9358C409.995 67.5716 410.014 66.0191 409.726 65.099C409.07 63.2239 408.309 61.387 407.446 59.5977L407.848 59.2337C409.681 61.3506 410.796 63.9948 411.03 66.7855Z" fill="black"/>
<path d="M63.7088 310.846C64.8274 311.266 66.0036 311.511 67.1969 311.574C66.6903 310.684 66.0011 309.912 65.1753 309.308C64.3495 308.703 63.4058 308.28 62.405 308.066C61.7566 307.267 60.8984 306.665 59.9267 306.326C58.9551 305.987 57.9082 305.926 56.9038 306.149C55.5773 306.402 54.3451 307.012 53.3389 307.912C57.2682 307.548 60.3545 309.715 63.7088 310.846ZM59.281 308.086L59.4532 307.625L62.405 308.104C62.405 308.449 62.6154 308.795 62.8646 309.6L59.281 308.086Z" fill="black"/>
<path d="M362.594 314.083C363.164 315.51 363.836 316.894 364.607 318.224C366.025 320.562 367.596 322.805 369.091 325.066L368.67 325.469C364.675 320.624 361.03 315.499 357.764 310.135C358.864 310.258 359.904 310.697 360.761 311.397C361.618 312.098 362.255 313.03 362.594 314.083Z" fill="black"/>
<path d="M358.299 38.8965C358.299 40.9857 360.657 42.5952 359.545 44.9911C357.092 43.2661 356.823 42.0399 358.299 38.8965Z" fill="black"/>
<path d="M331.218 414.157C328.534 411.358 328.342 410.112 330.719 408.924C330.144 410.706 332.579 412.125 331.218 414.157Z" fill="black"/>
<path d="M362.288 35.4287C363.002 36.2631 363.539 37.233 363.869 38.2805C364.198 39.3279 364.312 40.4307 364.205 41.5234C362.978 39.3383 362.729 36.4827 359.279 35.6393C360.851 34.4126 361.809 34.6429 362.288 35.4287Z" fill="black"/>
<path d="M63.4026 313.739L56.1567 311.535C57.4331 311.215 58.7657 311.188 60.0539 311.457C61.342 311.726 62.5529 312.283 63.5944 313.088L63.4026 313.739Z" fill="black"/>
<path d="M375.13 64.8119C374.605 64.9501 374.06 64.9952 373.52 64.9458C372.216 64.6391 370.951 64.1601 369.36 63.6617L373.194 62.416C374.382 62.9144 373.789 64.7353 375.13 64.8119Z" fill="black"/>
<path d="M358.052 115.412C358.018 114.825 358.174 114.242 358.499 113.751C358.824 113.261 359.299 112.889 359.853 112.691C357.803 118.441 357.572 126.242 359.47 128.292L360.352 127.124C360.164 124.569 360.209 122.003 360.486 119.457L361.234 115.297C361.539 113.482 362.274 111.767 363.38 110.295L363.764 110.486C362.784 112.065 362.132 113.825 361.847 115.661C361.579 117.693 361.138 123.923 360.85 126.644C360.819 127.005 360.768 127.363 360.697 127.718C360.505 128.715 360.064 129.462 358.78 129.251C357.496 129.04 357.285 127.565 357.342 126.472C357.445 122.754 357.681 119.067 358.052 115.412Z" fill="black"/>
<path d="M354.504 110.18C354.589 109.908 354.728 109.655 354.911 109.436C355.094 109.217 355.317 109.037 355.57 108.905C355.823 108.773 356.101 108.693 356.385 108.668C356.669 108.644 356.954 108.675 357.226 108.761C355.884 110.812 353.872 112.249 353.987 114.799C354.102 117.348 353.987 119.4 353.987 121.795L355.175 121.507L355.75 121.986L354.179 123.482C353.738 122.945 352.971 122.428 352.933 121.891C352.741 119.467 352.741 117.032 352.933 114.608C353.198 113.052 353.729 111.554 354.504 110.18Z" fill="black"/>
<path d="M353.548 241.649C353.406 241.161 353.31 240.661 353.26 240.155C353.26 232.488 350.826 225.165 348.161 218.054C346.153 212.95 343.842 207.971 341.242 203.142C339.067 198.798 337.555 194.153 336.757 189.361C336.612 188.002 336.696 186.628 337.006 185.297C337.006 184.837 337.945 184.109 338.175 184.185C338.805 184.462 339.325 184.941 339.651 185.546C339.843 185.91 339.44 186.543 339.421 187.06C339.2 188.509 339.2 189.982 339.421 191.43C340.53 196.027 342.044 200.517 343.945 204.847C347.619 211.993 350.517 219.511 352.589 227.274C353.89 231.936 354.446 236.775 354.237 241.611L353.548 241.649Z" fill="black"/>
</svg>
