<svg width="1059" height="701" viewBox="0 0 1059 701" fill="none" xmlns="http://www.w3.org/2000/svg">
<path d="M266.969 210.358C282.514 211.259 298.021 212.985 313.566 214.058C325.603 214.863 337.658 215.304 349.734 215.688C356.922 215.898 364.129 215.688 371.317 215.688C377.067 215.688 377.297 215.879 377.546 221.438C377.661 224.179 377.546 226.976 377.891 229.698C378.887 236.963 380.095 244.208 381.265 251.453C381.495 252.91 381.897 254.347 383.833 254.654C382.414 242.713 378.83 231.175 381.188 219.291C381.878 219.195 382.184 219.061 382.434 219.137C383.929 219.54 385.558 219.406 385.616 217.7C385.616 216.722 384.389 215.477 383.412 214.729C382.346 214.109 381.197 213.644 379.999 213.349V201.254H372.831L377.412 202.404V213.579C363.803 213.387 350.481 213.579 337.16 212.946C318.976 212.077 300.813 210.844 282.667 209.247C273.225 208.273 263.721 208.036 254.242 208.538C250.945 208.768 247.629 208.883 244.85 209.017C242.492 207.101 245.156 203.88 241.994 202.673C241.469 205.336 241.238 208.048 241.304 210.761C242.188 216.102 242.643 221.506 242.665 226.919C242.569 230.446 242.779 233.953 242.799 237.48C242.799 242.655 242.799 247.85 242.799 252.968L238.295 254.156L243.374 258.987C243.374 268.8 243.125 278.767 243.374 288.715C243.853 304.164 244.62 319.594 245.425 335.024C245.942 344.972 246.594 354.919 247.457 364.829C248.377 375.486 250.428 386.105 250.562 396.762C250.773 413.898 249.776 431.034 249.373 448.188C249.239 454.437 249.373 460.685 249.373 467.126C250.178 456.449 251.003 445.946 251.712 435.442C252.191 428.254 252.594 421.067 252.843 413.879C253.13 406.212 254.165 398.545 252.843 390.629C251.233 380.834 250.466 370.886 249.719 360.976C248.396 343.247 247.208 325.536 246.249 307.787C245.617 296.018 245.425 284.23 245.137 272.422C245.003 266.826 245.137 261.21 245.137 255.383C250.044 254.885 270.86 251.952 276.036 251.435C270.803 249.518 249.929 254.942 244.217 252.834C245.329 239.148 241.745 225.52 244.026 210.991C252.018 210.742 259.513 209.937 266.969 210.358Z" fill="black"/>
<path d="M240.211 492.887V493.137H240.307C240.255 493.063 240.223 492.976 240.211 492.887Z" fill="black"/>
<path d="M238.198 443.666C236.933 433.187 236.414 422.631 236.645 412.078C236.741 405.043 237.911 398.086 236.071 390.879C234.374 383.263 233.405 375.503 233.176 367.705C232.582 357.622 232.524 347.502 232.409 337.382C232.333 329.434 232.41 321.473 232.64 313.499C232.908 303.916 233.77 294.217 233.694 284.595C233.598 270.2 232.947 255.844 232.468 241.449C232.218 234.396 231.854 227.361 231.432 220.365C231.068 214.097 230.569 207.849 230.09 201.6C229.871 200.693 229.57 199.808 229.19 198.955C229.19 201.907 229.19 203.823 229.19 205.739C229.707 218.256 230.397 230.773 230.742 243.289C230.933 249.864 230.493 256.438 230.436 263.013C230.436 266.214 230.799 269.434 230.742 272.596C230.493 286.359 230.091 300.121 229.841 313.883C229.669 323.678 229.842 333.491 229.592 343.286C229.171 358.6 230.088 373.922 232.333 389.077C233.223 395.727 233.569 402.438 233.368 409.145C233.368 417.866 233.79 426.606 234.538 435.308C235.496 446.809 237.029 458.118 238.083 469.542C238.639 475.484 238.639 481.464 239.041 487.425C239.275 489.268 239.66 491.089 240.192 492.869C240.413 491.91 240.56 490.936 240.632 489.955C240.884 474.488 240.071 459.021 238.198 443.666Z" fill="black"/>
<path d="M842.465 698.975C779.653 695.564 707.564 691.75 701.737 691.558C691.521 691.213 681.324 692.057 671.069 691.558C660.087 690.945 649.026 692.056 638.024 692.344C632.044 692.516 626.065 692.67 620.103 692.651C613.529 692.651 606.973 692.536 600.399 692.363C590.911 692.114 581.423 691.519 571.935 691.539C555.585 691.539 539.217 692.056 522.867 692.228C511.367 692.343 499.866 692.113 488.366 692.228C465.096 692.516 441.826 692.976 418.557 693.302C404.169 693.519 389.774 693.653 375.373 693.704C370.351 693.704 365.329 693.436 360.326 693.053C354.691 692.631 349.075 691.903 343.44 691.385C340.603 691.136 337.69 691.098 334.911 690.906C329.716 690.542 324.541 690.101 319.347 689.775C318.493 689.848 317.654 690.041 316.855 690.35L316.165 691.615C316.779 692.086 317.465 692.455 318.196 692.708C321.821 693.663 325.521 694.305 329.256 694.624C331.666 694.379 334.098 694.77 336.31 695.756C337.232 696.228 338.289 696.363 339.3 696.139C345.291 694.821 351.477 694.659 357.528 695.659C363.847 696.85 370.313 697.057 376.696 696.273C379.417 695.84 382.164 695.577 384.918 695.487C400.061 695.046 415.184 694.606 430.326 694.28C446.35 693.935 462.393 693.57 478.437 693.417C501.706 693.225 524.975 693.206 548.244 693.11C563.22 693.11 578.184 693.11 593.134 693.11C594.035 693.11 595.397 692.977 595.78 693.475C597.697 695.928 600.112 695.123 602.45 695.104C605.67 695.104 608.891 695.104 612.034 695.008C618.283 694.836 624.531 694.701 630.779 694.414C642.376 693.839 653.972 692.938 665.588 692.631C672.91 692.42 680.25 693.168 687.572 693.245C690.352 693.245 706.146 694.011 728.361 695.065C728.693 695.084 729.026 695.084 729.358 695.065C745.88 695.314 761.214 695.314 778.771 697.499H779.653L842.906 700.605C842.728 700.071 842.58 699.526 842.465 698.975Z" fill="black"/>
<path d="M1044.03 271.868V271.236C1036.15 271.236 901.252 266.406 893.374 266.56C870.871 267.001 848.35 267.46 825.847 268.111C815.305 268.418 804.763 269.281 794.202 269.702C786.88 270.009 779.519 270.182 772.197 270.086C760.696 269.914 749.196 269.454 737.695 269.166C732.654 269.051 727.595 269.051 722.535 269.07C713.2 269.07 703.866 269.07 694.531 269.243C686.423 269.415 678.334 270.297 670.227 270.258C653.436 270.258 636.625 269.664 619.816 269.415C609.561 269.262 599.307 269.415 589.052 269.185C574.83 268.897 560.608 268.534 546.386 267.959C539.984 267.71 533.582 267.077 527.218 266.348C520.855 265.62 514.184 264.527 507.686 263.665C506.588 263.588 505.487 263.588 504.39 263.665C505.953 264.632 507.716 265.229 509.546 265.409C514.989 266.157 520.452 266.923 525.915 267.575C530.727 268.327 535.578 268.813 540.444 269.031C549.165 269.031 557.886 268.61 566.512 270.431C568.03 270.626 569.564 270.678 571.092 270.584H591.276C594.937 275.874 593.653 275.3 598.943 274.207C607.215 272.638 615.664 272.212 624.052 272.942C628.157 273.044 632.264 272.935 636.358 272.616C642.741 272.348 649.123 271.754 655.525 271.754C665.262 271.754 674.999 272.847 684.774 271.754C693.112 270.853 701.507 270.354 709.903 270.182C720.272 269.952 730.661 270.182 741.05 270.355C747.624 270.355 754.18 270.527 760.754 270.699C769.303 270.929 777.871 271.542 786.4 271.427C793.741 271.332 801.063 270.24 808.404 269.914C827.361 269.071 846.337 268.304 865.312 267.729C878.135 267.345 890.997 267.306 903.839 267.153C908.267 267.057 1039.64 271.868 1044.03 271.868Z" fill="black"/>
<path d="M542.609 205.931C546.002 205.222 549.663 203.746 552.672 207.848C554.589 204.282 557.426 204.705 560.339 205.107C563.253 205.51 565.457 206.007 568.006 206.257C573.181 206.717 578.357 207.119 583.532 207.368C588.707 207.618 593.614 207.579 598.655 207.732C606.322 207.962 683.414 207.522 691.023 207.732L691.195 206.679C668.386 206.947 576.191 206.008 553.458 201.868C553.458 199.51 553.458 197.382 553.458 195.255C553.458 189.926 553.458 184.578 553.19 179.25C552.749 167.749 552.174 156.249 551.752 144.864C551.522 138.596 551.752 132.309 551.407 126.041C551.023 117.646 550.085 109.251 549.95 100.855C549.816 92.4598 550.257 83.7388 550.564 75.171C551.139 58.687 551.79 42.1837 552.48 25.6997C552.417 24.8941 552.269 24.097 552.039 23.3224C550.123 25.6609 550.717 28.2295 550.66 30.7021C550.353 44.7902 550.353 58.898 549.74 72.9669C548.944 86.4096 548.906 99.8857 549.625 113.333C550.123 121 550.276 128.667 550.43 136.334C550.717 149.042 550.851 161.731 551.081 174.439C551.215 182.988 551.427 191.555 551.58 200.104C551.518 200.75 551.409 201.39 551.254 202.021H547.957C547.957 199.51 547.957 197.249 547.957 195.006C547.708 181.244 547.229 167.519 546.443 153.776C545.561 138.078 545.734 122.323 545.599 106.605C545.599 99.2834 546.041 91.9611 545.983 84.6583C545.887 72.2761 545.446 59.9138 545.389 47.5316C545.39 44.3414 545.868 41.169 546.807 38.1201C548.398 33.0407 547.478 27.8847 547.919 22.7862C547.919 22.6712 547.459 22.5373 546.711 22.1348C546.163 23.1208 545.757 24.1783 545.504 25.2776C544.986 31.2195 544.257 37.1807 544.257 43.1226C544.257 68.4044 544.488 93.6869 544.564 118.969C544.564 133.67 544.238 148.353 545.408 163.054C546.232 173.424 546.06 183.869 546.155 194.277C546.031 197.013 545.75 199.739 545.312 202.443C541.651 203.65 537.76 202.194 535.096 205.874C537.535 206.661 540.158 206.68 542.609 205.931Z" fill="black"/>
<path d="M765.162 201.255C761.521 200.776 757.841 200.623 754.161 200.316C754.963 199.261 756.12 198.532 757.419 198.265L761.674 197.249L761.502 197.077L761.157 196.865L760.811 196.578L753.471 197.287C753.471 194.757 754.218 192.284 753.298 190.962C751.725 188.189 750.881 185.064 750.845 181.877C749.848 173.673 749.062 165.45 748.2 157.228C747.337 149.005 746.379 141.146 745.727 133.095C744.98 123.952 744.462 114.79 743.944 105.628C743.427 96.466 743.043 87.3043 742.641 78.1422C742.506 75.4204 742.641 72.6799 742.468 69.939C741.615 56.9529 741.731 43.9207 742.814 30.9517C742.948 29.3992 742.814 27.8279 742.814 26.1411C740.284 26.3903 740.628 27.7128 740.686 28.9011C740.839 33.1946 741.069 37.4689 741.108 41.7624C741.203 52.3429 741.107 62.8463 741.318 73.4842C741.567 82.9721 742.622 92.4414 742.775 101.929C743.082 120.483 745.018 138.903 746.896 157.323C748.104 169.207 749.867 181.014 751.228 192.878C751.184 194.925 750.895 196.958 750.366 198.936L752.493 200.852H745.535C746.168 196.214 746.877 191.882 747.299 187.435C747.344 185.657 747.17 183.881 746.781 182.145C746.628 181.11 746.053 180.132 745.938 179.097C745.229 172.714 744.481 166.332 744.021 159.93C743.446 152.608 743.139 145.286 742.641 137.964C741.874 126.463 740.954 115.078 740.245 103.635C739.708 95.0868 739.46 86.499 739.019 77.9504C738.846 74.2894 738.712 70.6097 738.232 66.9871C736.502 52.8714 736.13 38.6218 737.121 24.435C736.936 23.4648 736.607 22.5284 736.144 21.6562C735.511 22.8063 734.993 23.3044 734.993 23.8219C734.993 31.9489 734.668 40.0754 735.108 48.1641C735.568 57.0194 736.834 65.8366 737.543 74.6728C738.118 81.9948 738.348 89.355 738.788 96.677C739.619 110.133 740.462 123.55 741.318 136.929C742.047 147.758 742.928 158.607 743.599 169.513C744.097 177.18 744.468 184.847 744.711 192.514C744.711 195.255 744.232 198.016 744.213 200.757C744.294 202.475 744.499 204.185 744.826 205.874H745.957C746.187 204.897 746.398 203.957 746.686 202.731C747.985 202.424 749.328 202.353 750.653 202.52C752.57 203.114 754.237 202.386 755.981 202.52C759.78 202.597 763.566 203.014 767.291 203.766C769.763 204.322 770.319 207.082 769.782 210.781C769.399 213.407 767.712 213.963 765.546 213.963C762.178 214.09 758.806 214.027 755.445 213.772C751.766 213.73 748.193 212.537 745.228 210.359L753.106 209.995C749.637 208.174 746.82 207.618 743.983 209.478C743.868 212.123 745.708 212.698 747.452 213.311C753.912 215.611 760.696 215.228 767.405 215.65C768.175 215.721 768.949 215.541 769.609 215.137C770.269 214.733 770.78 214.126 771.066 213.407C773.788 207.637 772.714 202.271 765.162 201.255Z" fill="black"/>
<path d="M108.531 317.256C108.762 316.463 108.904 315.646 108.953 314.821C108.857 312.08 108.55 309.359 108.493 306.618C108.282 296.076 108.225 285.533 107.918 274.972C107.554 262.111 106.691 249.269 106.595 236.427C106.5 219.598 107.016 202.749 107.112 185.92C107.112 178.253 106.844 170.586 106.576 162.919C106.192 151.15 105.77 139.363 105.195 127.594C104.907 124.872 104.446 122.169 103.816 119.505C103.509 117.895 102.589 117.589 100.519 118.451C101.228 125.658 102.301 132.75 102.589 139.9C103.394 160.089 104.033 180.278 104.506 200.468C104.927 218.39 105.043 236.311 105.368 254.137C105.522 262.551 105.963 270.967 106.116 279.381C106.365 290.882 106.442 302.382 106.653 313.786C106.828 314.988 107.143 316.165 107.591 317.294L108.531 317.256Z" fill="black"/>
<path d="M469.256 375.028V374.491C462.758 374.012 397.933 368.492 391.359 368.012V349.037C395.978 349.037 467.243 351.969 471.287 351.969V351.548C467.128 351.011 395.748 347.542 391.32 346.986C391.32 345.069 391.32 343.536 391.32 342.041C390.937 328.432 390.822 314.803 390.036 301.214C389.768 296.671 389.155 291.42 383.328 289.561C383.039 289.754 382.8 290.013 382.631 290.317C382.461 290.621 382.366 290.961 382.353 291.309C382.339 291.657 382.408 292.002 382.555 292.318C382.701 292.634 382.92 292.911 383.194 293.125C386.718 297.13 388.661 302.282 388.657 307.616C389.142 316.791 389.532 325.971 389.826 335.159C389.922 338.801 389.653 342.444 389.538 346.545C387.047 346.143 384.977 345.721 382.907 345.51C380.837 345.299 378.862 343.785 376.811 345.913L389.193 348.788V366.959L385.245 367.495V368.166L388.944 369.737V386.049L381.546 386.432C383.865 389.345 386.817 386.605 388.867 388.56V405.063L385.436 405.581L385.341 406.329L388.58 407.651V425.994L380.913 426.416V427.316L388.58 427.796V476.98H389.577C388.139 465.057 392.145 453.288 389.787 441.289C389.388 437.488 389.523 433.649 390.19 429.885C390.535 428.601 391.092 427.382 391.838 426.281C391.397 425.802 390.343 425.189 390.324 424.576C390.324 419.094 390.497 413.631 390.612 407.823C396.056 407.478 464.388 410.507 469.199 410.2V409.778C464.215 409.567 395.672 405.945 390.746 405.83V387.812C393.64 387.64 463.026 392.316 465.499 392.182L464.215 390.266C461.991 390.476 392.969 385.857 391.014 386.03V370.101C397.934 369.986 462.739 375.028 469.256 375.028Z" fill="black"/>
<path d="M884.077 69.2093C884.23 86.2108 884.652 103.193 884.863 120.195C884.978 129.069 884.518 137.963 884.863 146.838C885.457 160.121 886.53 173.384 887.508 186.648C887.929 192.149 888.6 197.612 889.137 203.094C889.405 205.758 889.961 208.442 889.252 210.225C886.09 211.03 883.694 211.72 881.259 212.142C878.203 213.032 875.048 213.547 871.867 213.675C867.499 213.218 863.165 212.482 858.891 211.471C858.585 210.186 858.22 208.653 857.856 207.024L861.69 206.123C858.489 206.238 855.344 203.267 852.374 205.874C855.287 207.637 856.323 210.857 857.454 213.157C860.578 213.33 863.203 213.272 865.676 213.636C871.426 214.46 877.31 215.132 882.926 213.177C884.259 212.636 885.701 212.418 887.133 212.541C888.566 212.665 889.949 213.125 891.169 213.885C892.188 214.307 893.247 214.623 894.331 214.825C893.68 209.688 892.415 204.992 895.731 200.928C895.117 200.603 894.849 200.316 894.619 200.354C893.718 200.45 892.837 200.641 891.955 200.795C891.284 199.74 890.211 198.724 890.038 197.613C888.85 184.828 887.277 172.043 886.875 159.278C886.242 140.11 886.473 121.057 886.339 101.947C886.339 95.9672 886.511 89.9676 886.09 84.0257C885.032 68.6124 885.077 53.1434 886.224 37.7365C886.319 36.4523 886.224 35.1681 886.224 33.903L885.055 33.5586C884.633 34.287 883.885 34.9959 883.866 35.7243C883.866 38.0052 884.288 40.3055 884.288 42.5864C884.326 51.4801 884 60.3348 884.077 69.2093ZM891.935 201.101C891.935 202.04 892.05 203.018 892.146 204.321C890.536 202.385 890.421 202.327 891.935 201.101Z" fill="black"/>
<path d="M318.063 457.159H318.83C318.83 446.176 318.83 435.193 318.466 424.229C317.948 410.007 316.99 395.823 316.319 381.62C315.571 366.19 314.996 350.761 314.249 335.331C313.789 326.188 312.869 317.045 312.639 307.902C312.409 298.433 312.217 288.984 311.872 279.515C311.527 270.334 309.553 261.382 309.074 252.259C308.923 251.631 308.677 251.03 308.345 250.477C307.901 250.926 307.564 251.47 307.358 252.067C307.153 252.664 307.084 253.299 307.157 253.926C309.225 261.926 310.244 270.161 310.186 278.423C310.339 288.217 310.416 298.031 310.837 307.825C311.489 323.159 312.408 338.397 313.213 353.674C313.61 361.341 314.019 369.008 314.44 376.675C315.303 392.871 316.357 409.087 317.009 425.303C317.43 435.845 317.718 446.502 318.063 457.159Z" fill="black"/>
<path d="M198.177 110.861C210.022 111.762 221.887 112.548 233.752 113.085C239.042 113.334 314.158 117.819 349.101 119.717H347.07V119.966H353.605L361.828 120.388C367.943 121.538 374.057 122.305 380.191 123.052C381.266 123.019 382.324 123.324 383.215 123.927C384.106 124.529 384.785 125.397 385.155 126.407C388.988 124.701 389.142 124.26 386.477 122.228C385.731 121.631 385.021 120.991 384.35 120.311C383.181 121.059 382.434 122.036 381.648 121.998C377.815 121.729 373.981 121.135 370.148 120.79C368.863 120.656 367.56 120.58 366.314 120.503H366.428C365.834 120.503 354.469 119.602 339 118.586L336.029 118.126L336.662 118.433L332.292 118.126H336.01L329.32 117.82V117.935C295.068 115.635 249.315 112.644 248.069 112.606C243.584 112.606 239.08 112.701 234.652 112.452C226.64 111.973 218.666 111.283 210.654 110.689C206.667 110.382 202.642 110.153 198.675 109.712C192.694 109.022 186.772 107.967 180.772 107.45C172.454 106.741 164.116 106.377 155.855 105.917C151.237 105.468 146.598 105.275 141.958 105.341C132.069 105.987 122.143 105.788 112.287 104.747C110.291 104.644 108.336 104.142 106.537 103.271C103.734 101.629 100.45 101.006 97.2406 101.508C96.2031 101.724 95.1244 101.61 94.1549 101.182C91.8762 99.5111 89.7589 97.6306 87.83 95.5657C86.3349 93.9173 87.1585 92.3461 89.5352 91.8286C92.2187 91.1049 95.0545 91.1717 97.701 92.0204C98.4343 92.2143 99.1859 92.3294 99.9435 92.3648C97.0109 89.3172 94.193 86.4421 90.0912 85.1387L93.1965 88.8C91.0497 89.4133 89.3627 89.8352 87.5801 90.4294C85.2417 91.2536 84.1881 92.8445 85.3957 94.7804C88.0791 99.0739 90.7816 103.846 96.7427 104.69C104.199 105.744 111.501 107.852 119.206 107.373C124.765 107.009 130.324 106.721 135.882 106.894C149.664 107.335 163.445 107.891 177.208 108.696C184.165 109.021 191.142 110.325 198.177 110.861Z" fill="black"/>
<path d="M213.472 226.536C212.667 220.786 211.92 215.036 211.019 209.382C210.655 207.139 209.888 204.954 209.313 202.75C208.825 204.749 208.65 206.812 208.796 208.864C209.217 215.707 209.907 222.531 210.156 229.393C210.367 235.603 210.041 241.832 210.156 248.061C210.271 257.99 210.386 267.938 210.731 277.867C210.999 284.844 212.015 291.802 211.44 298.836C210.961 304.586 211.441 310.49 210.425 316.087C209.409 321.684 210.156 327.587 210.616 333.338C210.616 334.009 211.498 334.641 211.978 335.254L213.165 334.967C213.165 333.491 213.395 332.015 213.357 330.539C213.357 327.626 212.955 324.788 212.993 321.818C213.108 312.521 213.645 303.206 213.511 293.91C213.319 279.572 212.705 265.158 212.284 250.86C212.082 248.423 212.082 245.974 212.284 243.538C213.031 238.286 211.632 232.862 213.721 227.744C213.779 227.514 213.549 226.996 213.472 226.536Z" fill="black"/>
<path d="M222.846 258.662C222.328 248.733 221.197 238.843 220.315 228.952C220.046 225.943 219.759 222.953 219.472 219.943C218.686 220.499 218.379 221.036 218.398 221.573C218.571 230.141 218.552 238.727 219.05 247.257C219.587 256.419 221.139 265.543 221.35 274.705C221.657 288.123 221.446 301.674 220.967 315.129C220.68 323.199 219.491 331.268 218.59 339.319C218.396 340.985 217.937 342.609 217.229 344.129C217.085 344.574 216.838 344.979 216.509 345.312C216.181 345.645 215.78 345.897 215.337 346.048C214.894 346.199 214.422 346.243 213.959 346.18C213.496 346.116 213.053 345.946 212.668 345.682C211.406 345.008 210.189 344.253 209.026 343.42C210.31 346.18 212.495 347.943 214.776 347.618C215.984 347.464 217.805 346.717 218.13 345.797C220.047 340.392 222.73 334.93 223.152 329.333C223.995 317.832 223.785 306.101 223.689 294.486C223.689 282.545 223.536 270.584 222.846 258.662Z" fill="black"/>
<path d="M208.776 343.265L209.026 343.419L208.891 343.17L208.776 343.265Z" fill="black"/>
<path d="M698.479 211.107L701.315 207.963C698.191 206.507 698.249 206.507 698.306 202.999C698.46 192.438 698.671 181.915 698.69 171.335C698.69 157.131 698.403 142.909 698.69 128.706C698.978 111.57 699.668 94.4534 700.243 77.3176C700.473 70.609 700.703 63.9009 701.124 57.1731C701.795 46.8035 702.657 36.4527 703.386 26.0831C703.306 25.1895 703.099 24.312 702.773 23.4766C700.856 24.5116 701.086 25.93 701.028 27.3101C700.721 36.3379 700.434 45.3469 700.07 54.3747C699.437 69.8237 698.613 85.2533 698.153 100.702C697.578 119.371 697.163 138.041 696.907 156.71C696.677 172.159 696.677 187.627 696.754 203.095C696.696 205.606 695.987 208.539 698.479 211.107Z" fill="black"/>
<path d="M617.611 56.0807L622.346 56.4832C622.039 58.6683 624.032 61.1402 620.774 62.4627L620.87 62.7126C621.957 63.6484 622.643 64.9656 622.787 66.3926C622.979 87.6685 622.94 108.944 623.208 130.22C623.323 139.689 623.956 149.158 624.397 158.627C624.684 165.029 625.029 171.43 625.355 177.794C625.681 184.158 625.968 190.617 626.39 196.962C626.584 198.027 626.913 199.064 627.368 200.047C628.461 199.204 628.901 198.398 628.786 197.708C628.364 195.466 627.425 193.3 627.233 191.058C626.409 181.474 625.47 171.89 625.163 162.307C624.742 149.177 624.837 136.028 624.799 122.898C624.799 113.564 625.01 104.248 624.953 94.9136C624.953 86.5182 624.608 78.1226 624.455 69.7273C624.455 65.3571 624.455 60.9677 624.455 56.31H632.563V55.6783H624.493C623.65 43.392 621.886 31.7763 622.48 19.9883C620.218 26.1219 618.646 32.2936 620.448 38.9639C621.938 44.4306 622.584 50.0923 622.365 55.7541L617.611 56.0807Z" fill="black"/>
<path d="M706.031 198.553C708.274 198.112 707.756 196.291 707.641 194.949C706.012 178.408 704.708 161.848 704.306 145.21C703.999 132.541 702.907 119.871 703.08 107.201C703.425 82.7434 704.402 58.3049 705.092 33.8472C705.092 32.0455 705.092 30.2431 705.092 28.4414C700.508 85.0665 700.822 141.982 706.031 198.553Z" fill="black"/>
<path d="M367.476 269.76C368.178 270.056 368.938 270.193 369.7 270.162C377.233 270.986 394.943 272.078 402.476 272.902L402.591 272.194C394.924 271.044 377.002 269.606 369.278 268.36V266.693C371.463 266.405 374.012 265.274 375.737 266.022C379.13 267.517 382.292 266.616 385.57 266.539C388.848 266.462 391.991 266.539 395.154 266.788C398.987 267.037 408.763 267.383 412.635 267.728C411.101 266.808 403.588 266.463 401.959 266.252C396.515 265.543 391.052 264.948 385.608 264.22C382.618 263.837 381.641 261.747 382.81 259.083C389.921 259.083 396.936 258.795 403.894 259.083C413.804 259.581 423.675 260.75 433.604 261.268C440.044 261.613 446.523 261.268 453.001 261.268C451.999 260.827 450.915 260.598 449.819 260.597C440.657 260.022 431.515 259.333 422.372 258.892C413.67 258.451 404.968 258.374 396.285 257.895C390.765 257.588 385.11 257.895 379.648 254.713C379.245 256.361 378.881 257.645 378.651 258.929C378.421 260.213 378.287 261.593 378.133 262.763C374.3 263.587 370.888 264.22 367.514 265.14C367.047 265.309 366.629 265.589 366.295 265.956C365.961 266.323 365.721 266.767 365.598 267.248C365.636 268.284 366.69 269.204 367.476 269.76Z" fill="black"/>
<path d="M349.364 288.369C351.031 303.27 351.933 318.246 352.066 333.24C352.066 343.782 352.622 354.324 353.12 364.886C353.427 368.07 353.894 371.237 354.52 374.374C355.19 378.667 355.881 382.961 356.667 387.963C354.071 388.255 351.455 388.338 348.846 388.212C345.999 387.744 343.192 387.059 340.45 386.162C338.687 385.663 337.633 385.989 337.422 387.791C341.448 388.481 345.089 389.248 348.923 389.708C351.181 390.052 353.474 390.11 355.747 389.88C356.215 389.866 356.673 389.739 357.082 389.511C357.491 389.283 357.839 388.96 358.099 388.57C358.358 388.179 358.519 387.733 358.57 387.267C358.621 386.801 358.56 386.33 358.391 385.893C358.161 384.992 358.066 384.091 357.874 383.19C354.803 368.363 353.332 353.249 353.484 338.108C353.484 326.799 352.986 315.472 352.257 304.182C351.529 292.893 349.172 282.101 350.84 270.543C346.834 271.099 343.019 270.984 339.588 272.901L348.175 272.364C348.597 278.019 348.865 283.194 349.364 288.369Z" fill="black"/>
<path d="M339.435 273.038L339.626 272.941H339.339H339.109H339.435V273.038Z" fill="black"/>
<path d="M200.649 249.959C200.658 249.997 200.658 250.036 200.649 250.074V249.959Z" fill="black"/>
<path d="M195.857 218.966C195.186 216.225 194.477 212.986 190.241 213.906C190.019 213.931 189.793 213.9 189.586 213.817C189.378 213.733 189.195 213.599 189.052 213.427C187.806 210.973 185.909 211.72 183.916 212.123C182.719 212.174 181.521 212.032 180.37 211.702C178.674 206.524 177.933 201.082 178.184 195.64C187.462 195.525 359.106 201.907 367.942 201.964C369.793 202.237 371.599 202.759 373.31 203.517L379.98 201.275C373.482 201.025 367.713 200.661 361.924 200.642C356.136 200.623 187.826 194.508 182.171 194.546C177.207 194.546 172.262 194.374 167.298 194.221C166.014 194.221 165.151 194.393 165.515 196.291L168.965 195.715C174.408 194.814 175.674 196.291 176.403 200.009C176.613 201.044 176.901 202.08 177.131 203.115C177.897 206.526 178.453 210.015 179.469 213.35C180.484 216.685 181.386 216.742 184.606 216.627C186.43 216.484 188.263 216.484 190.087 216.627C190.585 216.704 191.061 216.888 191.481 217.165C191.901 217.443 192.256 217.809 192.522 218.237C193.793 220.502 194.76 222.926 195.397 225.445C196.93 233.227 198.119 241.066 199.519 248.886C199.519 249.289 200.189 249.595 200.572 249.94C200.197 248.984 199.97 247.975 199.901 246.95C200.668 237.309 198.138 228.147 195.857 218.966Z" fill="black"/>
<path d="M39.3553 87.535C29.0022 88.369 18.5908 88.1381 8.28492 86.8452C5.73565 86.4427 3.09047 86.443 0.0620117 86.2322C0.98205 89.4523 2.47696 90.6978 5.17957 90.6403C9.01306 90.5445 12.846 90.7362 16.5836 90.6403C20.858 90.4487 24.8838 90.5442 26.3405 95.566C29.369 94.5885 31.2472 93.0359 31.3813 89.8158C39.0483 89.3749 46.5808 88.8006 54.0369 88.5514C61.4931 88.3022 68.6621 88.417 75.984 88.3595L76.1562 86.9023C74.7761 86.4197 73.3395 86.1174 71.8819 86.002C61.0332 86.4045 50.2041 86.8833 39.3553 87.535Z" fill="black"/>
<path d="M880.743 198.839C884.289 195.37 884.039 192.131 883.483 188.777C882.927 185.422 882.257 181.895 881.989 178.425C881.548 172.79 881.184 167.117 881.145 161.463C881.145 148.487 881.145 135.51 881.145 122.514C881.145 115.844 881.145 109.097 881.145 102.503C881.145 100.05 880.992 97.6154 880.954 95.162C880.954 89.9868 880.954 84.7927 880.781 79.6175C880.59 72.4297 880.11 65.2611 880.129 58.0924C880.148 50.9238 880.589 43.4486 880.838 36.1266C880.838 34.9957 881.394 33.5392 879.132 33.4434C879.012 34.4613 878.949 35.4853 878.941 36.5103C879.21 48.2983 879.631 60.067 879.785 71.855C879.976 87.304 879.938 102.772 880.072 118.221C880.244 139.957 880.532 161.674 880.666 183.39C880.666 187.684 882.698 192.38 878.75 196.003L880.743 198.839Z" fill="black"/>
<path d="M213.511 75.2673L317.418 75.7465C340.898 76.494 366.736 77.3947 378.754 77.4714V77.6829C381.15 77.5296 384.216 78.0854 386.421 77.1654C386.076 77.3187 384.906 76.8967 384.504 76.8584C384.101 76.82 383.181 76.8584 382.587 76.8584C381.15 76.8584 379.693 76.8584 378.256 76.8584C371.202 76.8584 364.033 76.858 356.998 76.4363C327.691 74.692 241.994 74.5195 180.313 74.5195C191.335 74.807 201.455 75.3823 213.511 75.2673Z" fill="black"/>
<path d="M147.096 73.656C136.039 73.1003 124.957 73.2346 113.917 74.0585C127.756 74.461 152.06 74.5377 180.217 74.5377C170.02 73.0234 158.098 73.9819 147.096 73.656Z" fill="black"/>
<path d="M500.326 261.057C500.23 261.671 500.806 262.418 501.074 263.089C502.016 261.41 502.664 259.581 502.991 257.683C503.815 253.85 503.757 249.768 507.629 247.276C508.166 246.931 508.243 245.627 508.262 244.745C508.195 243.555 508.048 242.37 507.821 241.199C509.239 241.486 510.672 241.691 512.114 241.813C515.279 241.945 518.45 241.855 521.602 241.544C523.058 241.323 524.392 240.608 525.383 239.519C526.374 238.43 526.961 237.034 527.045 235.564C527.348 233.02 527.463 230.458 527.391 227.897C527.391 224.581 526.95 221.227 529.748 218.084H525.915C525.915 222.243 525.761 226.441 525.646 230.638C525.646 232.018 525.646 233.398 525.436 234.759C525.324 236.068 524.794 237.306 523.924 238.289C523.054 239.273 521.89 239.951 520.605 240.222C517.046 241.265 513.237 241.055 509.814 239.628C506.882 238.363 506.747 236.197 509.392 233.877C506.383 231.827 507.188 228.223 505.827 225.424V230.811L502.876 232.019C503.201 234.185 503.662 236.389 503.815 238.612C503.914 240.267 503.81 241.928 503.508 243.558C502.473 249.423 501.323 255.23 500.326 261.057Z" fill="black"/>
<path d="M463.103 374.51C462.405 373.663 461.842 372.712 461.435 371.692C461.243 370.325 461.243 368.938 461.435 367.571C461.722 363.028 462.067 358.486 462.393 353.943L461.78 353.809C461.49 354.418 461.277 355.062 461.148 355.725C460.668 361.821 460.113 367.897 459.825 373.992C459.614 378.573 459.634 383.174 459.825 387.755C459.885 388.491 459.689 389.225 459.27 389.833C458.851 390.441 458.234 390.884 457.525 391.09C457.371 391.09 457.41 391.626 457.295 392.297L459.73 393.984C459.73 406.386 459.73 418.902 459.73 431.399C459.73 439.929 459.078 448.438 459.825 456.949C460.17 460.782 460.458 464.616 460.784 468.449H461.819C462.124 467.646 462.292 466.797 462.317 465.938C460.976 458.277 460.399 450.502 460.592 442.727C460.86 430.664 461.071 418.607 461.224 406.557C461.224 403.05 460.879 399.523 460.899 396.015C460.899 394.348 461.703 392.7 461.722 391.033C461.722 386.164 461.512 381.295 461.608 376.427C461.608 375.698 462.834 374.932 463.103 374.51Z" fill="black"/>
<path d="M796.903 64.4946C801.446 64.092 805.969 63.307 810.512 62.9044C812.005 63.0008 813.476 63.3105 814.882 63.8244V69.248L815.247 68.9607L815.63 63.4407C821.38 63.4407 826.536 63.7286 831.653 63.3453C834.893 63.0961 837.404 63.1724 838.113 68.2326L840.624 63.2301C839.035 62.8191 837.421 62.505 835.794 62.2905C833.647 62.1755 831.5 62.2905 829.372 62.2905L815.688 62.1183C815.688 60.7382 815.514 59.9907 815.553 59.2432C815.898 53.1862 815.553 47.1677 816.875 41.0724C818.198 34.9772 817.795 28.0574 818.026 21.5213C818.026 20.6779 817.355 19.8157 816.99 18.9531L816.07 19.1066C814.441 33.233 815.017 47.4932 814.768 61.8497C809.842 61.8497 805.451 61.7538 801.062 61.8497C796.673 61.9455 792.417 60.9486 787.53 62.5778C788.565 63.4403 789.064 64.2073 789.62 64.2456C792.037 64.5295 794.472 64.6127 796.903 64.4946Z" fill="black"/>
<path d="M447.577 292.876C436.69 291.362 425.86 289.33 414.992 287.451C409.509 286.159 403.893 285.516 398.259 285.535C394.023 285.784 389.73 285.132 385.475 285.074C384.417 285.263 383.403 285.647 382.484 286.206C385.954 289.004 389.327 288.122 392.624 287.969C397.489 287.482 402.385 287.366 407.268 287.624C418.175 288.927 429.004 291.074 439.853 292.492C447.405 293.489 455.071 293.834 462.681 294.543C465.364 294.792 468.029 295.252 470.713 295.616C469.772 296.259 468.669 296.625 467.531 296.671C466.496 296.844 465.48 297.169 463.697 297.648C467.531 299.162 474.776 297.993 480.258 295.252C474.968 294.773 470.386 294.294 465.786 293.987C459.748 293.604 453.519 293.719 447.577 292.876Z" fill="black"/>
<path d="M98.7753 65.6457L100.232 65.4922C100.568 64.1306 100.748 62.7354 100.769 61.333C100.405 58.1512 99.6757 55.0271 99.2349 51.8644C97.6819 39.0898 97.7594 26.1695 99.4651 13.4144C99.4564 12.9527 99.5686 12.4968 99.7908 12.092C101.861 9.73436 100.864 6.93591 100.883 4.42497C100.883 3.04492 101.401 0.917515 99.1778 0.783343C96.9543 0.649171 97.4527 2.79596 97.261 4.17602C97.1511 4.80913 97.0928 5.4502 97.0879 6.09277C96.8579 15.2548 96.4173 24.4358 96.4749 33.617C96.4749 43.5265 97.0499 53.417 97.4716 63.3265C97.4333 63.9974 98.2961 64.8215 98.7753 65.6457Z" fill="black"/>
<path d="M760.87 234.473C764.058 235.466 767.176 236.669 770.204 238.077L765.585 240.837C767.789 240.319 770.491 241.297 772.14 238.92L767.061 231.962C767.923 228.282 769.648 224.966 768.134 220.654C765.029 224.257 767.08 228.685 764.492 232.02L755.904 232.729C756.04 231.192 756.04 229.647 755.904 228.11C755.294 224.992 754.52 221.907 753.585 218.871C753.369 218.496 753.06 218.185 752.687 217.967C752.314 217.748 751.89 217.63 751.458 217.625C750.691 217.759 750.116 218.794 749.311 219.542C755.464 222.877 753.95 228.148 754.199 232.844C752.745 233.578 751.354 234.431 750.04 235.393C749.628 235.619 749.288 235.957 749.058 236.367C748.829 236.776 748.719 237.242 748.741 237.712C748.763 238.181 748.916 238.634 749.183 239.021C749.45 239.407 749.82 239.711 750.251 239.898C751.199 240.66 752.34 241.145 753.547 241.297C757.63 241.297 761.693 240.914 765.757 240.703H756.921C756.499 240.243 756.231 240.07 756.154 239.84C754.563 235.067 755.982 233.304 760.87 234.473ZM753.203 239.917C752.244 239.399 751.419 239.246 751.113 238.748C749.924 236.831 751.305 236.447 753.471 235.968C753.452 237.367 753.394 238.306 753.298 239.878L753.203 239.917Z" fill="black"/>
<path d="M993.793 285.245C981.87 283.903 569.387 284.861 557.446 285.149C550.737 285.321 544.028 284.996 537.3 284.612C530.572 284.229 523.883 283.443 517.194 282.906C516.277 282.973 515.373 283.166 514.51 283.481C514.51 283.864 514.51 284.248 514.51 284.631L534.156 285.724L554.264 286.97C554.264 288.312 552.347 290.516 555.068 290.803C557.79 291.091 557.138 288.139 558.116 286.127L1003.78 285.82V285.207C1000.45 285.4 997.12 285.413 993.793 285.245Z" fill="black"/>
<path d="M702.448 223.854C698.346 223.547 694.302 222.819 690.219 222.359C688.781 222.206 687.324 222.359 685.254 222.359C685.906 226.576 686.5 230.256 687.171 233.86L688.398 233.763C688.187 230.754 687.976 227.726 687.727 224.007L702.466 225.215C703.98 230.006 705.476 234.472 706.76 238.996C707.431 241.354 705.859 242.829 703.309 242.158C699.476 241.2 695.796 240.031 692.039 238.939C693.208 235.105 693.209 235.105 690.545 233.189C690.455 234.623 689.948 236.001 689.086 237.152C688.225 238.303 687.046 239.177 685.695 239.667C686.641 240.415 687.763 240.909 688.954 241.105C693.362 241.469 697.79 241.546 701.853 243.692C702.704 244.047 703.615 244.229 704.536 244.229C708.178 244.497 709.999 242.6 708.772 239.246C707.215 235.262 706.215 231.082 705.802 226.824C705.785 226.406 705.684 225.996 705.504 225.618C705.325 225.24 705.071 224.902 704.757 224.624C704.444 224.347 704.078 224.136 703.681 224.004C703.284 223.871 702.865 223.82 702.448 223.854Z" fill="black"/>
<path d="M257.539 368.816C257.213 361.149 257.328 353.482 257.156 345.815C256.906 335.733 256.523 325.651 256.274 315.55C255.91 301.193 255.641 286.798 255.277 272.461C255.277 270.717 254.912 268.973 254.702 267.229L253.667 267.363C253.508 269.019 253.444 270.683 253.476 272.346C254.031 279.17 254.99 285.974 255.239 292.817C255.756 307.174 255.89 321.569 256.216 335.925C256.542 350.914 256.829 365.883 257.251 380.872C257.366 384.974 257.864 389.096 258.286 393.197C258.286 393.792 258.9 394.329 259.226 394.904C259.534 393.04 259.494 391.136 259.111 389.287C258.516 382.521 257.846 375.678 257.539 368.816Z" fill="black"/>
<path d="M845.015 247.582C850.056 247.314 855.097 247.199 860.118 246.643C864.529 246.074 869.007 246.367 873.305 247.505C874.283 247.793 875.836 248.042 876.392 247.505C878.309 245.723 880.379 246.509 882.468 246.451C885.113 246.451 887.739 246.144 890.384 245.991V245.588L886.397 244.573C885.189 239.704 888.755 236.714 890.461 232.65H884.365L887.452 233.206C886.206 237.04 885.152 240.414 884.174 243.442C873.969 245.485 863.473 245.622 853.218 243.845C853.467 242.331 853.679 241.142 853.87 240.011C854.062 238.88 854.771 237.481 853.429 236.178C850.267 238.919 852.816 242.963 850.554 245.762L843.846 246.451C844.267 247.237 844.65 247.601 845.015 247.582Z" fill="black"/>
<path d="M292.538 409.049L284.335 409.528C281.268 409.701 278.221 409.949 275.154 409.988C269.039 409.988 269.039 409.987 267.678 410.831H290.411C290.411 422.791 290.813 434.196 289.912 445.601C284.986 446.559 280.328 445.313 276.016 447.518H292.538C290.2 434.445 292.27 421.968 292.538 409.049Z" fill="black"/>
<path d="M941.56 436.784C947.924 436.995 971.001 439.736 977.364 440.388L977.594 439.621C963.046 438.24 931.765 435.117 917.217 433.736C918.118 425.418 918.042 424.612 915.799 422.408C915.205 429.73 913.71 437.034 915.397 445.065C918.233 442.247 915.856 438.95 917.543 436.381C925.516 434.752 933.548 436.515 941.56 436.784Z" fill="black"/>
<path d="M614.296 447.078L610.463 446.581C610.463 442.747 610.463 439.47 610.463 436.115C610.463 432.761 610.041 429.445 610.003 426.109C609.965 422.774 610.31 419.401 610.156 416.066C610.003 412.731 611.651 409.645 609.427 406.482C608.684 407.904 608.278 409.478 608.24 411.082C608.431 418.864 608.834 426.646 609.045 434.428C609.236 441.117 609.313 447.845 609.409 454.497C609.505 461.148 609.409 467.569 609.601 474.105C609.601 474.469 610.309 474.814 610.693 475.159C610.78 470.617 610.614 466.074 610.195 461.55C610.061 456.989 610.501 452.426 610.693 447.711L614.296 447.078Z" fill="black"/>
<path d="M109.048 362.625C108.665 369.947 108.569 377.307 107.591 384.552C107.129 387.718 107.751 390.947 109.355 393.715C109.624 394.175 110.582 394.251 111.272 394.539C112.096 390.993 110.448 357.354 109.087 354.709C109.068 357.795 109.163 360.21 109.048 362.625Z" fill="black"/>
<path d="M448.056 242.828L435.349 244.285L435.464 244.995L450.165 245.703C451.028 235.583 451.181 225.482 457.027 216.205C452.159 216.205 439.987 216.301 435.425 216.301V216.646H452.676C451.028 225.559 449.532 234.203 448.056 242.828Z" fill="black"/>
<path d="M667.293 56.5599C663.115 56.3491 592.311 56.2722 588.152 56.2913C582.977 56.2913 577.839 56.5785 572.97 54.0292C571.82 53.4112 570.474 53.2661 569.218 53.624C567.962 53.9818 566.895 54.8144 566.243 55.946L573.354 59.6644C583.034 57.8243 658.726 59.205 667.293 56.5599Z" fill="black"/>
<path d="M697.981 400.691H682.225C677.203 400.691 629.821 401.189 624.723 401.189V401.994C633.559 401.994 684.775 401.515 694.952 401.515C692.882 406.575 695.355 411.195 692.864 415.585C691.733 417.501 692.959 418.67 696.505 419.149C696.505 415.987 696.333 412.843 696.505 409.738C696.678 406.633 697.54 403.605 697.981 400.691Z" fill="black"/>
<path d="M366.097 439.774C365.177 433.353 363.892 427.527 363.604 421.661C363.317 415.796 364.027 409.758 364.295 403.682L358.084 404.794L362.972 405.503C360.959 416.179 362.627 426.587 364.103 436.516H348.961C347.6 436.516 346.143 436.382 346.066 438.759C349.223 438.117 352.43 437.751 355.65 437.666C359.181 438.1 362.674 438.805 366.097 439.774Z" fill="black"/>
<path d="M464.138 303.34H462.911C462.489 317.933 462.074 332.518 461.665 347.098C461.598 348.011 461.598 348.927 461.665 349.84C461.665 350.204 462.067 350.53 462.757 351.661C464.022 335.043 464.368 319.21 464.138 303.34Z" fill="black"/>
<path d="M479.529 385.282L491.452 387.811L491.662 387.313L485.912 385.397C489.746 384.227 493.138 383.345 496.608 384.534C503.895 386.851 511.525 387.908 519.168 387.658C520.582 387.458 521.954 387.03 523.232 386.392C522.082 386.392 520.951 386.259 519.801 386.259C512.302 386.24 504.832 385.333 497.547 383.556C491.644 382.137 485.587 383.192 479.664 384.342L479.529 385.282Z" fill="black"/>
<path d="M154.628 89.8914C140.789 88.9139 126.931 88.2821 113.073 87.707C112.594 87.707 112.095 88.1855 111.616 88.4539L111.808 89.796C126.049 91.4827 140.348 89.3356 154.628 89.8914Z" fill="black"/>
<path d="M920.669 387.351C922.796 387.351 924.923 387.14 927.051 387.025C924.075 386.529 921.057 386.336 918.043 386.45C904.146 386.7 557.484 385.512 543.587 385.799C536.898 385.952 530.17 386.183 523.557 386.355C524.393 386.559 525.247 386.681 526.107 386.719C546.712 386.47 900.121 387.638 920.669 387.351Z" fill="black"/>
<path d="M426.359 283.617H455.11L455.264 282.659C452.695 281.336 449.801 282.084 447.041 281.911C444.281 281.739 440.964 281.412 437.917 281.163L429.234 280.55C426.378 280.359 414.322 279.726 411.466 279.572C414.015 281.106 426.378 280.109 428.717 282.563L426.282 283.253L426.359 283.617Z" fill="black"/>
<path d="M1058.42 277.542C1055.59 276.909 1042.25 282.027 1037.07 285.573L1052.14 280.704C1051.1 284.154 1050.22 286.991 1049.32 290.192L1044.82 290.594V290.901H1052.29C1050.6 284.844 1055.38 281.663 1058.42 277.542Z" fill="black"/>
<path d="M397.934 244.266C396.918 236.886 395.902 229.507 394.771 222.147C394.675 221.456 393.832 220.862 392.854 219.674C392.347 220.783 392.023 221.968 391.896 223.182C392.718 230.97 394.654 238.601 397.646 245.838C397.815 245.33 397.911 244.801 397.934 244.266Z" fill="black"/>
<path d="M513.322 289.407C518.842 299.566 530.994 308.574 539.619 309.111C527.199 304.913 524.285 299.987 519.187 293.777C518.037 292.358 517.06 290.787 515.89 289.387C515.085 288.352 514.108 288.142 513.322 289.407Z" fill="black"/>
<path d="M869.951 59.6072L870.086 58.6675C868.169 58.6675 866.156 58.6675 864.182 58.6675C858.604 58.4758 762.767 57.5756 757.381 55.448C755.617 54.758 753.988 55.6011 753.26 58.1312C762.307 59.818 861.249 60.048 869.951 59.6072Z" fill="black"/>
<path d="M393.046 272.079C406.119 273.325 460.784 276.469 474.106 277.83C470.349 275.625 406.253 271.198 393.046 272.079Z" fill="black"/>
<path d="M399.678 204.397L431.994 207.023C425.209 203.995 410.048 202.902 399.678 204.397Z" fill="black"/>
<path d="M1016.64 286.76C1011.35 286.07 1006.06 285.285 1000.75 284.978C995.44 284.671 990.533 284.978 985.416 284.978C987.077 285.298 988.765 285.459 990.456 285.457C992.699 285.649 994.942 285.974 997.165 286.358C998.775 286.607 1000.35 287.24 1001.96 287.336C1007.34 287.681 1012.77 287.873 1018.17 288.122C1017.67 287.566 1017.2 286.818 1016.64 286.76Z" fill="black"/>
<path d="M713.181 284.824H664.361V285.572H713.142C713.123 285.323 713.142 285.073 713.181 284.824Z" fill="black"/>
<path d="M569.731 294.716L572.952 292.8C574.984 295.119 577.13 297.495 579.22 299.929C581.129 302.334 583.453 304.379 586.082 305.967L572.281 289.33L571.074 289.445L569.731 294.716Z" fill="black"/>
<path d="M397.934 219.004C400.33 220.92 400.33 220.824 402.323 220.46C409.884 218.764 417.582 217.744 425.324 217.413C426.86 217.358 428.387 217.159 429.886 216.818C424.231 217.068 418.577 217.259 412.942 217.623C408.054 217.93 403.166 218.525 397.934 219.004Z" fill="black"/>
<path d="M431.649 216.741C432.242 216.624 432.821 216.445 433.375 216.205H433.566H433.317C432.186 216.397 431.075 216.665 429.944 216.895L431.649 216.741Z" fill="black"/>
<path d="M668.808 58.1308C669.996 58.1308 671.855 57.7088 672.277 58.303C674.654 61.5423 677.491 59.5302 680.366 59.7986C679.063 57.096 678.814 56.8658 677.242 56.8083L667.293 56.5014C665.702 56.5014 664.111 56.3295 661.543 56.1953C664.361 58.6104 666.603 58.1308 668.808 58.1308Z" fill="black"/>
<path d="M396.65 79.6186C401.058 80.9603 406.713 78.2957 409.703 84.0267C411.351 80.8258 410.795 79.8681 407.633 79.5231C400.675 78.7756 393.717 77.9894 386.779 77.2227C387.354 77.6443 387.89 78.3538 388.522 78.4496C391.253 78.6713 393.968 79.0615 396.65 79.6186Z" fill="black"/>
<path d="M748.698 390.897C749.503 394.309 750.02 397.76 750.615 401.21C750.749 401.938 750.998 402.666 751.189 403.394C751.782 402.618 752.057 401.645 751.957 400.673L751.842 387.256C748.353 387.217 747.989 387.811 748.698 390.897Z" fill="black"/>
<path d="M628.959 447.958C628.726 447.722 628.449 447.534 628.143 447.406C627.837 447.278 627.509 447.212 627.177 447.211C621.868 446.924 526.126 447.824 520.798 447.633C519.839 447.633 518.363 447.901 518.038 448.514C517.808 448.817 517.66 449.174 517.609 449.55C517.558 449.927 517.605 450.31 517.746 450.663C517.886 451.016 518.117 451.327 518.413 451.565C518.709 451.803 519.062 451.961 519.437 452.022L519.993 450.105C526.452 449.779 622.921 448.246 628.959 447.958Z" fill="black"/>
<path d="M89.6123 84.9653L89.7471 85.1188H89.996L89.8425 84.9082L89.6123 84.9653Z" fill="black"/>
<path d="M80.0285 75.1345C78.4568 73.7544 78.3037 70.9172 74.5469 70.3613C75.4357 72.4984 76.6023 74.5094 78.0163 76.3418C81.0639 79.2744 84.4759 81.8433 87.7919 84.4692C88.3527 84.7675 88.977 84.9249 89.6122 84.9288C88.0788 83.4146 86.5077 81.9197 84.9935 80.3672C83.4793 78.8146 81.8302 76.7062 80.0285 75.1345Z" fill="black"/>
<path d="M600.84 67.5813V64.0351C603.677 63.5751 630.607 61.8113 634.096 61.2555C628.441 60.9105 599.077 61.907 593.116 61.5428L600.84 67.5813Z" fill="black"/>
<path d="M608.124 401.995C608.124 402.13 608.124 402.283 608.124 402.724C609.089 402.976 610.079 403.124 611.076 403.164C618.34 402.839 625.604 402.436 632.869 401.995C633.156 401.995 633.406 401.382 633.674 401.037L608.278 401.613C608.278 401.613 608.162 401.861 608.124 401.995Z" fill="black"/>
<path d="M816.877 188.776C817.241 188.565 817.969 188.315 817.95 188.123C817.375 180.763 816.206 66.7933 815.554 59.2988C814.27 73.2144 815.017 186.035 816.877 188.776Z" fill="black"/>
<path d="M865.714 58.8033C865.969 58.8239 866.226 58.8239 866.481 58.8033C866.23 58.7348 865.965 58.7348 865.714 58.8033Z" fill="black"/>
<path d="M868.34 63.2112C873.285 62.5786 873.286 62.5785 874.877 59.665C871.867 57.7483 868.628 58.8031 866.481 58.8414C867.746 59.1672 868.263 61.0644 868.34 63.2112Z" fill="black"/>
<path d="M266.834 250.918C273.601 251.263 326.561 251.819 333.308 252.145V251.225C326.599 249.27 273.601 250.19 266.834 250.918Z" fill="black"/>
<path d="M1044.39 272.806C1044.8 273.113 1045.95 272.481 1046.75 272.27C1046.75 271.906 1046.66 271.561 1046.62 271.197C1038.3 269.433 1029.83 270.603 1021.7 270.353C1026.4 270.698 1031.07 271.273 1035.77 271.33C1038.72 271.369 1041.71 270.698 1044.39 272.806Z" fill="black"/>
<path d="M285.44 250.266V250.361H285.632H285.517L285.44 250.266Z" fill="black"/>
<path d="M861.958 214.461C860.07 219.292 860.07 224.657 861.958 229.488C862.112 229.948 863.339 230.006 865.102 230.6C860.483 225.175 863.703 219.483 861.958 214.461Z" fill="black"/>
<path d="M405.006 246.682C406.222 248.408 407.652 249.972 409.261 251.339C409.491 251.569 410.276 251.205 411.407 250.994C410.66 249.748 410.354 248.56 409.625 248.158C407.076 246.72 406.482 244.688 407.708 241.219C404.469 243.327 403.779 244.669 405.006 246.682Z" fill="black"/>
<path d="M621.081 448.305C624.282 448.305 627.483 448.439 630.664 448.305C633.386 448.133 635.82 448.305 637.066 451.199C638.983 450.471 640.267 449.781 640.459 447.711H621.062L621.081 448.305Z" fill="black"/>
<path d="M372.422 253.507C367.458 253.316 317.603 250.459 313.003 250.459C318.255 251.417 368.704 255.385 374.339 256.401C374.487 256.085 374.551 255.737 374.526 255.389C374.501 255.042 374.386 254.706 374.194 254.415C374.001 254.124 373.738 253.888 373.427 253.729C373.117 253.57 372.771 253.494 372.422 253.507Z" fill="black"/>
<path d="M354.979 405.485C351.414 405.274 347.945 405.044 344.457 404.891C340.968 404.737 337.537 402.744 333.915 404.45C340.804 406.149 347.956 406.5 354.979 405.485Z" fill="black"/>
<path d="M387.947 92.979C387.378 92.2857 386.572 91.8273 385.685 91.694C381.047 91.1573 376.389 90.7553 371.75 90.3145V91.5031C373.38 91.3012 375.028 91.3012 376.657 91.5031C379.763 92.3273 383.769 91.2918 385.513 95.432C385.628 95.6812 387.43 95.5276 388.12 95.125C388.35 95.0484 388.35 93.5157 387.947 92.979Z" fill="black"/>
<path d="M880.244 229.949C880.11 226.422 880.014 222.281 879.727 218.064C879.727 217.355 878.749 216.723 877.81 215.592C876.813 221.936 877.58 225.693 880.244 229.949Z" fill="black"/>
<path d="M745.841 284.996H718.317L718.183 285.265H745.841V284.996Z" fill="black"/>
<path d="M719.947 234.282C722.036 235.029 722.803 234.282 722.879 232.844C722.811 231.558 722.425 230.31 721.756 229.209C721.087 228.109 720.156 227.191 719.046 226.538C717.589 226.04 716.708 226.538 716.439 228.455C719.065 229.337 721.366 230.64 719.947 234.282Z" fill="black"/>
<path d="M926.553 389.728C927.665 390.686 928.47 389.977 928.585 388.098C921.78 386.181 914.803 387.331 907.5 387.427L920.132 387.983C922.412 387.779 924.689 388.398 926.553 389.728Z" fill="black"/>
<path d="M428.602 281.836C429.483 281.836 430.384 281.836 431.285 281.836C428.487 281.165 397.512 278.003 394.695 277.83C389.194 277.581 383.692 277.465 378.21 277.293C378.857 277.691 379.572 277.964 380.319 278.098C386.989 278.443 421.874 281.548 428.602 281.836Z" fill="black"/>
<path d="M759.432 386.72H783.563V386.221H759.432V386.72Z" fill="black"/>
<path d="M866.175 201.119H848.119L849.078 204.55C854.483 200.429 860.635 202.365 866.175 201.119Z" fill="black"/>
<path d="M625.355 207.254H646.977V206.967H625.336L625.355 207.254Z" fill="black"/>
<path d="M377.616 277.196L373.246 275.279C376.39 272.519 380.031 274.359 383.213 273.037C378.613 272.807 373.955 271.465 370.352 276.276C372.584 277.446 375.163 277.772 377.616 277.196Z" fill="black"/>
<path d="M377.865 277.216H378.23C378.144 277.169 378.054 277.132 377.961 277.102H377.654L377.865 277.197V277.216Z" fill="black"/>
<path d="M460.554 261.057H477.977C474.335 259.677 464.042 259.486 460.554 261.057Z" fill="black"/>
<path d="M879.286 386.203H862.955V386.452H879.286V386.203Z" fill="black"/>
<path d="M614.966 284.996V285.303H630.396V284.996H614.966Z" fill="black"/>
<path d="M827.284 387.468H841.487V387.104H827.418L827.284 387.468Z" fill="black"/>
<path d="M889.33 232.67C886.206 232.67 861.192 233.283 857.186 233.283C864.393 235.641 887.394 234.989 889.33 232.67Z" fill="black"/>
<path d="M522.407 218.178L507.073 216.684V217.565C509.603 217.776 512.133 218.045 514.74 218.16C517.347 218.275 519.34 218.178 522.407 218.178Z" fill="black"/>
<path d="M339.109 272.998C334.528 272.423 330.196 273.688 325.807 274.608C330.368 275.202 334.681 273.573 339.109 272.998Z" fill="black"/>
<path d="M761.674 285.936V286.184H775.532V285.936H761.674Z" fill="black"/>
<path d="M432.78 267.537H410.623V267.806H432.761L432.78 267.537Z" fill="black"/>
<path d="M545.14 448.112H558.097V447.863H545.14V448.112Z" fill="black"/>
<path d="M203.084 338.627C204.675 340.544 205.518 343.343 208.662 343.151C207.186 341.234 205.729 339.317 204.081 337.209C203.755 337.669 202.988 338.531 203.084 338.627Z" fill="black"/>
<path d="M208.776 343.285L208.891 343.17H208.662L208.776 343.285Z" fill="black"/>
<path d="M292.608 250.055C290.251 250.055 287.894 250.227 285.555 250.362C288.219 252.47 291.305 250.783 294.123 251.243C293.605 250.822 293.107 250.055 292.608 250.055Z" fill="black"/>
<path d="M464.138 430.268L464.272 429.75C462.355 429.75 397.186 426.07 395.269 426.07V426.588C397.109 426.588 462.26 430.268 464.138 430.268Z" fill="black"/>
<path d="M637.891 62.5395C635.131 60.3161 632.6 61.5815 630.224 61.8882L637.891 62.5395Z" fill="black"/>
<path d="M239.655 503.928H240.786C240.575 500.554 240.383 497.18 240.192 493.807C240 497.18 239.828 500.554 239.655 503.928Z" fill="black"/>
<path d="M386.241 445.18L379.398 443.857C381.469 446.33 383.864 445.678 386.241 445.18Z" fill="black"/>
<path d="M606.61 447.23L606.456 447.02H598.579V447.23H606.61Z" fill="black"/>
<path d="M691.196 207.119V206.697H684.89V206.927C686.021 207.062 687.152 207.253 688.302 207.292C689.452 207.33 690.199 207.177 691.196 207.119Z" fill="black"/>
<path d="M449.073 408.551H443.073V408.666L449.053 409.088L449.073 408.551Z" fill="black"/>
<path d="M866.884 285.074H861.785V285.171H866.769L866.884 285.074Z" fill="black"/>
<path d="M519.417 452.118L519.781 452.483L519.493 452.041V452.137L519.417 452.118Z" fill="black"/>
<path d="M523.04 455.837C521.948 454.725 520.855 453.613 519.781 452.482C520.586 453.824 521.391 455.146 522.216 456.468L523.04 455.837Z" fill="black"/>
<path d="M841.333 286.031V286.28L845.608 286.089L841.333 286.031Z" fill="black"/>
<path d="M871.676 201.464H875.7L871.694 201.273L871.676 201.464Z" fill="black"/>
<path d="M300.18 250.131L294.142 251.243C298.896 251.3 298.915 251.3 300.18 250.131Z" fill="black"/>
<path d="M410.738 267.344L410.623 267.785H414.571V267.593L410.738 267.344Z" fill="black"/>
<path d="M1020.87 250.994H1017.04C1018.44 252.393 1019.44 253.409 1020.87 250.994Z" fill="black"/>
<path d="M969.43 439.179V438.586H965.461V438.988L969.43 439.179Z" fill="black"/>
<path d="M427.509 349.803L427.7 349.496H423.579V349.803H427.509Z" fill="black"/>
<path d="M1018.96 288.027H1025.02V287.414L1018.96 288.027Z" fill="black"/>
<path d="M453.519 389.9H449.993V390.15H453.519V389.9Z" fill="black"/>
<path d="M977.595 439.852V439.564H975.045V439.795L977.595 439.852Z" fill="black"/>
<path d="M411.351 348.5H408.648V348.921H411.351V348.5Z" fill="black"/>
<path d="M200.266 255.402H200.899L200.63 250.131C200.534 251.894 200.381 253.639 200.266 255.402Z" fill="black"/>
<path d="M447.903 372.479H444.664V372.824H447.769L447.903 372.479Z" fill="black"/>
<path d="M884.25 386.565H887.662V386.258H884.25V386.565Z" fill="black"/>
<path d="M638.313 401.037H633.693L638.236 401.593L638.313 401.037Z" fill="black"/>
<path d="M437.245 215.861L433.565 216.187L437.245 216.628V215.861Z" fill="black"/>
<path d="M136.419 89.6232C167.087 90.4283 197.755 90.2364 228.519 89.9106C258.804 89.5847 289.089 89.1632 319.354 89.6232C336.796 89.8724 354.219 90.4281 371.623 91.3865C372.159 91.3865 372.754 90.409 373.272 90.4281C342.604 88.7414 311.936 88.358 281.268 88.5114C250.983 88.6264 220.699 89.2017 190.395 89.2592C172.972 89.2592 155.529 89.1436 138.087 88.6836C137.531 88.6836 136.975 89.6611 136.439 89.642L136.419 89.6232Z" fill="black"/>
<path d="M1052.64 549.873C1052.16 549.387 1051.74 548.855 1051.37 548.283L1020.4 546.634C995.633 545.35 970.869 544.123 946.104 542.801C941.811 542.59 937.555 542.054 933.281 541.785C932.231 541.862 931.194 542.067 930.195 542.398V543.682C931.747 544.027 933.281 544.43 934.833 544.756C939.606 545.791 944.417 546.788 949.17 547.784C951.854 548.359 954.538 549.011 957.259 549.375C958.556 549.593 959.883 549.522 961.149 549.168C962.415 548.813 963.587 548.184 964.581 547.325C958.313 547.746 952.966 548.341 947.33 544.737C972.421 545.906 996.514 546.941 1020.61 548.148C1031.29 548.698 1041.97 549.273 1052.64 549.873Z" fill="black"/>
<path d="M750.615 196.137C750.487 196.914 750.288 197.677 750.021 198.418C750.661 198.411 751.302 198.45 751.937 198.533C753.88 198.215 755.866 198.28 757.784 198.725C761.294 199.501 764.846 200.077 768.421 200.449C771.009 200.641 773.577 200.794 776.088 200.929C781.11 201.159 786.171 201.139 791.212 201.293C798.879 201.523 875.97 201.082 883.58 201.293C883.58 200.928 883.58 200.564 883.733 200.219C862.266 200.583 778.925 199.759 750.615 196.137Z" fill="black"/>
<path d="M818.984 190.713C819.178 191.779 819.507 192.816 819.962 193.799C821.054 192.955 821.495 192.151 821.361 191.461" fill="black"/>
<path d="M817.968 200.891H839.589V200.604H817.949L817.968 200.891Z" fill="black"/>
<path d="M883.809 200.756V200.334H877.521V200.564C878.652 200.698 879.783 200.89 880.914 200.928C882.045 200.967 882.87 200.814 883.809 200.756Z" fill="black"/>
<path d="M505.023 357.871C504.198 359.078 502.512 359.538 502.147 358.312C501.304 355.436 498.984 355.322 496.933 354.862C492.027 353.75 487.081 352.945 482.155 351.91C480.676 351.676 479.256 351.155 477.977 350.377C486.123 351.22 494.25 352.025 501.994 354.9C503.355 355.399 505.003 355.82 505.023 357.871Z" fill="black"/>
<path d="M937 232.058C937.089 230.641 937.089 229.219 937 227.802C936.521 224.333 935.792 220.882 935.351 217.394C935.332 216.556 935.019 215.752 934.464 215.124C933.91 214.496 933.151 214.085 932.322 213.963C928.828 213.072 925.189 212.903 921.627 213.465C921.167 219.215 920.707 224.85 920.247 230.524L919.212 230.792C918.713 230.064 917.794 229.336 917.794 228.588C917.794 223.566 917.794 218.525 918.12 213.503C918.273 210.494 918.733 210.283 921.953 210.647C926.342 211.164 930.75 211.759 935.159 212.238C937.076 212.43 938.322 212.985 938.418 215.19C938.686 221.285 939.051 227.342 939.396 233.725C934.182 233.993 926.649 232.441 923.391 230.064" fill="black"/>
<path d="M981.851 212.335C974.97 212.949 968.032 212.508 960.767 214.252L963.45 217.797L959.099 216.686V234.205L991.033 235.642V236.831C989.971 236.97 988.902 237.053 987.831 237.08C980.95 236.792 974.088 236.371 967.207 236.18C964.926 236.18 962.646 236.716 960.365 236.812C957.49 236.946 956.684 236.276 956.627 233.496C956.493 227.995 956.416 222.474 956.531 216.954C956.531 212.929 957.278 212.24 961.419 211.856C964.32 211.633 967.232 211.581 970.139 211.703C974.03 211.875 977.941 212.144 981.851 212.335Z" fill="black"/>
<path d="M992.813 212.756C1003.74 213.983 1014.61 215.421 1024.96 219.561L992.756 213.676L992.813 212.756Z" fill="black"/>
</svg>
